STARTFONT 2.1
FONT -FontForge-Good Times Rg-Book-R-Normal--30-290-75-75-P-209-ISO10646-1
SIZE 29 75 75
FONTBOUNDINGBOX 38 33 0 -6
COMMENT "Generated by fontforge, http://fontforge.sourceforge.net"
COMMENT "(c) 1998-2012 Typodermic Fonts Inc. See attached license agreement. If agreement is missing visit typodermicfonts.com for more info. Languages by Chikako Larabie"
STARTPROPERTIES 38
FOUNDRY "FontForge"
FAMILY_NAME "Good Times Rg"
WEIGHT_NAME "Book"
SLANT "R"
SETWIDTH_NAME "Normal"
ADD_STYLE_NAME ""
PIXEL_SIZE 30
POINT_SIZE 290
RESOLUTION_X 75
RESOLUTION_Y 75
SPACING "P"
AVERAGE_WIDTH 209
CHARSET_REGISTRY "ISO10646"
CHARSET_ENCODING "1"
FONTNAME_REGISTRY ""
CHARSET_COLLECTIONS "ISO10646-1"
FONT_NAME "GoodTimesRg-Regular"
FACE_NAME "GoodTimesRg-Regular"
COPYRIGHT "(c) 1998-2012 Typodermic Fonts Inc. See attached license agreement. If agreement is missing visit typodermicfonts.com for more info. Languages by Chikako Larabie"
FONT_VERSION "4.001"
FONT_ASCENT 24
FONT_DESCENT 6
UNDERLINE_POSITION -4
UNDERLINE_THICKNESS 1
X_HEIGHT 21
CAP_HEIGHT 21
RAW_ASCENT 799
RAW_DESCENT 201
RELATIVE_WEIGHT 40
RELATIVE_SETWIDTH 50
SUPERSCRIPT_X 0
SUPERSCRIPT_Y 9
SUPERSCRIPT_SIZE 9
SUBSCRIPT_X 0
SUBSCRIPT_Y 0
SUBSCRIPT_SIZE 9
AVG_LOWERCASE_WIDTH 254
AVG_UPPERCASE_WIDTH 260
ENDPROPERTIES
CHARS 120
STARTCHAR exclam
ENCODING 33
SWIDTH 298 0
DWIDTH 9 0
BBX 5 22 2 0
BITMAP
70
70
70
70
70
70
70
70
70
70
70
70
70
70
70
00
00
00
70
70
F8
70
ENDCHAR
STARTCHAR quotedbl
ENCODING 34
SWIDTH 452 0
DWIDTH 14 0
BBX 10 8 2 14
BITMAP
F3C0
F380
F380
F380
F380
6380
6380
6380
ENDCHAR
STARTCHAR numbersign
ENCODING 35
SWIDTH 697 0
DWIDTH 21 0
BBX 19 22 1 0
BITMAP
00E1C0
01C180
01C380
018380
038300
1FFFE0
1FFFE0
1FFFE0
070E00
070E00
060C00
0E1C00
0E1C00
FFFF00
FFFF00
FFFF00
1C3800
183000
387000
387000
307000
70E000
ENDCHAR
STARTCHAR dollar
ENCODING 36
SWIDTH 744 0
DWIDTH 22 0
BBX 19 22 2 0
BITMAP
00C000
00C000
1FFFC0
7FFFC0
FFFFC0
F0C000
E0C000
E0C000
E0C000
FFFF00
7FFF80
1FFFC0
00C1C0
00C1C0
00C0E0
00C1C0
00C1C0
FFFFC0
FFFF80
FFFF00
00C000
00C000
ENDCHAR
STARTCHAR percent
ENCODING 37
SWIDTH 965 0
DWIDTH 29 0
BBX 27 25 1 -2
BITMAP
00000700
1F800E00
3FC00C00
60E01800
E0603800
C0307000
C030E000
C060C000
60618000
70E38000
3FC70000
0F0E0000
000C0C00
001C7F80
0038E1C0
0070C0C0
00618060
00C18060
01C18060
0380C0C0
0700C0C0
06007F80
0E003F00
1C000000
38000000
ENDCHAR
STARTCHAR ampersand
ENCODING 38
SWIDTH 759 0
DWIDTH 23 0
BBX 21 22 1 0
BITMAP
07F000
1FF000
3FF000
7FF000
7C0000
780000
780000
780000
3C0000
1FFFF0
1FFFF0
3FFFF0
7C0780
780780
F00780
F00780
780780
7C0780
7FFFF8
3FFFF8
1FFFF8
0FFFF8
ENDCHAR
STARTCHAR quotesingle
ENCODING 39
SWIDTH 255 0
DWIDTH 8 0
BBX 4 8 2 14
BITMAP
F0
F0
F0
E0
E0
E0
E0
60
ENDCHAR
STARTCHAR parenleft
ENCODING 40
SWIDTH 356 0
DWIDTH 11 0
BBX 6 28 3 -3
BITMAP
1C
38
38
30
70
70
60
E0
E0
E0
C0
C0
C0
C0
C0
C0
C0
C0
E0
E0
60
60
70
70
30
38
38
1C
ENDCHAR
STARTCHAR parenright
ENCODING 41
SWIDTH 355 0
DWIDTH 11 0
BBX 6 28 2 -3
BITMAP
E0
60
70
70
30
38
38
18
18
1C
1C
1C
1C
1C
1C
1C
1C
1C
1C
18
18
38
38
30
70
70
60
E0
ENDCHAR
STARTCHAR asterisk
ENCODING 42
SWIDTH 469 0
DWIDTH 14 0
BBX 10 10 2 12
BITMAP
0C00
0C00
0C00
EDC0
FFC0
1E00
1E00
3300
7380
2100
ENDCHAR
STARTCHAR plus
ENCODING 43
SWIDTH 690 0
DWIDTH 21 0
BBX 17 17 2 3
BITMAP
01C000
01C000
01C000
01C000
01C000
01C000
01C000
FFFF80
FFFF80
FFFF80
01C000
01C000
01C000
01C000
01C000
01C000
01C000
ENDCHAR
STARTCHAR comma
ENCODING 44
SWIDTH 259 0
DWIDTH 8 0
BBX 4 8 2 -4
BITMAP
F0
F0
E0
E0
E0
E0
E0
C0
ENDCHAR
STARTCHAR hyphen
ENCODING 45
SWIDTH 296 0
DWIDTH 9 0
BBX 7 3 1 10
BITMAP
FE
FE
FE
ENDCHAR
STARTCHAR period
ENCODING 46
SWIDTH 262 0
DWIDTH 8 0
BBX 4 4 2 0
BITMAP
60
F0
F0
60
ENDCHAR
STARTCHAR slash
ENCODING 47
SWIDTH 444 0
DWIDTH 13 0
BBX 13 22 0 0
BITMAP
0038
0030
0070
0060
00E0
00C0
01C0
01C0
0180
0380
0300
0700
0600
0E00
0C00
1C00
1800
3800
3800
7000
7000
E000
ENDCHAR
STARTCHAR zero
ENCODING 48
SWIDTH 838 0
DWIDTH 25 0
BBX 23 22 1 0
BITMAP
00FE00
03FFC0
0FFFE0
1FFFF0
3F01F8
3C007C
78003C
78003C
F0001E
F0001E
F0001E
F0001E
F0001E
70001E
78003C
7C003C
3C0078
3F01F8
1FFFF0
0FFFE0
03FF80
00FE00
ENDCHAR
STARTCHAR one
ENCODING 49
SWIDTH 385 0
DWIDTH 12 0
BBX 9 22 1 0
BITMAP
F800
FC00
FE00
FF00
0F00
0780
0780
0780
0780
0780
0780
0780
0780
0780
0780
0780
0780
0780
0780
0780
0780
0780
ENDCHAR
STARTCHAR two
ENCODING 50
SWIDTH 825 0
DWIDTH 25 0
BBX 21 22 2 0
BITMAP
FFFF80
FFFFE0
FFFFF0
FFFFF8
0000F8
000078
000078
000078
0000F8
1FFFF0
3FFFE0
7FFF80
F80000
F00000
F00000
E00000
E00000
E00000
FFFFF8
FFFFF8
FFFFF8
FFFFF8
ENDCHAR
STARTCHAR three
ENCODING 51
SWIDTH 827 0
DWIDTH 25 0
BBX 22 22 1 0
BITMAP
FFFFC0
FFFFF0
FFFFF8
FFFFFC
00007C
00003C
00003C
00003C
000078
03FFF0
03FFF0
03FFF8
00007C
00003C
00003C
00003C
00003C
00007C
FFFFFC
FFFFF8
FFFFF0
FFFFC0
ENDCHAR
STARTCHAR four
ENCODING 52
SWIDTH 845 0
DWIDTH 25 0
BBX 24 22 1 0
BITMAP
F00070
F00070
F00070
F00070
F00070
F00070
F00070
F00070
F00070
F00070
700070
780070
7FFFFF
3FFFFF
3FFFFF
0FFFFF
000070
000070
000070
000070
000070
000070
ENDCHAR
STARTCHAR five
ENCODING 53
SWIDTH 885 0
DWIDTH 27 0
BBX 23 22 2 0
BITMAP
FFFFFC
FFFFFC
FFFFFC
FFFFFC
F00000
F00000
F00000
F00000
F00000
FFFFE0
FFFFF8
FFFFFC
00003E
00001E
00001E
00001E
00001E
00003E
FFFFFC
FFFFFC
FFFFF8
FFFFE0
ENDCHAR
STARTCHAR six
ENCODING 54
SWIDTH 872 0
DWIDTH 26 0
BBX 24 22 1 0
BITMAP
03FFFE
0FFFFE
1FFFFE
3FFFFE
3E0000
7C0000
780000
700000
F00000
FFFFF0
FFFFFC
FFFFFE
FFFFFE
F0001E
70000F
78000F
7C000E
3E001E
3FFFFE
1FFFFC
0FFFFC
01FFF0
ENDCHAR
STARTCHAR seven
ENCODING 55
SWIDTH 756 0
DWIDTH 23 0
BBX 21 22 1 0
BITMAP
FFFFF0
FFFFF8
FFFFF8
FFFFF0
0001F0
0003E0
0007C0
000F80
000F00
001F00
003E00
007C00
00F800
01F000
01F000
03E000
07C000
0F8000
1F0000
1E0000
3E0000
FC0000
ENDCHAR
STARTCHAR eight
ENCODING 56
SWIDTH 898 0
DWIDTH 27 0
BBX 23 22 2 0
BITMAP
0FFFE0
3FFFF8
7FFFFC
FFFFFE
F8003E
F0001E
F0001E
F0001E
78003C
3FFFF8
3FFFF8
7FFFFC
F8003E
F0001E
E0000E
E0000E
F0001E
F8003E
FFFFFE
7FFFFC
3FFFF8
0FFFE0
ENDCHAR
STARTCHAR nine
ENCODING 57
SWIDTH 861 0
DWIDTH 26 0
BBX 24 22 1 0
BITMAP
0FFF80
3FFFE0
7FFFF8
7FFFF8
78007C
F0003E
F0001E
F0001E
F0000E
78000E
7FFFFF
3FFFFF
1FFFFF
00001E
00001E
00001E
00003E
00007C
1FFFFC
1FFFF8
1FFFF0
1FFF80
ENDCHAR
STARTCHAR colon
ENCODING 58
SWIDTH 262 0
DWIDTH 8 0
BBX 4 14 2 0
BITMAP
60
F0
F0
E0
00
00
00
00
00
00
60
F0
F0
60
ENDCHAR
STARTCHAR semicolon
ENCODING 59
SWIDTH 262 0
DWIDTH 8 0
BBX 4 17 2 -4
BITMAP
60
F0
F0
60
00
00
00
00
00
F0
F0
E0
E0
E0
E0
E0
C0
ENDCHAR
STARTCHAR less
ENCODING 60
SWIDTH 690 0
DWIDTH 21 0
BBX 17 16 2 3
BITMAP
000180
000F80
003F80
00FC00
07F000
1F8000
7C0000
F00000
F80000
7E0000
0FC000
03F000
007E00
001F80
000780
000080
ENDCHAR
STARTCHAR equal
ENCODING 61
SWIDTH 690 0
DWIDTH 21 0
BBX 17 11 2 6
BITMAP
FFFF80
FFFF80
FFFF80
000000
000000
000000
000000
000000
FFFF80
FFFF80
FFFF80
ENDCHAR
STARTCHAR greater
ENCODING 62
SWIDTH 690 0
DWIDTH 21 0
BBX 17 16 2 3
BITMAP
C00000
F00000
FE0000
1F8000
07E000
00FC00
003F00
000780
000F80
007E00
01F800
0FC000
3F0000
FC0000
E00000
800000
ENDCHAR
STARTCHAR question
ENCODING 63
SWIDTH 776 0
DWIDTH 23 0
BBX 21 22 1 0
BITMAP
FFFFC0
FFFFE0
FFFFF0
FFFFF8
000078
000078
000078
000078
0000F8
07FFF0
1FFFE0
1FFFC0
3C0000
3C0000
3C0000
000000
000000
000000
180000
3C0000
3C0000
1C0000
ENDCHAR
STARTCHAR at
ENCODING 64
SWIDTH 833 0
DWIDTH 25 0
BBX 22 22 1 0
BITMAP
00FFFC
03FFFC
0FFFFC
1F001C
3C001C
38001C
707F9C
70FF9C
61C39C
E1839C
E3839C
E3839C
E1839C
E1C39C
70FFFC
707FFC
780000
3C0000
1F0000
0FFFFC
07FFFC
00FFFC
ENDCHAR
STARTCHAR A
ENCODING 65
SWIDTH 989 0
DWIDTH 30 0
BBX 29 22 0 0
BITMAP
00030000
00078000
000F8000
000FC000
001FE000
003FE000
003DF000
0078F000
00787800
00F07C00
01F03C00
01E01E00
03C01E00
03C7FF00
078FFF80
0F9FFF80
0F0003C0
1E0003E0
1E0001E0
3C0001F0
7C0000F0
F80000F8
ENDCHAR
STARTCHAR B
ENCODING 66
SWIDTH 891 0
DWIDTH 27 0
BBX 23 22 2 0
BITMAP
FFFFE0
FFFFF8
FFFFFC
FFFFFE
F0003E
F0001E
F0001E
F0001E
F0003C
F3FFF8
F3FFF8
F3FFFC
F0003E
F0001E
F0001E
F0001E
F0001E
F0003E
FFFFFE
FFFFFC
FFFFF8
FFFFE0
ENDCHAR
STARTCHAR C
ENCODING 67
SWIDTH 829 0
DWIDTH 25 0
BBX 23 22 1 0
BITMAP
01FFFE
07FFFE
0FFFFE
1FFFFE
3F0000
7C0000
780000
780000
F00000
F00000
F00000
F00000
F00000
700000
780000
780000
3C0000
3F0000
1FFFFE
0FFFFE
07FFFE
01FFFE
ENDCHAR
STARTCHAR D
ENCODING 68
SWIDTH 879 0
DWIDTH 26 0
BBX 23 22 2 0
BITMAP
FFFF00
FFFFC0
FFFFF0
FFFFF8
F001F8
F0007C
F0003C
F0001E
F0001E
F0001E
F0001E
F0001E
F0001E
F0001E
F0001E
F0003C
F0007C
F001F8
FFFFF0
FFFFE0
FFFFC0
FFFF00
ENDCHAR
STARTCHAR E
ENCODING 69
SWIDTH 759 0
DWIDTH 23 0
BBX 19 22 2 0
BITMAP
FFFFE0
FFFFE0
FFFFE0
FFFFE0
F00000
F00000
F00000
F00000
F00000
F3FFE0
F3FFE0
F3FFE0
F00000
F00000
F00000
F00000
F00000
F00000
FFFFE0
FFFFE0
FFFFE0
FFFFE0
ENDCHAR
STARTCHAR F
ENCODING 70
SWIDTH 705 0
DWIDTH 21 0
BBX 18 22 2 0
BITMAP
FFFFC0
FFFFC0
FFFFC0
FFFFC0
F00000
F00000
F00000
F00000
F00000
F3FFC0
F3FFC0
F3FFC0
F3FFC0
F00000
F00000
F00000
F00000
F00000
F00000
F00000
F00000
F00000
ENDCHAR
STARTCHAR G
ENCODING 71
SWIDTH 888 0
DWIDTH 27 0
BBX 24 22 1 0
BITMAP
01FFFE
07FFFE
0FFFFE
1FFFFE
3F0000
7C0000
780000
780000
F00000
F03FFF
F03FFF
F03FFF
F0000F
70000F
78000F
78000F
3C000F
3F000F
1FFFFF
0FFFFF
07FFFF
01FFFF
ENDCHAR
STARTCHAR H
ENCODING 72
SWIDTH 838 0
DWIDTH 25 0
BBX 21 22 2 0
BITMAP
F00078
F00078
F00078
F00078
F00078
F00078
F00078
F00078
F00078
F3FFF8
F3FFF8
F3FFF8
F3FFF8
F00078
F00078
F00078
F00078
F00078
F00078
F00078
F00078
F00078
ENDCHAR
STARTCHAR I
ENCODING 73
SWIDTH 267 0
DWIDTH 8 0
BBX 4 22 2 0
BITMAP
F0
F0
F0
F0
F0
F0
F0
F0
F0
F0
F0
F0
F0
F0
F0
F0
F0
F0
F0
F0
F0
F0
ENDCHAR
STARTCHAR J
ENCODING 74
SWIDTH 708 0
DWIDTH 21 0
BBX 19 22 1 0
BITMAP
0001E0
0001E0
0001E0
0001E0
0001E0
0001E0
0001E0
0001E0
0001E0
0001E0
0001E0
0001E0
0001E0
0001E0
0001C0
0003C0
0007C0
000FC0
FFFF80
FFFF00
FFFE00
FFF000
ENDCHAR
STARTCHAR K
ENCODING 75
SWIDTH 875 0
DWIDTH 26 0
BBX 24 22 2 0
BITMAP
F0007E
F001F8
F003F0
F007E0
F00F80
F03F00
F07E00
F0F800
F3F000
F7E000
F78000
F7C000
F3E000
F1F800
F0FC00
F03E00
F01F00
F00FC0
F007E0
F001F0
F000FC
F0007F
ENDCHAR
STARTCHAR L
ENCODING 76
SWIDTH 707 0
DWIDTH 21 0
BBX 18 22 2 0
BITMAP
F00000
F00000
F00000
F00000
F00000
F00000
F00000
F00000
F00000
F00000
F00000
F00000
F00000
F00000
F00000
F00000
F00000
F00000
FFFFC0
FFFFC0
FFFFC0
FFFFC0
ENDCHAR
STARTCHAR M
ENCODING 77
SWIDTH 1115 0
DWIDTH 33 0
BBX 32 22 1 0
BITMAP
038001C0
078003C0
07C003E0
07C003E0
07E007E0
0FE007E0
0FE00FF0
0EF00FF0
1EF01EF0
1E781E70
1E781C78
1C3C3C78
3C3C3878
3C1C783C
3C1E703C
780EF03C
780FF01C
780FE01E
7007E01E
F007C01E
F003C00E
F003800F
ENDCHAR
STARTCHAR N
ENCODING 78
SWIDTH 873 0
DWIDTH 26 0
BBX 22 22 2 0
BITMAP
E0001C
F0001C
F8001C
FC001C
FE001C
FF001C
EF801C
E7C01C
E3E01C
E1F01C
E0F81C
E07C1C
E03E1C
E01F1C
E00F9C
E007DC
E003FC
E001FC
E000FC
E0007C
E0003C
E0001C
ENDCHAR
STARTCHAR O
ENCODING 79
SWIDTH 968 0
DWIDTH 29 0
BBX 27 22 1 0
BITMAP
01FFF000
07FFFC00
0FFFFE00
1FFFFF00
3F001F80
7C0007C0
780003C0
780003C0
F00001E0
F00001E0
F00001E0
F00001E0
F00001E0
700001E0
780003C0
780003C0
3C000780
3F001F80
1FFFFF00
0FFFFE00
07FFFC00
01FFE000
ENDCHAR
STARTCHAR P
ENCODING 80
SWIDTH 867 0
DWIDTH 26 0
BBX 23 22 2 0
BITMAP
FFFFC0
FFFFF0
FFFFF8
FFFFFC
F0003E
F0001E
F0001E
F0001E
F0001E
F0001E
F0001E
F0003E
F3FFFC
F3FFF8
F3FFF0
F3FFC0
F00000
F00000
F00000
F00000
F00000
F00000
ENDCHAR
STARTCHAR Q
ENCODING 81
SWIDTH 968 0
DWIDTH 29 0
BBX 28 22 1 0
BITMAP
01FFF000
07FFFC00
0FFFFE00
1FFFFF00
3F001F80
7C0007C0
780003C0
780003C0
F00001E0
F00001E0
F00001E0
F00001E0
F00001E0
700F81E0
7803E3C0
7801F3C0
3C00FF80
3F003F80
1FFFFF00
0FFFFF80
07FFFFC0
01FFE3F0
ENDCHAR
STARTCHAR R
ENCODING 82
SWIDTH 921 0
DWIDTH 28 0
BBX 26 22 2 0
BITMAP
FFFFE000
FFFFF800
FFFFFC00
FFFFFC00
F0003E00
F0001E00
F0000E00
F0000E00
F0000E00
F0000E00
F0001E00
F0003E00
F3FFFC00
F3FFFC00
F3FFF800
F3FFE000
F001F000
F000F800
F0007C00
F0003E00
F0001F00
F0000FC0
ENDCHAR
STARTCHAR S
ENCODING 83
SWIDTH 880 0
DWIDTH 26 0
BBX 23 22 2 0
BITMAP
1FFFFC
3FFFFC
7FFFFC
FFFFFC
F00000
F00000
F00000
F00000
F00000
7FFFE0
3FFFF8
1FFFFC
00003E
00001E
00001E
00001E
00001E
00003E
FFFFFC
FFFFFC
FFFFF8
FFFFE0
ENDCHAR
STARTCHAR T
ENCODING 84
SWIDTH 720 0
DWIDTH 22 0
BBX 20 22 1 0
BITMAP
FFFFF0
FFFFF0
FFFFF0
FFFFF0
00F000
00F000
00F000
00F000
00F000
00F000
00F000
00F000
00F000
00F000
00F000
00F000
00F000
00F000
00F000
00F000
00F000
00F000
ENDCHAR
STARTCHAR U
ENCODING 85
SWIDTH 889 0
DWIDTH 27 0
BBX 23 22 2 0
BITMAP
E0001E
E0001E
E0001E
E0001E
E0001E
E0001E
E0001E
E0001E
E0001E
E0001E
E0001E
E0001E
E0001E
F0001E
F0001E
F0001E
F8003C
7E00FC
7FFFF8
3FFFF0
0FFFE0
03FF00
ENDCHAR
STARTCHAR V
ENCODING 86
SWIDTH 989 0
DWIDTH 30 0
BBX 29 22 0 0
BITMAP
F8000078
7C0000F0
3E0001F0
1E0001E0
1F0003E0
0F0003C0
0F800780
07C00F80
03C00F00
03E01E00
01E01E00
01F03C00
00F07C00
00787800
007CF000
003CF000
003FE000
001FE000
000FC000
000F8000
00078000
00030000
ENDCHAR
STARTCHAR W
ENCODING 87
SWIDTH 1268 0
DWIDTH 38 0
BBX 38 22 0 0
BITMAP
F81F00007C
7C0F800078
3C078000F0
3E07C001F0
1E03C001E0
1F03E003E0
0F01E003C0
0F81F007C0
0780F00780
03C0F80F00
03E0780F00
01E07C1E00
01F0FC1E00
00F0FE3C00
00F9FE3C00
007BCF7800
007FCF7800
003F87F000
003F87F000
001F03E000
000F03E000
000E01C000
ENDCHAR
STARTCHAR X
ENCODING 88
SWIDTH 1000 0
DWIDTH 30 0
BBX 28 22 1 0
BITMAP
FC0003E0
3E0007C0
1F000F80
0F801F00
07C03E00
03E07C00
01F0F800
00F9F000
007FC000
003F8000
001F0000
003F8000
007FC000
00FBE000
01F1F000
03E0F800
07C07C00
0F803F00
1F001F80
3E000FC0
7C0007E0
F80003F0
ENDCHAR
STARTCHAR Y
ENCODING 89
SWIDTH 926 0
DWIDTH 28 0
BBX 27 22 0 0
BITMAP
FC0003E0
3E0007C0
3F000F80
1F000F00
0F801F00
07C03E00
03E07C00
01F0F800
00F9F000
00F9E000
007FC000
003FC000
001F8000
000F0000
000F0000
000F0000
000F0000
000F0000
000F0000
000F0000
000F0000
000F0000
ENDCHAR
STARTCHAR Z
ENCODING 90
SWIDTH 802 0
DWIDTH 24 0
BBX 22 22 1 0
BITMAP
FFFFF8
FFFFFC
FFFFFC
FFFFF8
0001F0
0003E0
0007C0
000F80
001F00
003E00
007C00
00F800
01F000
03E000
07C000
0F8000
1F0000
3E0000
7FFFFC
FFFFFC
FFFFFC
7FFFFC
ENDCHAR
STARTCHAR bracketleft
ENCODING 91
SWIDTH 333 0
DWIDTH 10 0
BBX 5 28 3 -3
BITMAP
F8
F8
F8
C0
C0
C0
C0
C0
C0
C0
C0
C0
C0
C0
C0
C0
C0
C0
C0
C0
C0
C0
C0
C0
C0
C0
F8
F8
ENDCHAR
STARTCHAR backslash
ENCODING 92
SWIDTH 445 0
DWIDTH 13 0
BBX 13 22 0 0
BITMAP
E000
7000
7000
3000
3800
1800
1C00
0C00
0E00
0600
0700
0300
0380
0380
01C0
01C0
00C0
00E0
0060
0070
0030
0038
ENDCHAR
STARTCHAR bracketright
ENCODING 93
SWIDTH 333 0
DWIDTH 10 0
BBX 5 28 2 -3
BITMAP
F8
F8
F8
38
38
38
38
38
38
38
38
38
38
38
38
38
38
38
38
38
38
38
38
38
38
38
F8
F8
ENDCHAR
STARTCHAR asciicircum
ENCODING 94
SWIDTH 559 0
DWIDTH 17 0
BBX 13 13 2 9
BITMAP
0600
0700
0F00
0D80
0D80
19C0
18C0
38E0
3060
7060
6070
6030
E038
ENDCHAR
STARTCHAR underscore
ENCODING 95
SWIDTH 668 0
DWIDTH 20 0
BBX 20 2 0 -5
BITMAP
FFFFF0
FFFFF0
ENDCHAR
STARTCHAR grave
ENCODING 96
SWIDTH 362 0
DWIDTH 11 0
BBX 7 4 2 23
BITMAP
E0
FC
3E
02
ENDCHAR
STARTCHAR a
ENCODING 97
SWIDTH 989 0
DWIDTH 30 0
BBX 29 22 0 0
BITMAP
00070000
00078000
000F8000
000FC000
001FE000
003FE000
003DF000
0078F000
00787800
00F07C00
01F03C00
01E03E00
03C01F00
03C7FF00
078FFF80
0F8FFF80
0F1FFFC0
1E0003E0
1E0001E0
3C0001F0
7C0000F0
F80000F8
ENDCHAR
STARTCHAR b
ENCODING 98
SWIDTH 891 0
DWIDTH 27 0
BBX 23 22 2 0
BITMAP
FFFFE0
FFFFF8
FFFFFC
FFFFFC
F0003E
F0001E
F0001E
F0001E
F0003C
F3FFFC
F3FFF0
F3FFFC
F3FFFE
F0001E
F0001E
F0001E
F0001E
F0003E
FFFFFE
FFFFFC
FFFFF8
FFFFE0
ENDCHAR
STARTCHAR c
ENCODING 99
SWIDTH 829 0
DWIDTH 25 0
BBX 23 22 1 0
BITMAP
00FFFE
07FFFE
0FFFFE
1FFFFE
3F0000
7E0000
7C0000
780000
F00000
F00000
F00000
F00000
F00000
700000
780000
780000
3C0000
3F0000
1FFFFE
0FFFFE
07FFFE
01FFFE
ENDCHAR
STARTCHAR d
ENCODING 100
SWIDTH 879 0
DWIDTH 26 0
BBX 23 22 2 0
BITMAP
FFFE00
FFFFC0
FFFFE0
FFFFF0
F001F8
F0007C
F0003C
F0003E
F0001E
F0001E
F0001E
F0001E
F0001E
F0001E
F0001E
F0003C
F0007C
F000F8
FFFFF0
FFFFE0
FFFFC0
FFFF00
ENDCHAR
STARTCHAR e
ENCODING 101
SWIDTH 759 0
DWIDTH 23 0
BBX 19 22 2 0
BITMAP
FFFFE0
FFFFE0
FFFFE0
FFFFE0
F00000
F00000
F00000
F00000
F00000
F3FFE0
F3FFE0
F3FFE0
F3FFE0
F00000
F00000
F00000
F00000
F00000
FFFFE0
FFFFE0
FFFFE0
FFFFE0
ENDCHAR
STARTCHAR f
ENCODING 102
SWIDTH 705 0
DWIDTH 21 0
BBX 18 22 2 0
BITMAP
FFFFC0
FFFFC0
FFFFC0
FFFFC0
F00000
F00000
F00000
F00000
F00000
F00000
F3FFC0
F3FFC0
F3FFC0
F00000
F00000
F00000
F00000
F00000
F00000
F00000
F00000
F00000
ENDCHAR
STARTCHAR g
ENCODING 103
SWIDTH 888 0
DWIDTH 27 0
BBX 24 22 1 0
BITMAP
00FFFE
07FFFE
0FFFFE
1FFFFE
3F0000
7E0000
7C0000
780000
F00000
F03FFF
F03FFF
F03FFF
F03FFF
70000F
78000F
78000F
3C000F
3F000F
1FFFFF
0FFFFF
07FFFF
01FFFF
ENDCHAR
STARTCHAR h
ENCODING 104
SWIDTH 838 0
DWIDTH 25 0
BBX 21 22 2 0
BITMAP
F00078
F00078
F00078
F00078
F00078
F00078
F00078
F00078
F00078
F3FFF8
F3FFF8
F3FFF8
F3FFF8
F00078
F00078
F00078
F00078
F00078
F00078
F00078
F00078
F00078
ENDCHAR
STARTCHAR i
ENCODING 105
SWIDTH 267 0
DWIDTH 8 0
BBX 4 22 2 0
BITMAP
F0
F0
F0
F0
F0
F0
F0
F0
F0
F0
F0
F0
F0
F0
F0
F0
F0
F0
F0
F0
F0
F0
ENDCHAR
STARTCHAR j
ENCODING 106
SWIDTH 708 0
DWIDTH 21 0
BBX 19 22 1 0
BITMAP
0001E0
0001E0
0001E0
0001E0
0001E0
0001E0
0001E0
0001E0
0001E0
0001E0
0001E0
0001E0
0001E0
0001E0
0001E0
0003C0
0007C0
000FC0
FFFF80
FFFF00
FFFE00
FFF000
ENDCHAR
STARTCHAR k
ENCODING 107
SWIDTH 875 0
DWIDTH 26 0
BBX 24 22 2 0
BITMAP
F0007E
F000F8
F003F0
F007E0
F00F80
F03F00
F07E00
F0F800
F1F000
F7E000
F78000
F7C000
F3E000
F1F000
F0FC00
F03E00
F01F00
F00FC0
F007E0
F001F0
F000FC
F0007F
ENDCHAR
STARTCHAR l
ENCODING 108
SWIDTH 707 0
DWIDTH 21 0
BBX 18 22 2 0
BITMAP
F00000
F00000
F00000
F00000
F00000
F00000
F00000
F00000
F00000
F00000
F00000
F00000
F00000
F00000
F00000
F00000
F00000
F00000
FFFFC0
FFFFC0
FFFFC0
FFFFC0
ENDCHAR
STARTCHAR m
ENCODING 109
SWIDTH 1115 0
DWIDTH 33 0
BBX 32 22 1 0
BITMAP
038001C0
078003C0
07C003E0
07C003E0
0FE007E0
0FE007E0
0FE00FF0
0EF00FF0
1EF01EF0
1E781E70
1E781C78
1C3C3C78
3C3C3878
3C1E783C
3C1E703C
781EF03C
780FF01C
780FE01E
7007E01E
F007C01E
F003C00E
F003800F
ENDCHAR
STARTCHAR n
ENCODING 110
SWIDTH 873 0
DWIDTH 26 0
BBX 22 22 2 0
BITMAP
E0001C
F0001C
F8001C
FC001C
FE001C
FF001C
EF801C
E7C01C
E3E01C
E1F01C
E0F81C
E07C1C
E03E1C
E01F1C
E00F9C
E007DC
E003FC
E001FC
E000FC
E0007C
E0003C
E0001C
ENDCHAR
STARTCHAR o
ENCODING 111
SWIDTH 968 0
DWIDTH 29 0
BBX 27 22 1 0
BITMAP
00FFE000
07FFFC00
0FFFFE00
1FFFFF00
3F001F80
7E0007C0
7C0003C0
780003C0
F00001E0
F00001E0
F00001E0
F00001E0
F00001E0
700001E0
780003C0
780003C0
3C0007C0
3F001F80
1FFFFF00
0FFFFE00
07FFFC00
01FFE000
ENDCHAR
STARTCHAR p
ENCODING 112
SWIDTH 867 0
DWIDTH 26 0
BBX 23 22 2 0
BITMAP
FFFFC0
FFFFF0
FFFFF8
FFFFFC
F0007E
F0001E
F0001E
F0001E
F0001E
F0001E
F0001E
F0003E
F3FFFC
F3FFF8
F3FFF0
F3FFC0
F00000
F00000
F00000
F00000
F00000
F00000
ENDCHAR
STARTCHAR q
ENCODING 113
SWIDTH 968 0
DWIDTH 29 0
BBX 28 22 1 0
BITMAP
00FFE000
07FFFC00
0FFFFE00
1FFFFF00
3F001F80
7E0007C0
7C0003C0
780003C0
F00001E0
F00001E0
F00001E0
F00001E0
F00001E0
700F81E0
7803E3C0
7801F3C0
3C00FF80
3F007F80
1FFFFF00
0FFFFF80
07FFFFC0
01FFE3F0
ENDCHAR
STARTCHAR r
ENCODING 114
SWIDTH 921 0
DWIDTH 28 0
BBX 26 22 2 0
BITMAP
FFFFC000
FFFFF000
FFFFFC00
FFFFFC00
F0003E00
F0001E00
F0001E00
F0000E00
F0000E00
F0000E00
F0001E00
F0001E00
F000FC00
F3FFFC00
F3FFF800
F3FFE000
F001F000
F000F800
F0007C00
F0003E00
F0001F00
F0000FC0
ENDCHAR
STARTCHAR s
ENCODING 115
SWIDTH 880 0
DWIDTH 26 0
BBX 23 22 2 0
BITMAP
0FFFFC
3FFFFC
7FFFFC
FFFFFC
F80000
F00000
F00000
F00000
F00000
FFFFC0
7FFFF8
3FFFFC
03FFFC
00001E
00001E
00001E
00001E
00003E
FFFFFC
FFFFFC
FFFFF8
FFFFE0
ENDCHAR
STARTCHAR t
ENCODING 116
SWIDTH 720 0
DWIDTH 22 0
BBX 20 22 1 0
BITMAP
FFFFF0
FFFFF0
FFFFF0
FFFFF0
00F000
00F000
00F000
00F000
00F000
00F000
00F000
00F000
00F000
00F000
00F000
00F000
00F000
00F000
00F000
00F000
00F000
00F000
ENDCHAR
STARTCHAR u
ENCODING 117
SWIDTH 889 0
DWIDTH 27 0
BBX 23 22 2 0
BITMAP
E0001E
E0001E
E0001E
E0001E
E0001E
E0001E
E0001E
E0001E
E0001E
E0001E
E0001E
E0001E
E0001E
F0001E
F0001E
F0001E
F8003E
7C007C
7FEFFC
3FFFF8
1FFFF0
07FF80
ENDCHAR
STARTCHAR v
ENCODING 118
SWIDTH 989 0
DWIDTH 30 0
BBX 29 22 0 0
BITMAP
F8000078
7C0000F0
3C0001F0
3E0001E0
1F0003E0
0F0003C0
0F800780
07800780
07C00F00
03E01F00
01E01E00
01F03C00
00F03C00
00F87800
007CF800
003CF000
003FE000
001FE000
001FC000
000FC000
00078000
00070000
ENDCHAR
STARTCHAR w
ENCODING 119
SWIDTH 1268 0
DWIDTH 38 0
BBX 38 22 0 0
BITMAP
F81F00007C
7C0F800078
3C078000F0
3E07C000F0
1E03C001E0
1F03E003E0
0F01E003C0
0F81F007C0
0780F00780
07C0F80F80
03C0780F00
01E07C1F00
01E0FC1E00
00F0FE3C00
00F9FE3C00
0079FF7800
007FCF7800
003FCFF000
003F87F000
001F03E000
001F03E000
000E01C000
ENDCHAR
STARTCHAR x
ENCODING 120
SWIDTH 1000 0
DWIDTH 30 0
BBX 28 22 1 0
BITMAP
FC0003E0
3E0007C0
1F000F80
0F801F00
07C03E00
03E07C00
01F0F800
00F9F000
007FE000
003FC000
001F8000
003F8000
007FC000
00FBE000
01F1F000
03E0F800
07C07C00
0F803E00
1F001F80
3E000FC0
7C0007E0
F80003F0
ENDCHAR
STARTCHAR y
ENCODING 121
SWIDTH 926 0
DWIDTH 28 0
BBX 27 22 0 0
BITMAP
FC0003E0
7E0007C0
3E000780
1F000F80
0F801F00
07C03E00
03E07C00
01F0F800
01F9F000
00F9E000
007FE000
003FC000
001F8000
000F0000
000F0000
000F0000
000F0000
000F0000
000F0000
000F0000
000F0000
000F0000
ENDCHAR
STARTCHAR z
ENCODING 122
SWIDTH 802 0
DWIDTH 24 0
BBX 22 22 1 0
BITMAP
FFFFF8
FFFFFC
FFFFFC
FFFFF8
0001F0
0003E0
0007C0
000F80
001F00
003E00
007C00
00F800
01F000
03E000
07C000
0F8000
1F0000
3E0000
7FFFFC
FFFFFC
FFFFFC
7FFFFC
ENDCHAR
STARTCHAR braceleft
ENCODING 123
SWIDTH 337 0
DWIDTH 10 0
BBX 6 28 2 -3
BITMAP
1C
3C
78
70
70
70
70
70
70
70
70
70
70
E0
E0
70
70
70
70
70
70
70
70
70
70
70
3C
1C
ENDCHAR
STARTCHAR bar
ENCODING 124
SWIDTH 297 0
DWIDTH 9 0
BBX 3 28 3 -3
BITMAP
E0
E0
E0
E0
E0
E0
E0
E0
E0
E0
E0
E0
E0
E0
E0
E0
E0
E0
E0
E0
E0
E0
E0
E0
E0
E0
E0
E0
ENDCHAR
STARTCHAR braceright
ENCODING 125
SWIDTH 337 0
DWIDTH 10 0
BBX 6 28 2 -3
BITMAP
E0
F0
78
38
38
38
38
38
38
38
38
38
38
1C
1C
38
38
38
38
38
38
38
38
38
38
38
F0
E0
ENDCHAR
STARTCHAR asciitilde
ENCODING 126
SWIDTH 691 0
DWIDTH 21 0
BBX 17 5 2 9
BITMAP
3C0080
FF8180
FFFF80
C1FF80
803E00
ENDCHAR
STARTCHAR exclamdown
ENCODING 161
SWIDTH 298 0
DWIDTH 9 0
BBX 5 22 2 0
BITMAP
70
F8
70
70
00
00
00
70
70
70
70
70
70
70
70
70
70
70
70
70
70
70
ENDCHAR
STARTCHAR cent
ENCODING 162
SWIDTH 692 0
DWIDTH 21 0
BBX 18 22 1 0
BITMAP
001800
001800
03FFC0
0FFFC0
1FFFC0
3E1800
781800
701800
F01800
E01800
E01800
E01800
E01800
701800
701800
781800
3C1800
1FFFC0
0FFFC0
03FFC0
001800
001800
ENDCHAR
STARTCHAR sterling
ENCODING 163
SWIDTH 709 0
DWIDTH 21 0
BBX 19 22 1 0
BITMAP
03FF00
07FF00
0FFF00
1FFF00
1E0000
1C0000
1C0000
1C0000
1C0000
7FF000
7FF000
7FF000
1C0000
1C0000
1C0000
1C0000
1C0000
1C0000
FFFFE0
FFFFE0
FFFFE0
FFFFE0
ENDCHAR
STARTCHAR yen
ENCODING 165
SWIDTH 787 0
DWIDTH 24 0
BBX 22 22 1 0
BITMAP
F0007C
7800F8
7C00F0
3C01F0
1E01E0
1F03C0
0F07C0
0F8780
078F00
03CF00
03FE00
01FC00
1FFFE0
1FFFE0
1FFFE0
007800
007800
1FFFE0
1FFFE0
1FFFE0
007800
007800
ENDCHAR
STARTCHAR brokenbar
ENCODING 166
SWIDTH 297 0
DWIDTH 9 0
BBX 3 28 3 -3
BITMAP
E0
E0
E0
E0
E0
E0
E0
E0
E0
E0
E0
E0
00
00
00
00
E0
E0
E0
E0
E0
E0
E0
E0
E0
E0
E0
E0
ENDCHAR
STARTCHAR section
ENCODING 167
SWIDTH 773 0
DWIDTH 23 0
BBX 20 28 1 -6
BITMAP
0FFFC0
3FFFC0
7FFFC0
7FFFC0
780000
F00000
F00000
700000
780000
3FFF80
1FFFC0
1FFFE0
3801E0
3800E0
3800E0
3801E0
3FFFC0
1FFFC0
0FFFE0
0000F0
000070
000070
000070
0000F0
1FFFF0
1FFFF0
1FFFE0
1FFF80
ENDCHAR
STARTCHAR dieresis
ENCODING 168
SWIDTH 393 0
DWIDTH 12 0
BBX 8 3 2 24
BITMAP
C3
E7
C7
ENDCHAR
STARTCHAR copyright
ENCODING 169
SWIDTH 829 0
DWIDTH 25 0
BBX 23 22 1 0
BITMAP
00FE00
030180
0C0060
180030
300010
200008
407E04
41C004
430004
830006
820002
820002
830006
430004
418004
40FE04
200008
300010
180030
0C0060
030180
00FE00
ENDCHAR
STARTCHAR ordfeminine
ENCODING 170
SWIDTH 604 0
DWIDTH 18 0
BBX 16 12 1 9
BITMAP
0180
01C0
03C0
07E0
0660
0C30
1C38
19F8
3BFC
300C
6006
E007
ENDCHAR
STARTCHAR guillemotleft
ENCODING 171
SWIDTH 629 0
DWIDTH 19 0
BBX 17 11 1 6
BITMAP
008080
038380
070700
1C1C00
387000
E0E000
606000
383800
0E0E00
038700
018180
ENDCHAR
STARTCHAR registered
ENCODING 174
SWIDTH 585 0
DWIDTH 18 0
BBX 14 14 2 8
BITMAP
0F80
3060
6010
4018
CF88
8848
8844
8B84
88CC
8868
4018
6010
3060
0F80
ENDCHAR
STARTCHAR macron
ENCODING 175
SWIDTH 362 0
DWIDTH 11 0
BBX 7 2 2 25
BITMAP
FE
FE
ENDCHAR
STARTCHAR degree
ENCODING 176
SWIDTH 361 0
DWIDTH 11 0
BBX 9 9 1 13
BITMAP
3E00
7F00
6300
C100
C180
C100
6300
7F00
3C00
ENDCHAR
STARTCHAR plusminus
ENCODING 177
SWIDTH 690 0
DWIDTH 21 0
BBX 17 22 2 -2
BITMAP
01C000
01C000
01C000
01C000
01C000
01C000
01C000
01C000
FFFF80
FFFF80
01C000
01C000
01C000
01C000
01C000
01C000
01C000
000000
000000
FFFF80
FFFF80
FFFF80
ENDCHAR
STARTCHAR twosuperior
ENCODING 178
SWIDTH 442 0
DWIDTH 13 0
BBX 11 11 1 11
BITMAP
FFC0
FFE0
0060
0060
1FE0
7FC0
C000
C000
C000
FFE0
FFE0
ENDCHAR
STARTCHAR threesuperior
ENCODING 179
SWIDTH 443 0
DWIDTH 13 0
BBX 11 11 1 11
BITMAP
FFC0
FFE0
0060
0060
1FC0
1FC0
0060
0060
0060
FFC0
FF80
ENDCHAR
STARTCHAR acute
ENCODING 180
SWIDTH 362 0
DWIDTH 11 0
BBX 7 4 2 23
BITMAP
0E
7E
F8
80
ENDCHAR
STARTCHAR paragraph
ENCODING 182
SWIDTH 629 0
DWIDTH 19 0
BBX 16 25 1 -3
BITMAP
1FFF
7FFF
7FC3
FFC3
FFC3
FFC3
7FC3
7FC3
3FC3
0FC3
01C3
01C3
01C3
01C3
01C3
01C3
01C3
01C3
01C3
01C3
01C3
01C3
01C3
01C3
01C3
ENDCHAR
STARTCHAR periodcentered
ENCODING 183
SWIDTH 262 0
DWIDTH 8 0
BBX 4 4 2 9
BITMAP
60
F0
F0
60
ENDCHAR
STARTCHAR cedilla
ENCODING 184
SWIDTH 219 0
DWIDTH 7 0
BBX 4 5 1 -6
BITMAP
F0
70
60
20
20
ENDCHAR
STARTCHAR onesuperior
ENCODING 185
SWIDTH 222 0
DWIDTH 7 0
BBX 4 11 1 11
BITMAP
E0
F0
30
30
30
30
30
30
30
30
30
ENDCHAR
STARTCHAR ordmasculine
ENCODING 186
SWIDTH 592 0
DWIDTH 18 0
BBX 14 12 2 9
BITMAP
1FE0
7FF8
F038
C01C
C00C
C00C
C00C
C00C
E01C
7038
7FF0
1FE0
ENDCHAR
STARTCHAR guillemotright
ENCODING 187
SWIDTH 629 0
DWIDTH 19 0
BBX 17 11 1 6
BITMAP
808000
E0C000
707000
1C1C00
070E00
038380
030700
0E0E00
383800
E0E000
C0C000
ENDCHAR
STARTCHAR onequarter
ENCODING 188
SWIDTH 972 0
DWIDTH 29 0
BBX 27 25 1 -2
BITMAP
00001E00
1C001800
1E003000
06007000
0600E000
0600C000
06018000
06038000
06070000
060E0000
060C0000
06180000
00398180
00718180
00E18180
00C18180
01C18180
03818180
0700E180
0600FFE0
0C000180
1C000180
38000180
70000000
E0000000
ENDCHAR
STARTCHAR onehalf
ENCODING 189
SWIDTH 948 0
DWIDTH 28 0
BBX 26 25 1 -2
BITMAP
00001E00
1C001800
1E003000
06007000
0600E000
0600C000
06018000
06038000
06070000
060E0000
060C0000
06180000
0038FF00
0070FFC0
00E001C0
00C000C0
01C000C0
03807F80
0700FE00
0600C000
0C008000
1C00FFC0
3800FFC0
70000000
E0000000
ENDCHAR
STARTCHAR threequarters
ENCODING 190
SWIDTH 1029 0
DWIDTH 31 0
BBX 29 25 1 -2
BITMAP
00000700
FFC00E00
FFE00C00
00601800
00603800
1FC07000
1FC0E000
0060C000
0061C000
00638000
FFE70000
FF860000
000C6060
001C6060
00386060
00706060
00606060
00C06060
01C07060
03803FF8
07000060
06000060
0E000060
1C000000
38000000
ENDCHAR
ENDFONT
