STARTFONT 2.1
FONT -FontForge-Good Times Rg-Book-R-Normal--22-210-75-75-P-153-ISO10646-1
SIZE 21 75 75
FONTBOUNDINGBOX 28 25 0 -5
COMMENT "Generated by fontforge, http://fontforge.sourceforge.net"
COMMENT "(c) 1998-2012 Typodermic Fonts Inc. See attached license agreement. If agreement is missing visit typodermicfonts.com for more info. Languages by Chikako Larabie"
STARTPROPERTIES 38
FOUNDRY "FontForge"
FAMILY_NAME "Good Times Rg"
WEIGHT_NAME "Book"
SLANT "R"
SETWIDTH_NAME "Normal"
ADD_STYLE_NAME ""
PIXEL_SIZE 22
POINT_SIZE 210
RESOLUTION_X 75
RESOLUTION_Y 75
SPACING "P"
AVERAGE_WIDTH 153
CHARSET_REGISTRY "ISO10646"
CHARSET_ENCODING "1"
FONTNAME_REGISTRY ""
CHARSET_COLLECTIONS "ISO10646-1"
FONT_NAME "GoodTimesRg-Regular"
FACE_NAME "GoodTimesRg-Regular"
COPYRIGHT "(c) 1998-2012 Typodermic Fonts Inc. See attached license agreement. If agreement is missing visit typodermicfonts.com for more info. Languages by Chikako Larabie"
FONT_VERSION "4.001"
FONT_ASCENT 18
FONT_DESCENT 4
UNDERLINE_POSITION -3
UNDERLINE_THICKNESS 1
X_HEIGHT 15
CAP_HEIGHT 15
RAW_ASCENT 799
RAW_DESCENT 201
RELATIVE_WEIGHT 40
RELATIVE_SETWIDTH 50
SUPERSCRIPT_X 0
SUPERSCRIPT_Y 6
SUPERSCRIPT_SIZE 6
SUBSCRIPT_X 0
SUBSCRIPT_Y 0
SUBSCRIPT_SIZE 6
AVG_LOWERCASE_WIDTH 186
AVG_UPPERCASE_WIDTH 191
ENDPROPERTIES
CHARS 120
STARTCHAR exclam
ENCODING 33
SWIDTH 298 0
DWIDTH 7 0
BBX 3 16 2 0
BITMAP
E0
E0
E0
E0
E0
E0
E0
E0
E0
E0
E0
00
00
C0
E0
E0
ENDCHAR
STARTCHAR quotedbl
ENCODING 34
SWIDTH 452 0
DWIDTH 10 0
BBX 7 6 1 10
BITMAP
E6
66
66
66
66
66
ENDCHAR
STARTCHAR numbersign
ENCODING 35
SWIDTH 697 0
DWIDTH 15 0
BBX 13 16 1 0
BITMAP
0618
0630
0630
0C30
3FF8
3FF8
0860
18C0
18C0
18C0
FFF0
FFF0
3180
6180
6300
6300
ENDCHAR
STARTCHAR dollar
ENCODING 36
SWIDTH 744 0
DWIDTH 16 0
BBX 14 16 1 0
BITMAP
0100
3FF8
7FF8
7FF8
E100
E100
6100
7FF0
3FFC
010C
010C
010C
FFFC
FFF8
FFF0
0100
ENDCHAR
STARTCHAR percent
ENCODING 37
SWIDTH 965 0
DWIDTH 21 0
BBX 19 18 1 -1
BITMAP
000180
7E0300
430300
C10600
810C00
811800
C31000
7E3000
3C6000
00C780
018FC0
011860
031020
061020
0C1820
180C60
1807C0
700000
ENDCHAR
STARTCHAR ampersand
ENCODING 38
SWIDTH 759 0
DWIDTH 17 0
BBX 15 16 1 0
BITMAP
1F80
7F80
7F80
E000
E000
7000
7FFC
3FFC
7FFC
F070
E070
E070
E070
7FFE
7FFE
1FFE
ENDCHAR
STARTCHAR quotesingle
ENCODING 39
SWIDTH 255 0
DWIDTH 6 0
BBX 3 6 1 10
BITMAP
E0
60
60
60
60
60
ENDCHAR
STARTCHAR parenleft
ENCODING 40
SWIDTH 356 0
DWIDTH 8 0
BBX 4 20 2 -2
BITMAP
30
30
60
60
60
40
C0
C0
C0
C0
C0
C0
C0
C0
40
60
60
60
30
30
ENDCHAR
STARTCHAR parenright
ENCODING 41
SWIDTH 355 0
DWIDTH 8 0
BBX 5 20 1 -2
BITMAP
E0
60
60
30
30
30
10
18
18
18
18
18
18
10
30
30
30
60
60
E0
ENDCHAR
STARTCHAR asterisk
ENCODING 42
SWIDTH 469 0
DWIDTH 10 0
BBX 8 7 1 9
BITMAP
18
18
5B
FE
1C
34
66
ENDCHAR
STARTCHAR plus
ENCODING 43
SWIDTH 690 0
DWIDTH 15 0
BBX 13 12 1 2
BITMAP
0300
0300
0300
0300
0300
FFF8
FFF8
0300
0300
0300
0300
0300
ENDCHAR
STARTCHAR comma
ENCODING 44
SWIDTH 259 0
DWIDTH 6 0
BBX 3 6 1 -3
BITMAP
E0
E0
E0
E0
C0
C0
ENDCHAR
STARTCHAR hyphen
ENCODING 45
SWIDTH 296 0
DWIDTH 7 0
BBX 5 2 1 7
BITMAP
F8
F8
ENDCHAR
STARTCHAR period
ENCODING 46
SWIDTH 262 0
DWIDTH 6 0
BBX 3 3 1 0
BITMAP
60
E0
60
ENDCHAR
STARTCHAR slash
ENCODING 47
SWIDTH 444 0
DWIDTH 10 0
BBX 10 16 0 0
BITMAP
01C0
0180
0100
0300
0200
0600
0600
0C00
0C00
1800
1800
3000
3000
6000
6000
C000
ENDCHAR
STARTCHAR zero
ENCODING 48
SWIDTH 838 0
DWIDTH 18 0
BBX 17 16 1 0
BITMAP
07E000
1FF800
3FFC00
781E00
700F00
E00700
E00300
E00380
E00300
E00300
E00700
700F00
781E00
3FFC00
1FF800
07E000
ENDCHAR
STARTCHAR one
ENCODING 49
SWIDTH 385 0
DWIDTH 8 0
BBX 6 16 1 0
BITMAP
F0
F8
FC
1C
1C
1C
1C
1C
1C
1C
1C
1C
1C
1C
1C
1C
ENDCHAR
STARTCHAR two
ENCODING 50
SWIDTH 825 0
DWIDTH 18 0
BBX 16 16 1 0
BITMAP
7FFC
7FFE
7FFF
0007
0007
0007
1FFF
3FFE
7FFC
7000
E000
E000
E000
FFFF
FFFF
FFFF
ENDCHAR
STARTCHAR three
ENCODING 51
SWIDTH 827 0
DWIDTH 18 0
BBX 16 16 1 0
BITMAP
FFFC
FFFE
FFFF
0007
0007
0007
0FFE
0FFC
0FFE
0007
0007
0007
0007
FFFF
FFFE
FFF8
ENDCHAR
STARTCHAR four
ENCODING 52
SWIDTH 845 0
DWIDTH 19 0
BBX 17 16 1 0
BITMAP
E00E00
E00E00
E00E00
E00E00
E00E00
E00E00
E00E00
E00E00
E00E00
7FFF80
7FFF80
0FFF80
000E00
000E00
000E00
000E00
ENDCHAR
STARTCHAR five
ENCODING 53
SWIDTH 885 0
DWIDTH 19 0
BBX 17 16 1 0
BITMAP
FFFF80
FFFF80
FFFF80
E00000
E00000
E00000
FFFC00
FFFF00
FFFF80
000380
000180
000180
000380
FFFF80
FFFF00
FFFE00
ENDCHAR
STARTCHAR six
ENCODING 54
SWIDTH 872 0
DWIDTH 19 0
BBX 17 16 1 0
BITMAP
0FFF00
3FFF00
7FFF00
700000
E00000
E00000
FFFC00
FFFF00
FFFF80
E00380
E00380
F00380
700380
7FFF80
3FFF00
0FFE00
ENDCHAR
STARTCHAR seven
ENCODING 55
SWIDTH 756 0
DWIDTH 17 0
BBX 15 16 1 0
BITMAP
FFFE
FFFE
FFFE
003C
0038
0070
00E0
01E0
03C0
0780
0700
0E00
1E00
3C00
7800
F000
ENDCHAR
STARTCHAR eight
ENCODING 56
SWIDTH 898 0
DWIDTH 20 0
BBX 18 16 1 0
BITMAP
1FFE00
7FFF00
7FFF80
F00380
E00180
700380
7FFF00
3FFF00
7FFF80
F00380
E001C0
E001C0
F00380
7FFF80
7FFF00
1FFE00
ENDCHAR
STARTCHAR nine
ENCODING 57
SWIDTH 861 0
DWIDTH 19 0
BBX 17 16 1 0
BITMAP
3FF800
7FFE00
FFFE00
E00F00
E00700
E00380
E00380
FFFF80
7FFF80
3FFF80
000380
000380
000700
3FFF00
3FFE00
3FF800
ENDCHAR
STARTCHAR colon
ENCODING 58
SWIDTH 262 0
DWIDTH 6 0
BBX 3 10 1 0
BITMAP
60
E0
60
00
00
00
00
60
E0
60
ENDCHAR
STARTCHAR semicolon
ENCODING 59
SWIDTH 262 0
DWIDTH 6 0
BBX 3 13 1 -3
BITMAP
60
E0
60
00
00
00
00
E0
E0
E0
E0
C0
C0
ENDCHAR
STARTCHAR less
ENCODING 60
SWIDTH 690 0
DWIDTH 15 0
BBX 13 12 1 2
BITMAP
0018
0078
01E0
0F80
3C00
F000
7000
1E00
0780
01F0
0038
0008
ENDCHAR
STARTCHAR equal
ENCODING 61
SWIDTH 690 0
DWIDTH 15 0
BBX 13 8 1 4
BITMAP
FFF8
FFF8
0000
0000
0000
0000
FFF8
FFF8
ENDCHAR
STARTCHAR greater
ENCODING 62
SWIDTH 690 0
DWIDTH 15 0
BBX 13 12 1 2
BITMAP
C000
F000
3C00
0F80
01E0
0038
0078
03E0
0F00
7C00
E000
8000
ENDCHAR
STARTCHAR question
ENCODING 63
SWIDTH 776 0
DWIDTH 17 0
BBX 15 16 1 0
BITMAP
FFF8
FFFC
FFFE
000E
0006
000E
1FFE
3FFC
3FF8
7000
7000
0000
0000
3000
7000
3000
ENDCHAR
STARTCHAR at
ENCODING 64
SWIDTH 833 0
DWIDTH 18 0
BBX 16 16 1 0
BITMAP
07FF
1FFF
3803
7003
63F3
C7F3
C633
CC33
C433
C633
C7FF
63FF
7000
3800
1FFF
07FF
ENDCHAR
STARTCHAR A
ENCODING 65
SWIDTH 989 0
DWIDTH 22 0
BBX 21 16 0 0
BITMAP
003000
007800
007800
00FC00
01DC00
01CE00
038F00
078700
070380
0E0380
0E7FC0
1CFFE0
3C00E0
380070
700078
F00038
ENDCHAR
STARTCHAR B
ENCODING 66
SWIDTH 891 0
DWIDTH 20 0
BBX 18 16 1 0
BITMAP
FFFE00
FFFF00
FFFF80
E00380
E00380
E00380
E7FF00
E7FF00
E7FF80
E00380
E001C0
E001C0
E00380
FFFF80
FFFF00
FFFE00
ENDCHAR
STARTCHAR C
ENCODING 67
SWIDTH 829 0
DWIDTH 18 0
BBX 16 16 1 0
BITMAP
07FF
1FFF
3FFF
7800
7000
E000
E000
E000
E000
E000
E000
7000
7800
3FFF
1FFF
07FF
ENDCHAR
STARTCHAR D
ENCODING 68
SWIDTH 879 0
DWIDTH 19 0
BBX 17 16 1 0
BITMAP
FFF800
FFFC00
FFFF00
E00F00
E00780
E00380
E00380
E00180
E00180
E00380
E00380
E00780
E00F00
FFFE00
FFFC00
FFF000
ENDCHAR
STARTCHAR E
ENCODING 69
SWIDTH 759 0
DWIDTH 17 0
BBX 15 16 1 0
BITMAP
FFFE
FFFE
FFFE
E000
E000
E000
E7FC
E7FC
E7FC
E000
E000
E000
E000
FFFE
FFFE
FFFE
ENDCHAR
STARTCHAR F
ENCODING 70
SWIDTH 705 0
DWIDTH 16 0
BBX 14 16 1 0
BITMAP
FFFC
FFFC
FFFC
E000
E000
E000
E000
E7F8
E7F8
E7F8
E000
E000
E000
E000
E000
E000
ENDCHAR
STARTCHAR G
ENCODING 71
SWIDTH 888 0
DWIDTH 20 0
BBX 17 16 1 0
BITMAP
07FF00
1FFF00
3FFF00
780000
700000
E00000
E1FF80
E1FF80
E1FF80
E00180
E00180
700180
780180
3FFF80
1FFF80
07FF80
ENDCHAR
STARTCHAR H
ENCODING 72
SWIDTH 838 0
DWIDTH 18 0
BBX 16 16 1 0
BITMAP
E007
E007
E007
E007
E007
E007
E7FF
E7FF
E7FF
E007
E007
E007
E007
E007
E007
E007
ENDCHAR
STARTCHAR I
ENCODING 73
SWIDTH 267 0
DWIDTH 6 0
BBX 2 16 2 0
BITMAP
C0
C0
C0
C0
C0
C0
C0
C0
C0
C0
C0
C0
C0
C0
C0
C0
ENDCHAR
STARTCHAR J
ENCODING 74
SWIDTH 708 0
DWIDTH 16 0
BBX 13 16 1 0
BITMAP
0018
0018
0018
0018
0018
0018
0018
0018
0018
0018
0038
0038
0078
FFF0
FFE0
FF80
ENDCHAR
STARTCHAR K
ENCODING 75
SWIDTH 875 0
DWIDTH 19 0
BBX 18 16 1 0
BITMAP
E007C0
E01F00
E03C00
E07800
E1F000
E3C000
E78000
EF0000
EF0000
E78000
E1C000
E0F000
E07800
E03C00
E00F00
E007C0
ENDCHAR
STARTCHAR L
ENCODING 76
SWIDTH 707 0
DWIDTH 16 0
BBX 14 16 1 0
BITMAP
E000
E000
E000
E000
E000
E000
E000
E000
E000
E000
E000
E000
E000
FFFC
FFFC
FFFC
ENDCHAR
STARTCHAR M
ENCODING 77
SWIDTH 1115 0
DWIDTH 25 0
BBX 23 16 1 0
BITMAP
0C0060
0E00E0
1E00E0
1F01F0
1F01F0
3B03F0
3B83B0
398738
31C738
71CE18
70EE1C
70EC1C
E07C1C
E0780C
E0380E
C0300E
ENDCHAR
STARTCHAR N
ENCODING 78
SWIDTH 873 0
DWIDTH 19 0
BBX 17 16 1 0
BITMAP
600380
F00380
F80380
FC0380
FE0380
EF0380
E78380
E3C380
E1E380
E0F380
E07B80
E03F80
E01F80
E00F80
E00780
E00380
ENDCHAR
STARTCHAR O
ENCODING 79
SWIDTH 968 0
DWIDTH 21 0
BBX 19 16 1 0
BITMAP
07FE00
1FFF00
3FFFC0
7803C0
7001E0
E000E0
E000E0
E00060
E00060
E000E0
E000E0
7001E0
7803C0
3FFF80
1FFF00
07FC00
ENDCHAR
STARTCHAR P
ENCODING 80
SWIDTH 867 0
DWIDTH 19 0
BBX 17 16 1 0
BITMAP
FFFC00
FFFF00
FFFF80
E00380
E00380
E00180
E00180
E00380
E00380
E7FF00
E7FF00
E7FC00
E00000
E00000
E00000
E00000
ENDCHAR
STARTCHAR Q
ENCODING 81
SWIDTH 968 0
DWIDTH 21 0
BBX 20 16 1 0
BITMAP
07FE00
1FFF00
3FFFC0
7803C0
7001E0
E000E0
E000E0
E00060
E00060
E0F0E0
E038E0
701FE0
780FC0
3FFF80
1FFFC0
07FCF0
ENDCHAR
STARTCHAR R
ENCODING 82
SWIDTH 921 0
DWIDTH 20 0
BBX 19 16 1 0
BITMAP
FFFE00
FFFF00
FFFF80
E00380
E001C0
E001C0
E001C0
E001C0
E00380
E7FF80
E7FF00
E7FE00
E00F00
E00780
E003C0
E001E0
ENDCHAR
STARTCHAR S
ENCODING 83
SWIDTH 880 0
DWIDTH 19 0
BBX 17 16 1 0
BITMAP
1FFF80
7FFF80
7FFF80
E00000
E00000
E00000
7FFE00
7FFF00
1FFF80
000380
000180
000180
000380
FFFF80
FFFF00
FFFE00
ENDCHAR
STARTCHAR T
ENCODING 84
SWIDTH 720 0
DWIDTH 16 0
BBX 15 16 0 0
BITMAP
FFFE
FFFE
FFFE
0180
0180
0180
0180
0180
0180
0180
0180
0180
0180
0180
0180
0180
ENDCHAR
STARTCHAR U
ENCODING 85
SWIDTH 889 0
DWIDTH 20 0
BBX 17 16 1 0
BITMAP
E00180
E00180
E00180
E00180
E00180
E00180
E00180
E00180
E00180
E00180
E00380
F00380
780780
7FFF00
3FFE00
07F800
ENDCHAR
STARTCHAR V
ENCODING 86
SWIDTH 989 0
DWIDTH 22 0
BBX 21 16 0 0
BITMAP
F00038
780078
380070
3C00E0
1C00E0
0E01C0
0F0380
070380
078700
038700
01CE00
01FC00
00FC00
007800
007800
003000
ENDCHAR
STARTCHAR W
ENCODING 87
SWIDTH 1268 0
DWIDTH 28 0
BBX 28 16 0 0
BITMAP
F0F000F0
707800E0
383801C0
3C3C01C0
1C1C0380
1E1E0780
0E0E0700
0F0F0E00
070F0E00
038F9C00
039F9C00
01FBF800
01F9F800
00F0F000
00F0F000
00606000
ENDCHAR
STARTCHAR X
ENCODING 88
SWIDTH 1000 0
DWIDTH 22 0
BBX 21 16 0 0
BITMAP
780078
1C00E0
0E01C0
070380
038700
01CE00
00FC00
007800
00F800
01FE00
03CF00
078780
0F03C0
1E01E0
3C00F0
F80078
ENDCHAR
STARTCHAR Y
ENCODING 89
SWIDTH 926 0
DWIDTH 20 0
BBX 20 16 0 0
BITMAP
F000F0
3801E0
3C03C0
1E0380
0F0700
078E00
039E00
01FC00
01F800
00F000
007000
007000
007000
007000
007000
007000
ENDCHAR
STARTCHAR Z
ENCODING 90
SWIDTH 802 0
DWIDTH 18 0
BBX 16 16 1 0
BITMAP
FFFE
FFFF
FFFE
003C
0078
00F0
01E0
03C0
0780
0F00
1E00
3C00
7800
FFFF
FFFF
FFFF
ENDCHAR
STARTCHAR bracketleft
ENCODING 91
SWIDTH 333 0
DWIDTH 7 0
BBX 4 20 2 -2
BITMAP
F0
F0
C0
C0
C0
C0
C0
C0
C0
C0
C0
C0
C0
C0
C0
C0
C0
C0
F0
F0
ENDCHAR
STARTCHAR backslash
ENCODING 92
SWIDTH 445 0
DWIDTH 10 0
BBX 10 16 0 0
BITMAP
C000
6000
6000
3000
3000
1800
1800
0C00
0C00
0600
0600
0200
0300
0300
0180
01C0
ENDCHAR
STARTCHAR bracketright
ENCODING 93
SWIDTH 333 0
DWIDTH 7 0
BBX 4 20 1 -2
BITMAP
F0
F0
30
30
30
30
30
30
30
30
30
30
30
30
30
30
30
30
F0
F0
ENDCHAR
STARTCHAR asciicircum
ENCODING 94
SWIDTH 559 0
DWIDTH 12 0
BBX 10 10 1 6
BITMAP
0C00
0E00
1E00
1A00
1300
3300
2180
6180
6080
C0C0
ENDCHAR
STARTCHAR underscore
ENCODING 95
SWIDTH 668 0
DWIDTH 15 0
BBX 15 1 0 -3
BITMAP
FFFE
ENDCHAR
STARTCHAR grave
ENCODING 96
SWIDTH 362 0
DWIDTH 8 0
BBX 6 3 1 17
BITMAP
C0
F8
1C
ENDCHAR
STARTCHAR a
ENCODING 97
SWIDTH 989 0
DWIDTH 22 0
BBX 21 16 0 0
BITMAP
003000
007800
00F800
00FC00
01DC00
01CE00
038F00
078700
070380
0E03C0
0E7FC0
1CFFE0
3C00E0
380070
700078
F00038
ENDCHAR
STARTCHAR b
ENCODING 98
SWIDTH 891 0
DWIDTH 20 0
BBX 18 16 1 0
BITMAP
FFFE00
FFFF00
FFFF80
E00380
E00380
E00380
E00780
E7FE00
E7FF80
E00380
E001C0
E001C0
E00380
FFFF80
FFFF00
FFFE00
ENDCHAR
STARTCHAR c
ENCODING 99
SWIDTH 829 0
DWIDTH 18 0
BBX 16 16 1 0
BITMAP
07FF
1FFF
3FFF
7800
7000
E000
E000
E000
E000
E000
E000
7000
7800
3FFF
1FFF
07FF
ENDCHAR
STARTCHAR d
ENCODING 100
SWIDTH 879 0
DWIDTH 19 0
BBX 17 16 1 0
BITMAP
FFF800
FFFC00
FFFF00
E00F00
E00780
E00380
E00380
E00180
E00180
E00380
E00380
E00780
E00F00
FFFE00
FFFC00
FFF000
ENDCHAR
STARTCHAR e
ENCODING 101
SWIDTH 759 0
DWIDTH 17 0
BBX 15 16 1 0
BITMAP
FFFE
FFFE
FFFE
E000
E000
E000
E000
E7FC
E7FC
E000
E000
E000
E000
FFFE
FFFE
FFFE
ENDCHAR
STARTCHAR f
ENCODING 102
SWIDTH 705 0
DWIDTH 16 0
BBX 14 16 1 0
BITMAP
FFFC
FFFC
FFFC
E000
E000
E000
E000
E7F8
E7F8
E000
E000
E000
E000
E000
E000
E000
ENDCHAR
STARTCHAR g
ENCODING 103
SWIDTH 888 0
DWIDTH 20 0
BBX 17 16 1 0
BITMAP
07FF00
1FFF00
3FFF00
780000
700000
E00000
E00000
E1FF80
E1FF80
E00180
E00180
700180
780180
3FFF80
1FFF80
07FF80
ENDCHAR
STARTCHAR h
ENCODING 104
SWIDTH 838 0
DWIDTH 18 0
BBX 16 16 1 0
BITMAP
E007
E007
E007
E007
E007
E007
E007
E7FF
E7FF
E007
E007
E007
E007
E007
E007
E007
ENDCHAR
STARTCHAR i
ENCODING 105
SWIDTH 267 0
DWIDTH 6 0
BBX 2 16 2 0
BITMAP
C0
C0
C0
C0
C0
C0
C0
C0
C0
C0
C0
C0
C0
C0
C0
C0
ENDCHAR
STARTCHAR j
ENCODING 106
SWIDTH 708 0
DWIDTH 16 0
BBX 13 16 1 0
BITMAP
0018
0018
0018
0018
0018
0018
0018
0018
0018
0018
0038
0038
0078
FFF0
FFE0
FF80
ENDCHAR
STARTCHAR k
ENCODING 107
SWIDTH 875 0
DWIDTH 19 0
BBX 18 16 1 0
BITMAP
E007C0
E01E00
E03C00
E07800
E1E000
E3C000
E78000
EE0000
EF0000
E78000
E1E000
E0F000
E07800
E03E00
E00F00
E007C0
ENDCHAR
STARTCHAR l
ENCODING 108
SWIDTH 707 0
DWIDTH 16 0
BBX 14 16 1 0
BITMAP
E000
E000
E000
E000
E000
E000
E000
E000
E000
E000
E000
E000
E000
FFFC
FFFC
FFFC
ENDCHAR
STARTCHAR m
ENCODING 109
SWIDTH 1115 0
DWIDTH 25 0
BBX 23 16 1 0
BITMAP
0C00E0
1E00E0
1E00E0
1F01F0
1F01F0
3B83F0
3B8330
398738
31C738
71CE18
70EE1C
70EC1C
E07C1C
E0780C
E0380E
C0380E
ENDCHAR
STARTCHAR n
ENCODING 110
SWIDTH 873 0
DWIDTH 19 0
BBX 17 16 1 0
BITMAP
600380
F00380
F80380
FC0380
FE0380
EF0380
E78380
E3C380
E1E380
E0F380
E07B80
E03F80
E01F80
E00F80
E00780
E00380
ENDCHAR
STARTCHAR o
ENCODING 111
SWIDTH 968 0
DWIDTH 21 0
BBX 19 16 1 0
BITMAP
07FE00
1FFF00
3FFFC0
7803C0
7001E0
E000E0
E000E0
E00060
E00060
E000E0
E000E0
7001E0
7803C0
3FFF80
1FFF00
07FC00
ENDCHAR
STARTCHAR p
ENCODING 112
SWIDTH 867 0
DWIDTH 19 0
BBX 17 16 1 0
BITMAP
FFFC00
FFFF00
FFFF80
E00380
E00180
E00180
E00180
E00380
E00780
E7FF00
E7FE00
E7F800
E00000
E00000
E00000
E00000
ENDCHAR
STARTCHAR q
ENCODING 113
SWIDTH 968 0
DWIDTH 21 0
BBX 20 16 1 0
BITMAP
07FE00
1FFF00
3FFFC0
7803C0
7001E0
E000E0
E000E0
E00060
E00060
E0F0E0
E038E0
701FE0
780FC0
3FFF80
1FFFC0
07FCF0
ENDCHAR
STARTCHAR r
ENCODING 114
SWIDTH 921 0
DWIDTH 20 0
BBX 19 16 1 0
BITMAP
FFFE00
FFFF00
FFFF80
E00380
E001C0
E001C0
E001C0
E00180
E00380
E7FF80
E7FF00
E7FE00
E00F00
E00780
E003C0
E001E0
ENDCHAR
STARTCHAR s
ENCODING 115
SWIDTH 880 0
DWIDTH 19 0
BBX 17 16 1 0
BITMAP
1FFF80
7FFF80
7FFF80
E00000
E00000
E00000
700000
7FFF00
1FFF80
000380
000180
000180
000380
FFFF80
FFFF00
FFFE00
ENDCHAR
STARTCHAR t
ENCODING 116
SWIDTH 720 0
DWIDTH 16 0
BBX 15 16 0 0
BITMAP
FFFE
FFFE
FFFE
0180
0180
0180
0180
0180
0180
0180
0180
0180
0180
0180
0180
0180
ENDCHAR
STARTCHAR u
ENCODING 117
SWIDTH 889 0
DWIDTH 20 0
BBX 17 16 1 0
BITMAP
E00180
E00180
E00180
E00180
E00180
E00180
E00180
E00180
E00180
E00180
E00180
F00380
700780
7FFF00
3FFE00
0FFC00
ENDCHAR
STARTCHAR v
ENCODING 118
SWIDTH 989 0
DWIDTH 22 0
BBX 21 16 0 0
BITMAP
F00038
780078
380070
3C00E0
1C00E0
0E01C0
0F03C0
070380
078700
038700
01CE00
01DC00
00FC00
00F800
007800
003000
ENDCHAR
STARTCHAR w
ENCODING 119
SWIDTH 1268 0
DWIDTH 28 0
BBX 28 16 0 0
BITMAP
F0F000F0
707800E0
383801C0
383C01C0
1C1C0380
1E1E0380
0E0E0700
0F0F0F00
070F0E00
078F9C00
039F9C00
01DFF800
01F9F800
00F1F000
00F0F000
00606000
ENDCHAR
STARTCHAR x
ENCODING 120
SWIDTH 1000 0
DWIDTH 22 0
BBX 21 16 0 0
BITMAP
780078
1C00E0
0F01C0
078380
03CF00
01FE00
00FC00
007800
00FC00
01FE00
03CF00
078780
0F03C0
1E01E0
3C00F0
F80078
ENDCHAR
STARTCHAR y
ENCODING 121
SWIDTH 926 0
DWIDTH 20 0
BBX 20 16 0 0
BITMAP
F000F0
3801E0
3C03C0
1E0380
0F0700
078E00
03DE00
01FC00
00F800
00F000
007000
007000
007000
007000
007000
007000
ENDCHAR
STARTCHAR z
ENCODING 122
SWIDTH 802 0
DWIDTH 18 0
BBX 16 16 1 0
BITMAP
FFFE
FFFF
FFFE
003C
0078
00F0
01E0
03C0
0780
0F00
1E00
3C00
7800
FFFF
FFFF
FFFF
ENDCHAR
STARTCHAR braceleft
ENCODING 123
SWIDTH 337 0
DWIDTH 7 0
BBX 5 20 1 -2
BITMAP
38
38
60
60
60
60
60
60
60
E0
E0
60
60
60
60
60
60
60
38
38
ENDCHAR
STARTCHAR bar
ENCODING 124
SWIDTH 297 0
DWIDTH 7 0
BBX 2 20 2 -2
BITMAP
C0
C0
C0
C0
C0
C0
C0
C0
C0
C0
C0
C0
C0
C0
C0
C0
C0
C0
C0
C0
ENDCHAR
STARTCHAR braceright
ENCODING 125
SWIDTH 337 0
DWIDTH 7 0
BBX 5 20 1 -2
BITMAP
E0
F0
30
30
30
30
30
30
30
38
38
30
30
30
30
30
30
30
F0
E0
ENDCHAR
STARTCHAR asciitilde
ENCODING 126
SWIDTH 691 0
DWIDTH 15 0
BBX 13 3 1 6
BITMAP
7C08
FFF8
81F0
ENDCHAR
STARTCHAR exclamdown
ENCODING 161
SWIDTH 298 0
DWIDTH 7 0
BBX 3 16 2 0
BITMAP
E0
E0
C0
00
00
E0
E0
E0
E0
E0
E0
E0
E0
E0
E0
E0
ENDCHAR
STARTCHAR cent
ENCODING 162
SWIDTH 692 0
DWIDTH 15 0
BBX 13 16 1 0
BITMAP
0080
0FF8
3FF8
7FF8
7080
E080
C080
C080
C080
C080
E080
7080
7FF8
3FF8
0FF8
0080
ENDCHAR
STARTCHAR sterling
ENCODING 163
SWIDTH 709 0
DWIDTH 16 0
BBX 14 16 1 0
BITMAP
0FE0
1FE0
3FE0
3800
3000
3000
3000
FF80
FF80
3000
3000
3000
3000
FFFC
FFFC
FFFC
ENDCHAR
STARTCHAR yen
ENCODING 165
SWIDTH 787 0
DWIDTH 17 0
BBX 17 16 0 0
BITMAP
F00780
780700
380E00
1C1E00
1E1C00
0E3800
073800
077000
03E000
1FFE00
1FFE00
01C000
1FFE00
1FFE00
01C000
01C000
ENDCHAR
STARTCHAR brokenbar
ENCODING 166
SWIDTH 297 0
DWIDTH 7 0
BBX 2 20 2 -2
BITMAP
C0
C0
C0
C0
C0
C0
C0
C0
C0
00
00
C0
C0
C0
C0
C0
C0
C0
C0
C0
ENDCHAR
STARTCHAR section
ENCODING 167
SWIDTH 773 0
DWIDTH 17 0
BBX 15 21 1 -5
BITMAP
3FF8
7FF8
FFF8
E000
E000
E000
E000
7FF8
3FFC
701C
601C
701C
7FF8
3FFC
001C
000E
000E
001E
3FFC
3FFC
3FF0
ENDCHAR
STARTCHAR dieresis
ENCODING 168
SWIDTH 393 0
DWIDTH 9 0
BBX 6 2 1 18
BITMAP
CC
CC
ENDCHAR
STARTCHAR copyright
ENCODING 169
SWIDTH 829 0
DWIDTH 18 0
BBX 16 16 1 0
BITMAP
07E0
1818
3004
4002
43E1
8401
8801
8801
8801
8801
8401
43E1
4002
3004
1818
07E0
ENDCHAR
STARTCHAR ordfeminine
ENCODING 170
SWIDTH 604 0
DWIDTH 13 0
BBX 11 9 1 7
BITMAP
0400
0E00
0B00
1900
1180
3F80
60C0
4060
C060
ENDCHAR
STARTCHAR guillemotleft
ENCODING 171
SWIDTH 629 0
DWIDTH 14 0
BBX 12 8 1 4
BITMAP
0410
1860
31C0
C300
C300
30C0
0C30
0410
ENDCHAR
STARTCHAR registered
ENCODING 174
SWIDTH 585 0
DWIDTH 13 0
BBX 10 10 1 6
BITMAP
1F00
2180
4040
5F40
9140
9640
5140
4040
2180
1F00
ENDCHAR
STARTCHAR macron
ENCODING 175
SWIDTH 362 0
DWIDTH 8 0
BBX 6 1 1 18
BITMAP
FC
ENDCHAR
STARTCHAR degree
ENCODING 176
SWIDTH 361 0
DWIDTH 8 0
BBX 6 6 1 10
BITMAP
78
CC
84
84
CC
78
ENDCHAR
STARTCHAR plusminus
ENCODING 177
SWIDTH 690 0
DWIDTH 15 0
BBX 13 15 1 -1
BITMAP
0300
0300
0300
0300
0300
FFF8
FFF8
0300
0300
0300
0300
0300
0000
FFF8
FFF8
ENDCHAR
STARTCHAR twosuperior
ENCODING 178
SWIDTH 442 0
DWIDTH 10 0
BBX 8 8 1 8
BITMAP
FE
03
03
7E
C0
80
FF
FF
ENDCHAR
STARTCHAR threesuperior
ENCODING 179
SWIDTH 443 0
DWIDTH 10 0
BBX 8 8 1 8
BITMAP
FE
03
03
3E
03
03
FF
FE
ENDCHAR
STARTCHAR acute
ENCODING 180
SWIDTH 362 0
DWIDTH 8 0
BBX 6 3 1 17
BITMAP
0C
7C
C0
ENDCHAR
STARTCHAR paragraph
ENCODING 182
SWIDTH 629 0
DWIDTH 14 0
BBX 11 18 1 -2
BITMAP
3FE0
7FE0
FE20
FE20
FE20
FE20
7E20
0620
0620
0620
0620
0620
0620
0620
0620
0620
0620
0620
ENDCHAR
STARTCHAR periodcentered
ENCODING 183
SWIDTH 262 0
DWIDTH 6 0
BBX 3 3 1 6
BITMAP
60
E0
60
ENDCHAR
STARTCHAR cedilla
ENCODING 184
SWIDTH 219 0
DWIDTH 5 0
BBX 3 3 1 -4
BITMAP
E0
40
40
ENDCHAR
STARTCHAR onesuperior
ENCODING 185
SWIDTH 222 0
DWIDTH 5 0
BBX 3 8 1 8
BITMAP
C0
60
60
60
60
60
60
60
ENDCHAR
STARTCHAR ordmasculine
ENCODING 186
SWIDTH 592 0
DWIDTH 13 0
BBX 11 9 1 7
BITMAP
3F80
7FC0
60E0
C060
C060
C060
60C0
7FC0
3F80
ENDCHAR
STARTCHAR guillemotright
ENCODING 187
SWIDTH 629 0
DWIDTH 14 0
BBX 12 8 1 4
BITMAP
8200
6380
38C0
0C30
0C60
30C0
C300
8200
ENDCHAR
STARTCHAR onequarter
ENCODING 188
SWIDTH 972 0
DWIDTH 21 0
BBX 19 18 1 -1
BITMAP
000300
300600
180C00
080C00
081800
083000
086000
084000
08C000
019040
031040
061040
061040
0C1840
180FE0
300040
600040
E00000
ENDCHAR
STARTCHAR onehalf
ENCODING 189
SWIDTH 948 0
DWIDTH 21 0
BBX 19 18 1 -1
BITMAP
000300
300600
180C00
080C00
081800
083000
086000
084000
08C000
019FC0
031FE0
060060
060060
0C1FC0
181000
301000
601FE0
E00000
ENDCHAR
STARTCHAR threequarters
ENCODING 190
SWIDTH 1029 0
DWIDTH 23 0
BBX 21 18 1 -1
BITMAP
0001C0
FE0300
030300
030600
3E0C00
031800
011000
FF3000
FE6000
00CC30
018C30
018C30
030C30
060C30
0C07F8
180030
180030
700000
ENDCHAR
ENDFONT
