STARTFONT 2.1
FONT -FontForge-Good Times Rg-Book-R-Normal--40-380-75-75-P-279-ISO10646-1
SIZE 38 75 75
FONTBOUNDINGBOX 50 44 0 -8
COMMENT "Generated by fontforge, http://fontforge.sourceforge.net"
COMMENT "(c) 1998-2012 Typodermic Fonts Inc. See attached license agreement. If agreement is missing visit typodermicfonts.com for more info. Languages by Chikako Larabie"
STARTPROPERTIES 38
FOUNDRY "FontForge"
FAMILY_NAME "Good Times Rg"
WEIGHT_NAME "Book"
SLANT "R"
SETWIDTH_NAME "Normal"
ADD_STYLE_NAME ""
PIXEL_SIZE 40
POINT_SIZE 380
RESOLUTION_X 75
RESOLUTION_Y 75
SPACING "P"
AVERAGE_WIDTH 279
CHARSET_REGISTRY "ISO10646"
CHARSET_ENCODING "1"
FONTNAME_REGISTRY ""
CHARSET_COLLECTIONS "ISO10646-1"
FONT_NAME "GoodTimesRg-Regular"
FACE_NAME "GoodTimesRg-Regular"
COPYRIGHT "(c) 1998-2012 Typodermic Fonts Inc. See attached license agreement. If agreement is missing visit typodermicfonts.com for more info. Languages by Chikako Larabie"
FONT_VERSION "4.001"
FONT_ASCENT 32
FONT_DESCENT 8
UNDERLINE_POSITION -6
UNDERLINE_THICKNESS 1
X_HEIGHT 28
CAP_HEIGHT 28
RAW_ASCENT 799
RAW_DESCENT 201
RELATIVE_WEIGHT 40
RELATIVE_SETWIDTH 50
SUPERSCRIPT_X 0
SUPERSCRIPT_Y 12
SUPERSCRIPT_SIZE 12
SUBSCRIPT_X 0
SUBSCRIPT_Y 0
SUBSCRIPT_SIZE 12
AVG_LOWERCASE_WIDTH 340
AVG_UPPERCASE_WIDTH 347
ENDPROPERTIES
CHARS 120
STARTCHAR exclam
ENCODING 33
SWIDTH 298 0
DWIDTH 12 0
BBX 6 29 3 0
BITMAP
78
78
78
78
78
78
78
78
78
78
78
78
78
78
78
78
78
78
78
78
00
00
00
00
78
FC
FC
7C
78
ENDCHAR
STARTCHAR quotedbl
ENCODING 34
SWIDTH 452 0
DWIDTH 18 0
BBX 12 10 3 19
BITMAP
F9F0
F9F0
F9F0
F8F0
F0F0
F0F0
F0F0
F0F0
70F0
70E0
ENDCHAR
STARTCHAR numbersign
ENCODING 35
SWIDTH 697 0
DWIDTH 28 0
BBX 24 29 2 0
BITMAP
00381E
00781E
00781C
00703C
00F03C
00F038
00F078
00E078
1FFFFF
1FFFFF
1FFFFF
03C0E0
03C0E0
0381E0
0781E0
0781C0
0703C0
0703C0
FFFFF8
FFFFF8
FFFFF8
1E0700
1E0F00
1C0F00
3C0F00
3C0E00
381E00
781E00
781C00
ENDCHAR
STARTCHAR dollar
ENCODING 36
SWIDTH 744 0
DWIDTH 30 0
BBX 25 29 2 0
BITMAP
000C0000
000C0000
000C0000
0FFFFF00
1FFFFF00
3FFFFF00
7FFFFF00
7C0C0000
F80C0000
F80C0000
F80C0000
780C0000
7C0C0000
3FFFFC00
1FFFFE00
0FFFFF00
000C0F80
000C0780
000C0780
000C0780
000C0780
000C0F80
7FFFFF80
7FFFFF00
7FFFFE00
7FFFF800
000C0000
000C0000
000C0000
ENDCHAR
STARTCHAR percent
ENCODING 37
SWIDTH 965 0
DWIDTH 39 0
BBX 35 34 2 -3
BITMAP
0000000F00
0780001E00
1FF0003C00
3FF8003800
703C007000
E01C00E000
E00C01E000
C00E03C000
C00E038000
C00E070000
C00E0E0000
E01C1E0000
701C3C0000
7CF8380000
3FF0700000
0FC0F00000
0001E00000
0001C0FE00
000383FF00
000707C780
000F0701C0
001E0E00E0
001C0E00E0
00380C00E0
00780C00E0
00F00E00E0
01E00E00E0
01C00701C0
0380078380
078003FF80
0F0001FE00
0E00003000
1C00000000
3C00000000
ENDCHAR
STARTCHAR ampersand
ENCODING 38
SWIDTH 759 0
DWIDTH 30 0
BBX 27 29 2 0
BITMAP
03FE0000
0FFE0000
3FFE0000
3FFE0000
7FFE0000
7E000000
7C000000
7C000000
7C000000
7C000000
7C000000
3E000000
1FFFFF80
0FFFFF80
1FFFFF80
3FFFFF80
7E007C00
FC007C00
F8007C00
F8007C00
F8007C00
F8007C00
FC007C00
7F007C00
7FFFFFE0
3FFFFFE0
3FFFFFE0
0FFFFFE0
03FFFFE0
ENDCHAR
STARTCHAR quotesingle
ENCODING 39
SWIDTH 255 0
DWIDTH 10 0
BBX 5 10 3 19
BITMAP
F8
F8
F0
F0
F0
F0
F0
F0
F0
F0
ENDCHAR
STARTCHAR parenleft
ENCODING 40
SWIDTH 356 0
DWIDTH 14 0
BBX 8 37 4 -4
BITMAP
0F
1E
1E
1C
3C
3C
38
78
78
70
70
F0
F0
E0
E0
E0
E0
E0
E0
E0
E0
E0
E0
E0
F0
F0
70
70
70
78
38
38
3C
1C
1E
1E
0F
ENDCHAR
STARTCHAR parenright
ENCODING 41
SWIDTH 355 0
DWIDTH 14 0
BBX 7 37 3 -4
BITMAP
E0
F0
70
78
78
38
3C
3C
1C
1C
1E
1E
0E
0E
0E
0E
0E
0E
0E
0E
0E
0E
0E
0E
0E
1E
1E
1C
1C
3C
3C
38
78
78
70
F0
E0
ENDCHAR
STARTCHAR asterisk
ENCODING 42
SWIDTH 469 0
DWIDTH 19 0
BBX 13 13 3 16
BITMAP
0700
0700
0700
0700
E738
FFF8
3FE0
0F00
0F80
1DC0
38E0
70E0
1040
ENDCHAR
STARTCHAR plus
ENCODING 43
SWIDTH 690 0
DWIDTH 28 0
BBX 22 23 3 3
BITMAP
007800
007800
007800
007800
007800
007800
007800
007800
007800
007800
FFFFFC
FFFFFC
FFFFFC
007800
007800
007800
007800
007800
007800
007800
007800
007800
007800
ENDCHAR
STARTCHAR comma
ENCODING 44
SWIDTH 259 0
DWIDTH 10 0
BBX 5 10 3 -5
BITMAP
F8
F8
F0
F0
F0
F0
F0
E0
E0
E0
ENDCHAR
STARTCHAR hyphen
ENCODING 45
SWIDTH 296 0
DWIDTH 12 0
BBX 10 3 1 13
BITMAP
FFC0
FFC0
FFC0
ENDCHAR
STARTCHAR period
ENCODING 46
SWIDTH 262 0
DWIDTH 10 0
BBX 5 5 3 0
BITMAP
F0
F8
F8
F8
70
ENDCHAR
STARTCHAR slash
ENCODING 47
SWIDTH 444 0
DWIDTH 18 0
BBX 17 29 0 0
BITMAP
000380
000780
000700
000F00
000E00
001E00
001C00
003C00
003800
003800
007000
007000
00F000
00E000
01E000
01C000
03C000
038000
078000
070000
0F0000
0E0000
1E0000
1C0000
3C0000
3C0000
380000
780000
F00000
ENDCHAR
STARTCHAR zero
ENCODING 48
SWIDTH 838 0
DWIDTH 34 0
BBX 30 29 2 0
BITMAP
001FE000
00FFFC00
03FFFF00
07FFFF80
1FFFFFC0
1FE03FE0
3F800FF0
7F0003F0
7E0001F8
FC0001F8
FC0000F8
F80000FC
F800007C
F800007C
F800007C
F800007C
F800007C
F80000F8
FC0000F8
7C0001F8
7E0001F0
3F0003F0
3F800FE0
1FE03FE0
0FFFFFC0
07FFFF80
03FFFE00
00FFF800
001FE000
ENDCHAR
STARTCHAR one
ENCODING 49
SWIDTH 385 0
DWIDTH 15 0
BBX 12 29 1 0
BITMAP
FC00
FF00
FFC0
FFC0
FFE0
07E0
03F0
01F0
01F0
01F0
01F0
01F0
01F0
01F0
01F0
01F0
01F0
01F0
01F0
01F0
01F0
01F0
01F0
01F0
01F0
01F0
01F0
01F0
01F0
ENDCHAR
STARTCHAR two
ENCODING 50
SWIDTH 825 0
DWIDTH 33 0
BBX 28 29 3 0
BITMAP
FFFFFC00
FFFFFF80
FFFFFFC0
FFFFFFE0
FFFFFFE0
000007F0
000003F0
000001F0
000001F0
000001F0
000003F0
000007E0
07FFFFE0
1FFFFFC0
7FFFFF80
7FFFFE00
FC000000
F8000000
F0000000
F0000000
F0000000
F0000000
F0000000
F0000000
FFFFFFE0
FFFFFFE0
FFFFFFE0
FFFFFFE0
FFFFFFE0
ENDCHAR
STARTCHAR three
ENCODING 51
SWIDTH 827 0
DWIDTH 33 0
BBX 29 29 2 0
BITMAP
FFFFFE00
FFFFFF80
FFFFFFE0
FFFFFFF0
FFFFFFF0
000007F0
000001F8
000001F8
000001F8
000001F0
000001F0
000003E0
01FFFFC0
01FFFF80
01FFFFE0
01FFFFF0
000003F0
000001F8
000000F8
000000F8
000000F8
000000F8
000001F8
000007F8
FFFFFFF0
FFFFFFF0
FFFFFFE0
FFFFFF80
FFFFFE00
ENDCHAR
STARTCHAR four
ENCODING 52
SWIDTH 845 0
DWIDTH 34 0
BBX 31 29 2 0
BITMAP
F80003E0
F80003E0
F80003E0
F80003E0
F80003E0
F80003E0
F80003E0
F80003E0
F80003E0
F80003E0
F80003E0
F80003E0
F80003E0
F80003E0
FC0003E0
FE0003E0
7FFFFFFE
7FFFFFFE
3FFFFFFE
1FFFFFFE
07FFFFFE
000003E0
000003E0
000003E0
000003E0
000003E0
000003E0
000003E0
000003E0
ENDCHAR
STARTCHAR five
ENCODING 53
SWIDTH 885 0
DWIDTH 35 0
BBX 30 29 3 0
BITMAP
FFFFFFF8
FFFFFFF8
FFFFFFF8
FFFFFFF8
FFFFFFF8
F8000000
F8000000
F8000000
F8000000
F8000000
F8000000
F8000000
FFFFFF80
FFFFFFE0
FFFFFFF0
FFFFFFF8
000000FC
0000007C
0000007C
0000007C
0000007C
0000007C
0000007C
000001FC
FFFFFFFC
FFFFFFF8
FFFFFFF0
FFFFFFE0
FFFFFF80
ENDCHAR
STARTCHAR six
ENCODING 54
SWIDTH 872 0
DWIDTH 35 0
BBX 31 29 2 0
BITMAP
007FFFFC
03FFFFFC
0FFFFFFC
1FFFFFFC
3FFFFFFC
3FC00000
7F000000
7E000000
FC000000
F8000000
F8000000
F8000000
FFFFFFC0
FFFFFFF0
FFFFFFF8
FFFFFFFC
F80000FC
F800007C
F800003E
FC00003E
7C00003E
7E00003E
7F00007E
3FC000FC
3FFFFFFC
1FFFFFF8
0FFFFFF8
03FFFFE0
007FFF80
ENDCHAR
STARTCHAR seven
ENCODING 55
SWIDTH 756 0
DWIDTH 30 0
BBX 27 29 2 0
BITMAP
FFFFFFC0
FFFFFFE0
FFFFFFE0
FFFFFFE0
FFFFFFE0
00000FC0
00001F80
00003F00
00007E00
0000FE00
0001FC00
0001F800
0003F000
0007E000
000FC000
001FC000
003F8000
003F0000
007E0000
00FC0000
01FC0000
03F80000
07F00000
07E00000
0FC00000
1F800000
3F800000
7F000000
FE000000
ENDCHAR
STARTCHAR eight
ENCODING 56
SWIDTH 898 0
DWIDTH 36 0
BBX 32 29 2 0
BITMAP
03FFFFC0
0FFFFFF0
3FFFFFF8
3FFFFFFC
7FFFFFFE
7F0000FE
7C00003E
7C00003E
7C00003E
7C00003E
7C00003E
3E00007C
1FFFFFF8
07FFFFE0
1FFFFFF8
3FFFFFFC
7E00007E
FC00003E
F800001F
F800001F
F800001F
F800003F
FC00003F
7F0000FE
7FFFFFFE
3FFFFFFC
3FFFFFF8
0FFFFFF0
03FFFFC0
ENDCHAR
STARTCHAR nine
ENCODING 57
SWIDTH 861 0
DWIDTH 34 0
BBX 31 29 2 0
BITMAP
07FFFC00
1FFFFF00
3FFFFFC0
7FFFFFE0
7FFFFFF0
FE000FF8
FC0001F8
F80000FC
F80000FC
F800007C
F800007C
F800007E
FE00003E
7FFFFFFE
7FFFFFFE
3FFFFFFE
0FFFFFFE
0000007E
0000007C
0000007C
000000FC
000000FC
000001F8
000007F8
1FFFFFF0
1FFFFFE0
1FFFFFC0
1FFFFF80
1FFFFC00
ENDCHAR
STARTCHAR colon
ENCODING 58
SWIDTH 262 0
DWIDTH 10 0
BBX 5 18 3 0
BITMAP
F0
F8
F8
F8
70
00
00
00
00
00
00
00
00
F0
F8
F8
F8
70
ENDCHAR
STARTCHAR semicolon
ENCODING 59
SWIDTH 262 0
DWIDTH 10 0
BBX 5 23 3 -5
BITMAP
70
F8
F8
F8
F0
00
00
00
00
00
00
00
00
F8
F8
F0
F0
F0
F0
F0
E0
E0
E0
ENDCHAR
STARTCHAR less
ENCODING 60
SWIDTH 690 0
DWIDTH 28 0
BBX 22 22 3 4
BITMAP
000004
00000C
00007C
0001FC
000FF8
003FE0
00FF00
07F800
1FE000
7F0000
FC0000
F80000
FE0000
3FC000
0FF000
01FE00
007F80
001FF0
0003FC
0000FC
00003C
000004
ENDCHAR
STARTCHAR equal
ENCODING 61
SWIDTH 690 0
DWIDTH 28 0
BBX 22 14 3 8
BITMAP
FFFFFC
FFFFFC
FFFFFC
000000
000000
000000
000000
000000
000000
000000
000000
FFFFFC
FFFFFC
FFFFFC
ENDCHAR
STARTCHAR greater
ENCODING 62
SWIDTH 690 0
DWIDTH 28 0
BBX 22 22 3 4
BITMAP
800000
C00000
F00000
FE0000
FF8000
1FF000
03FC00
00FF00
001FE0
0007F8
0000FC
00007C
0001FC
000FF0
007F80
01FE00
0FF800
3FC000
FF0000
F80000
E00000
800000
ENDCHAR
STARTCHAR question
ENCODING 63
SWIDTH 776 0
DWIDTH 31 0
BBX 28 29 2 0
BITMAP
FFFFFC00
FFFFFF80
FFFFFFC0
FFFFFFE0
FFFFFFE0
000007E0
000003F0
000001F0
000001F0
000001F0
000003E0
000007E0
03FFFFE0
0FFFFFC0
1FFFFF80
1FFFFC00
1F000000
3E000000
3E000000
00000000
00000000
00000000
00000000
00000000
1E000000
3F000000
3F000000
3E000000
1E000000
ENDCHAR
STARTCHAR at
ENCODING 64
SWIDTH 833 0
DWIDTH 33 0
BBX 29 29 2 0
BITMAP
003FFFF8
00FFFFF8
03FFFFF8
07FFFFF8
0FE00078
1F000078
3E000078
7C000078
781FFC78
783FFC78
F07FFC78
F0783C78
F0F03C78
F0F03C78
E0E03C78
F0E03C78
F0F03C78
F0783C78
F07FFFF8
F83FFFF8
781FFFF8
7C000000
3E000000
3F000000
1FE00000
0FFFFFF8
03FFFFF8
01FFFFF8
003FFFF8
ENDCHAR
STARTCHAR A
ENCODING 65
SWIDTH 989 0
DWIDTH 40 0
BBX 38 29 1 0
BITMAP
0000700000
0000F80000
0000FC0000
0001FC0000
0001FE0000
0003FF0000
0007FF0000
0007DF8000
000FDF8000
001F8FC000
001F87E000
003F07E000
003E03F000
007E03F000
00FC01F800
00FC00FC00
01F800FC00
01F0007E00
03F0FFFF00
07E1FFFF00
07E1FFFF80
0FC3FFFF80
0F80000FC0
1F80000FE0
3F000007E0
3E000003F0
7E000003F0
FC000001F8
FC000000FC
ENDCHAR
STARTCHAR B
ENCODING 66
SWIDTH 891 0
DWIDTH 36 0
BBX 32 29 2 0
BITMAP
FFFFFFC0
FFFFFFF0
FFFFFFF8
FFFFFFFC
FFFFFFFE
FC0000FE
FC00007E
FC00003E
FC00003E
FC00003E
FC00003E
FC0000FC
FC7FFFF8
FC7FFFE0
FC7FFFF8
FC7FFFFC
FC00007E
FC00003E
FC00003F
FC00001F
FC00001F
FC00003F
FC00007E
FC0000FE
FFFFFFFE
FFFFFFFC
FFFFFFF8
FFFFFFF0
FFFFFFC0
ENDCHAR
STARTCHAR C
ENCODING 67
SWIDTH 829 0
DWIDTH 33 0
BBX 30 29 2 0
BITMAP
003FFFFC
01FFFFFC
07FFFFFC
0FFFFFFC
1FFFFFFC
3FE00000
3F800000
7F000000
7E000000
FC000000
FC000000
F8000000
F8000000
F8000000
F8000000
F8000000
F8000000
F8000000
FC000000
7C000000
7E000000
7F000000
3F800000
1FE00000
1FFFFFFC
0FFFFFFC
03FFFFFC
01FFFFFC
003FFFFC
ENDCHAR
STARTCHAR D
ENCODING 68
SWIDTH 879 0
DWIDTH 35 0
BBX 31 29 3 0
BITMAP
FFFFF000
FFFFFE00
FFFFFF80
FFFFFFC0
FFFFFFE0
F8001FF0
F80007F0
F80001F8
F80000F8
F80000FC
F800007C
F800007C
F800007C
F800007C
F800007E
F800007C
F800007C
F800007C
F800007C
F80000FC
F80001F8
F80001F8
F80007F0
F8001FF0
FFFFFFE0
FFFFFFC0
FFFFFF00
FFFFFE00
FFFFF000
ENDCHAR
STARTCHAR E
ENCODING 69
SWIDTH 759 0
DWIDTH 30 0
BBX 26 29 3 0
BITMAP
FFFFFF80
FFFFFF80
FFFFFF80
FFFFFF80
FFFFFF80
F8000000
F8000000
F8000000
F8000000
F8000000
F8000000
F8000000
F8FFFF00
F8FFFF00
F8FFFF00
F8FFFF00
F8000000
F8000000
F8000000
F8000000
F8000000
F8000000
F8000000
F8000000
FFFFFFC0
FFFFFFC0
FFFFFFC0
FFFFFFC0
FFFFFFC0
ENDCHAR
STARTCHAR F
ENCODING 70
SWIDTH 705 0
DWIDTH 28 0
BBX 24 29 3 0
BITMAP
FFFFFF
FFFFFF
FFFFFF
FFFFFF
FFFFFF
F80000
F80000
F80000
F80000
F80000
F80000
F80000
F80000
F8FFFE
F8FFFE
F8FFFE
F8FFFE
F80000
F80000
F80000
F80000
F80000
F80000
F80000
F80000
F80000
F80000
F80000
F80000
ENDCHAR
STARTCHAR G
ENCODING 71
SWIDTH 888 0
DWIDTH 36 0
BBX 31 29 2 0
BITMAP
003FFFFC
01FFFFFC
07FFFFFC
0FFFFFFC
1FFFFFFC
3FE00000
3F800000
7F000000
7E000000
FC000000
FC000000
F8000000
F807FFFE
F807FFFE
F807FFFE
F807FFFE
F800003E
F800003E
FC00003E
7C00003E
7E00003E
7F00003E
3F80003E
1FE0003E
1FFFFFFE
0FFFFFFE
03FFFFFE
01FFFFFE
003FFFFE
ENDCHAR
STARTCHAR H
ENCODING 72
SWIDTH 838 0
DWIDTH 34 0
BBX 28 29 3 0
BITMAP
F80001F0
F80001F0
F80001F0
F80001F0
F80001F0
F80001F0
F80001F0
F80001F0
F80001F0
F80001F0
F80001F0
F80001F0
F8FFFFF0
F8FFFFF0
F8FFFFF0
F8FFFFF0
F8FFFFF0
F80001F0
F80001F0
F80001F0
F80001F0
F80001F0
F80001F0
F80001F0
F80001F0
F80001F0
F80001F0
F80001F0
F80001F0
ENDCHAR
STARTCHAR I
ENCODING 73
SWIDTH 267 0
DWIDTH 11 0
BBX 5 29 3 0
BITMAP
F8
F8
F8
F8
F8
F8
F8
F8
F8
F8
F8
F8
F8
F8
F8
F8
F8
F8
F8
F8
F8
F8
F8
F8
F8
F8
F8
F8
F8
ENDCHAR
STARTCHAR J
ENCODING 74
SWIDTH 708 0
DWIDTH 28 0
BBX 25 29 1 0
BITMAP
00000F80
00000F80
00000F80
00000F80
00000F80
00000F80
00000F80
00000F80
00000F80
00000F80
00000F80
00000F80
00000F80
00000F80
00000F80
00000F80
00000F80
00000F80
00000F80
00000F80
00001F80
00003F00
00007F00
0003FF00
FFFFFE00
FFFFFC00
FFFFF800
FFFFE000
FFFF0000
ENDCHAR
STARTCHAR K
ENCODING 75
SWIDTH 875 0
DWIDTH 35 0
BBX 31 29 3 0
BITMAP
F80003FE
F80007F8
F8000FE0
F8003FC0
F8007F80
F800FE00
F803FC00
F807F800
F80FE000
F83FC000
F87F8000
F8FE0000
F9FC0000
FBF80000
FBF00000
FBF80000
F8FC0000
F87F0000
F83F8000
F81FC000
F807F000
F803F800
F801FE00
F800FF00
F8003F80
F8001FE0
F8000FF0
F80003F8
F80001FE
ENDCHAR
STARTCHAR L
ENCODING 76
SWIDTH 707 0
DWIDTH 28 0
BBX 24 29 3 0
BITMAP
F80000
F80000
F80000
F80000
F80000
F80000
F80000
F80000
F80000
F80000
F80000
F80000
F80000
F80000
F80000
F80000
F80000
F80000
F80000
F80000
F80000
F80000
F80000
F80000
FFFFFF
FFFFFF
FFFFFF
FFFFFF
FFFFFF
ENDCHAR
STARTCHAR M
ENCODING 77
SWIDTH 1115 0
DWIDTH 45 0
BBX 43 29 1 0
BITMAP
00F00001C000
00F00001E000
01F80003E000
01F80003F000
01FC0007F000
03FC0007F000
03FE000FF800
03FE000FF800
03FF001FF800
07DF001FF800
07DF001E7C00
07CF803E7C00
07CF803E7C00
0F87C07C7C00
0F87C07C3E00
0F87E0F83E00
1F03E0F83E00
1F03F1F01F00
1F01F1F01F00
1F01F1E01F00
3E00FBE01F00
3E00FBC00F80
3E007FC00F80
7C007FC00F80
7C003F800FC0
7C003F8007C0
7C003F0007C0
F8001F0007C0
F8000E0003E0
ENDCHAR
STARTCHAR N
ENCODING 78
SWIDTH 873 0
DWIDTH 35 0
BBX 31 29 2 0
BITMAP
7800003E
7C00003E
FE00003E
FF00003E
FF80003E
FFC0003E
FFE0003E
FFF0003E
FBF8003E
F9FC003E
F8FE003E
F87F003E
F83F803E
F81FC03E
F80FE03E
F807F03E
F803F83E
F801FC3E
F800FE3E
F8007F3E
F8003FBE
F8001FFE
F8000FFE
F80007FE
F80003FE
F80001FE
F80000FE
F800007C
F800003C
ENDCHAR
STARTCHAR O
ENCODING 79
SWIDTH 968 0
DWIDTH 39 0
BBX 35 29 2 0
BITMAP
003FFF8000
01FFFFF000
07FFFFF800
0FFFFFFE00
1FFFFFFF00
3FE000FF00
3F80003F80
7F00001FC0
7E00000FC0
FC000007C0
FC000007E0
F8000003E0
F8000003E0
F8000003E0
F8000003E0
F8000003E0
F8000003E0
F8000003E0
FC000007E0
7C000007C0
7E00000FC0
7F00001F80
3F80003F80
1FE000FF00
1FFFFFFE00
0FFFFFFC00
03FFFFF800
01FFFFE000
003FFF8000
ENDCHAR
STARTCHAR P
ENCODING 80
SWIDTH 867 0
DWIDTH 35 0
BBX 31 29 3 0
BITMAP
FFFFFF00
FFFFFFC0
FFFFFFE0
FFFFFFF0
FFFFFFF8
F80003FC
F80000FC
F800007C
F800007C
F800003E
F800003E
F800003E
F800007C
F800007C
F80000FC
F80003FC
F8FFFFF8
F8FFFFF0
F8FFFFE0
F8FFFFC0
F8FFFF00
F8000000
F8000000
F8000000
F8000000
F8000000
F8000000
F8000000
F8000000
ENDCHAR
STARTCHAR Q
ENCODING 81
SWIDTH 968 0
DWIDTH 39 0
BBX 37 29 2 0
BITMAP
003FFF8000
01FFFFF000
07FFFFF800
0FFFFFFE00
1FFFFFFF00
3FE000FF00
3F80003F80
7F00001FC0
7E00000FC0
FC000007C0
FC000007E0
F8000003E0
F8000003E0
F8000003E0
F8000003E0
F8000003E0
F8000003E0
F801FC03E0
FC007E07E0
7C003F87C0
7E001FCFC0
7F0007FF80
3F8003FF80
1FE001FF00
1FFFFFFE00
0FFFFFFF00
03FFFFFF80
01FFFFEFE0
003FFF87F8
ENDCHAR
STARTCHAR R
ENCODING 82
SWIDTH 921 0
DWIDTH 37 0
BBX 34 29 3 0
BITMAP
FFFFFF0000
FFFFFFC000
FFFFFFF000
FFFFFFF800
FFFFFFF800
F80001FC00
F800007C00
F800007E00
F800003E00
F800003E00
F800003E00
F800003E00
F800003E00
F800007E00
F800007C00
F80001FC00
F8FFFFF800
F8FFFFF800
F8FFFFF000
F8FFFFE000
F8FFFF8000
F8000FC000
F8000FE000
F80007F000
F80003F800
F80001FC00
F80000FE00
F800007F00
F800003FC0
ENDCHAR
STARTCHAR S
ENCODING 83
SWIDTH 880 0
DWIDTH 35 0
BBX 31 29 2 0
BITMAP
03FFFFFC
1FFFFFFC
3FFFFFFC
7FFFFFFC
7FFFFFFC
FE000000
FC000000
F8000000
F8000000
F8000000
FC000000
7E000000
7FFFFFC0
3FFFFFF0
1FFFFFF8
07FFFFFC
0000007E
0000003E
0000003E
0000001E
0000001E
0000003E
0000003E
000000FE
7FFFFFFE
7FFFFFFC
7FFFFFF8
7FFFFFF0
7FFFFFC0
ENDCHAR
STARTCHAR T
ENCODING 84
SWIDTH 720 0
DWIDTH 29 0
BBX 27 29 1 0
BITMAP
FFFFFFE0
FFFFFFE0
FFFFFFE0
FFFFFFE0
FFFFFFE0
001F0000
001F0000
001F0000
001F0000
001F0000
001F0000
001F0000
001F0000
001F0000
001F0000
001F0000
001F0000
001F0000
001F0000
001F0000
001F0000
001F0000
001F0000
001F0000
001F0000
001F0000
001F0000
001F0000
001F0000
ENDCHAR
STARTCHAR U
ENCODING 85
SWIDTH 889 0
DWIDTH 36 0
BBX 31 29 2 0
BITMAP
F800001E
F800001E
F800001E
F800001E
F800001E
F800001E
F800001E
F800001E
F800001E
F800001E
F800001E
F800001E
F800001E
F800001E
F800001E
F800001E
F800003E
F800003E
FC00003E
FC00003E
7C00003E
7E00007E
7F0000FC
3FE007FC
3FFFFFF8
1FFFFFF0
07FFFFE0
03FFFF80
003FFC00
ENDCHAR
STARTCHAR V
ENCODING 86
SWIDTH 989 0
DWIDTH 40 0
BBX 38 29 1 0
BITMAP
FC000000FC
FE000001F8
7E000001F0
3F000003F0
3F000007E0
1F800007E0
0FC0000FC0
0FC0000F80
07E0001F80
07E0003F00
03F0003F00
01F8007E00
01F8007C00
00FC00FC00
00FC01F800
007E01F000
003F03F000
003F03E000
001F87E000
001F8FC000
000FCF8000
0007FF8000
0007FF0000
0003FF0000
0001FE0000
0001FC0000
0000FC0000
0000F80000
0000700000
ENDCHAR
STARTCHAR W
ENCODING 87
SWIDTH 1268 0
DWIDTH 51 0
BBX 49 29 1 0
BITMAP
FC03F800001F80
FC01F800001F00
7E00FC00003F00
7F00FC00003E00
3F007E00007E00
1F807E0000FC00
1F803F0000FC00
0FC03F0001F800
0FC01F8001F000
07E01F8003F000
07E00FC003E000
03F00FC007E000
03F007E007C000
01F807E00FC000
00F803F00F8000
00FC07F01F8000
007C0FF81F0000
007E0FF83F0000
003F1FFC7E0000
003F1F7C7C0000
001FBF7EFC0000
001FBE3EF80000
000FFE3FF80000
000FFC1FF00000
0007F81FF00000
0003F80FE00000
0003F00FE00000
0001F007C00000
0000E003800000
ENDCHAR
STARTCHAR X
ENCODING 88
SWIDTH 1000 0
DWIDTH 40 0
BBX 38 29 1 0
BITMAP
7F800007F8
1FC00007E0
0FE0000FC0
07F0001F80
03F8003F00
01FC007E00
00FE00FC00
007F01F800
003F83F000
001FC7E000
000FEFC000
0007FF8000
0003FF0000
0001FE0000
0001FE0000
0003FF0000
0007FF8000
000FDFC000
001F8FE000
003F07F000
007E03F800
00FC01FC00
01F800FE00
03F0007F00
07E0003F80
0FC0001FC0
3F80000FE0
7F000007F0
FE000003FC
ENDCHAR
STARTCHAR Y
ENCODING 89
SWIDTH 926 0
DWIDTH 37 0
BBX 36 29 1 0
BITMAP
FE000007F0
7F00000FC0
3F00001F80
3F80003F80
1FC0007F00
0FE000FE00
07F000FC00
03F801F800
01F803F000
00FC07E000
00FE0FE000
007F1FC000
003F9F8000
001FFF0000
000FFE0000
0007FC0000
0003F80000
0003F80000
0001F00000
0001F00000
0001F00000
0001F00000
0001F00000
0001F00000
0001F00000
0001F00000
0001F00000
0001F00000
0001F00000
ENDCHAR
STARTCHAR Z
ENCODING 90
SWIDTH 802 0
DWIDTH 32 0
BBX 28 29 2 0
BITMAP
FFFFFFE0
FFFFFFF0
FFFFFFF0
FFFFFFF0
FFFFFFE0
00000FC0
00001F80
00007F00
0000FE00
0001FC00
0003F800
0007F000
000FE000
001FC000
003F8000
007F0000
00FE0000
01FC0000
03F80000
07F00000
0FE00000
1FC00000
3F800000
7F000000
FFFFFFF0
FFFFFFF0
FFFFFFF0
FFFFFFF0
7FFFFFF0
ENDCHAR
STARTCHAR bracketleft
ENCODING 91
SWIDTH 333 0
DWIDTH 13 0
BBX 7 36 4 -4
BITMAP
FE
FE
FE
E0
E0
E0
E0
E0
E0
E0
E0
E0
E0
E0
E0
E0
E0
E0
E0
E0
E0
E0
E0
E0
E0
E0
E0
E0
E0
E0
E0
E0
E0
FE
FE
FE
ENDCHAR
STARTCHAR backslash
ENCODING 92
SWIDTH 445 0
DWIDTH 18 0
BBX 17 29 0 0
BITMAP
F00000
700000
380000
380000
3C0000
1C0000
1E0000
0E0000
0F0000
070000
078000
038000
03C000
01C000
01E000
00E000
00F000
007000
007000
007800
003800
003C00
001C00
001E00
000E00
000F00
000700
000780
000380
ENDCHAR
STARTCHAR bracketright
ENCODING 93
SWIDTH 333 0
DWIDTH 13 0
BBX 6 36 3 -4
BITMAP
FC
FC
FC
1C
1C
1C
1C
1C
1C
1C
1C
1C
1C
1C
1C
1C
1C
1C
1C
1C
1C
1C
1C
1C
1C
1C
1C
1C
1C
1C
1C
1C
1C
FC
FC
FC
ENDCHAR
STARTCHAR asciicircum
ENCODING 94
SWIDTH 559 0
DWIDTH 22 0
BBX 17 18 3 11
BITMAP
018000
03C000
03E000
07E000
07E000
077000
0E7000
0E7800
1E3800
1C3C00
3C1C00
381C00
381E00
780E00
700F00
F00700
E00700
E00780
ENDCHAR
STARTCHAR underscore
ENCODING 95
SWIDTH 668 0
DWIDTH 27 0
BBX 27 2 0 -6
BITMAP
FFFFFFE0
FFFFFFE0
ENDCHAR
STARTCHAR grave
ENCODING 96
SWIDTH 362 0
DWIDTH 14 0
BBX 10 5 2 31
BITMAP
C000
FC00
FF80
3FC0
01C0
ENDCHAR
STARTCHAR a
ENCODING 97
SWIDTH 989 0
DWIDTH 40 0
BBX 38 29 1 0
BITMAP
0000780000
0000F80000
0001FC0000
0001FE0000
0003FE0000
0003FF0000
0007FF0000
000FDF8000
000FCFC000
001F8FC000
001F07E000
003F07E000
007E03F000
007E01F800
00FC01F800
00F800FC00
01F800FC00
03F0007E00
03F0FFFF00
07E1FFFF00
07C3FFFF80
0FC3FFFF80
1F80000FC0
1F800007E0
3F000007E0
3E000003F0
7E000003F0
FC000001F8
FC000000FC
ENDCHAR
STARTCHAR b
ENCODING 98
SWIDTH 891 0
DWIDTH 36 0
BBX 32 29 2 0
BITMAP
FFFFFFC0
FFFFFFF0
FFFFFFF8
FFFFFFFC
FFFFFFFE
FC0000FE
FC00007E
FC00003E
FC00003E
FC00003E
FC00003E
FC00007C
FC7FFFF8
FC7FFFF0
FC7FFFF8
FC7FFFFC
FC0001FE
FC00003E
FC00003F
FC00001F
FC00001F
FC00003F
FC00003E
FC0000FE
FFFFFFFE
FFFFFFFC
FFFFFFF8
FFFFFFF0
FFFFFFC0
ENDCHAR
STARTCHAR c
ENCODING 99
SWIDTH 829 0
DWIDTH 33 0
BBX 30 29 2 0
BITMAP
007FFFFC
01FFFFFC
07FFFFFC
0FFFFFFC
1FFFFFFC
3FE00000
3F800000
7E000000
7E000000
FC000000
F8000000
F8000000
F8000000
F8000000
F8000000
F8000000
F8000000
F8000000
FC000000
7C000000
7E000000
7F000000
3F800000
1FE00000
1FFFFFFC
0FFFFFFC
03FFFFFC
01FFFFFC
003FFFFC
ENDCHAR
STARTCHAR d
ENCODING 100
SWIDTH 879 0
DWIDTH 35 0
BBX 31 29 3 0
BITMAP
FFFFF800
FFFFFE00
FFFFFF80
FFFFFFC0
FFFFFFE0
F8001FF0
F80007F8
F80001F8
F80000F8
F80000FC
F800007C
F800007C
F800007C
F800007C
F800007E
F800007C
F800007C
F800007C
F800007C
F80000FC
F80001F8
F80001F8
F80007F0
F8001FF0
FFFFFFE0
FFFFFFC0
FFFFFF00
FFFFFE00
FFFFF000
ENDCHAR
STARTCHAR e
ENCODING 101
SWIDTH 759 0
DWIDTH 30 0
BBX 26 29 3 0
BITMAP
FFFFFF80
FFFFFF80
FFFFFF80
FFFFFF80
FFFFFF80
F8000000
F8000000
F8000000
F8000000
F8000000
F8000000
F8000000
F8FFFF00
F8FFFF00
F8FFFF00
F8FFFF00
F8000000
F8000000
F8000000
F8000000
F8000000
F8000000
F8000000
F8000000
FFFFFFC0
FFFFFFC0
FFFFFFC0
FFFFFFC0
FFFFFFC0
ENDCHAR
STARTCHAR f
ENCODING 102
SWIDTH 705 0
DWIDTH 28 0
BBX 24 29 3 0
BITMAP
FFFFFF
FFFFFF
FFFFFF
FFFFFF
FFFFFF
F80000
F80000
F80000
F80000
F80000
F80000
F80000
F80000
F8FFFE
F8FFFE
F8FFFE
F8FFFE
F80000
F80000
F80000
F80000
F80000
F80000
F80000
F80000
F80000
F80000
F80000
F80000
ENDCHAR
STARTCHAR g
ENCODING 103
SWIDTH 888 0
DWIDTH 36 0
BBX 31 29 2 0
BITMAP
007FFFFC
01FFFFFC
07FFFFFC
0FFFFFFC
1FFFFFFC
3FE00000
3F800000
7E000000
7E000000
FC000000
F8000000
F8000000
F807FFFE
F807FFFE
F807FFFE
F807FFFE
F800003E
F800003E
FC00003E
7C00003E
7E00003E
7F00003E
3F80003E
1FE0003E
1FFFFFFE
0FFFFFFE
03FFFFFE
01FFFFFE
003FFFFE
ENDCHAR
STARTCHAR h
ENCODING 104
SWIDTH 838 0
DWIDTH 34 0
BBX 28 29 3 0
BITMAP
F80001F0
F80001F0
F80001F0
F80001F0
F80001F0
F80001F0
F80001F0
F80001F0
F80001F0
F80001F0
F80001F0
F80001F0
F8FFFFF0
F8FFFFF0
F8FFFFF0
F8FFFFF0
F80001F0
F80001F0
F80001F0
F80001F0
F80001F0
F80001F0
F80001F0
F80001F0
F80001F0
F80001F0
F80001F0
F80001F0
F80001F0
ENDCHAR
STARTCHAR i
ENCODING 105
SWIDTH 267 0
DWIDTH 11 0
BBX 5 29 3 0
BITMAP
F8
F8
F8
F8
F8
F8
F8
F8
F8
F8
F8
F8
F8
F8
F8
F8
F8
F8
F8
F8
F8
F8
F8
F8
F8
F8
F8
F8
F8
ENDCHAR
STARTCHAR j
ENCODING 106
SWIDTH 708 0
DWIDTH 28 0
BBX 25 29 1 0
BITMAP
00000F80
00000F80
00000F80
00000F80
00000F80
00000F80
00000F80
00000F80
00000F80
00000F80
00000F80
00000F80
00000F80
00000F80
00000F80
00000F80
00000F80
00000F80
00000F80
00000F80
00001F80
00003F00
00007F00
0003FF00
FFFFFE00
FFFFFC00
FFFFF800
FFFFE000
FFFF0000
ENDCHAR
STARTCHAR k
ENCODING 107
SWIDTH 875 0
DWIDTH 35 0
BBX 31 29 3 0
BITMAP
F80003FE
F80007F8
F8001FE0
F8003FC0
F8007F80
F800FE00
F803FC00
F807F000
F80FE000
F83FC000
F87F0000
F8FE0000
F9FC0000
FBF00000
FBF00000
FBF80000
F8FE0000
F87F0000
F83F8000
F81FE000
F807F000
F803F800
F801FE00
F800FF00
F8003F80
F8001FE0
F8000FF0
F80003F8
F80001FE
ENDCHAR
STARTCHAR l
ENCODING 108
SWIDTH 707 0
DWIDTH 28 0
BBX 24 29 3 0
BITMAP
F80000
F80000
F80000
F80000
F80000
F80000
F80000
F80000
F80000
F80000
F80000
F80000
F80000
F80000
F80000
F80000
F80000
F80000
F80000
F80000
F80000
F80000
F80000
F80000
FFFFFF
FFFFFF
FFFFFF
FFFFFF
FFFFFF
ENDCHAR
STARTCHAR m
ENCODING 109
SWIDTH 1115 0
DWIDTH 45 0
BBX 43 29 1 0
BITMAP
00F00001E000
01F80003E000
01F80003F000
01F80007F000
01FC0007F000
03FC0007F000
03FE000FF800
03FE000FF800
03FF001FF800
07DF001FF800
07DF803E7C00
07CF803E7C00
0F8F803C7C00
0F87C07C7E00
0F87C07C3E00
0F83E0F83E00
1F03E0F83E00
1F03F1F01F00
1F01F1F01F00
1F01F3E01F00
3E00FBE01F00
3E00FBE00F80
3E007FC00F80
7C007FC00F80
7C007F800FC0
7C003F8007C0
7C003F0007C0
F8001F0007C0
F8001E0003E0
ENDCHAR
STARTCHAR n
ENCODING 110
SWIDTH 873 0
DWIDTH 35 0
BBX 31 29 2 0
BITMAP
7800003E
7C00003E
FE00003E
FF00003E
FF80003E
FFC0003E
FFE0003E
FFF0003E
FBF8003E
F9FC003E
F8FE003E
F87F003E
F83F803E
F81FC03E
F80FE03E
F807F03E
F803F83E
F801FC3E
F800FE3E
F8007F3E
F8003FBE
F8001FFE
F8000FFE
F80007FE
F80003FE
F80001FE
F80000FE
F800007C
F800003C
ENDCHAR
STARTCHAR o
ENCODING 111
SWIDTH 968 0
DWIDTH 39 0
BBX 35 29 2 0
BITMAP
007FFF8000
01FFFFF000
07FFFFFC00
0FFFFFFE00
1FFFFFFF00
3FE000FF80
3F80003F80
7E00001FC0
7E00000FC0
FC000007C0
F8000007E0
F8000003E0
F8000003E0
F8000003E0
F8000003E0
F8000003E0
F8000003E0
F8000003E0
FC000007E0
7C000007C0
7E00000FC0
7F00001F80
3F80003F80
1FE000FF00
1FFFFFFE00
0FFFFFFC00
03FFFFF800
01FFFFE000
003FFF8000
ENDCHAR
STARTCHAR p
ENCODING 112
SWIDTH 867 0
DWIDTH 35 0
BBX 31 29 3 0
BITMAP
FFFFFF00
FFFFFFC0
FFFFFFF0
FFFFFFF0
FFFFFFF8
F80001FC
F80000FC
F800007C
F800007C
F800003E
F800003E
F800003E
F800007C
F800007C
F80000FC
F80001FC
F8FFFFF8
F8FFFFF0
F8FFFFE0
F8FFFFC0
F8FFFE00
F8000000
F8000000
F8000000
F8000000
F8000000
F8000000
F8000000
F8000000
ENDCHAR
STARTCHAR q
ENCODING 113
SWIDTH 968 0
DWIDTH 39 0
BBX 37 29 2 0
BITMAP
007FFF8000
01FFFFF000
07FFFFFC00
0FFFFFFE00
1FFFFFFF00
3FE000FF80
3F80003F80
7E00001FC0
7E00000FC0
FC000007C0
F8000007E0
F8000003E0
F8000003E0
F8000003E0
F8000003E0
F8000003E0
F8000003E0
F801FC03E0
FC007F07E0
7C003F87C0
7E001FCFC0
7F0007FF80
3F8003FF80
1FE001FF00
1FFFFFFE00
0FFFFFFF00
03FFFFFF80
01FFFFEFE0
003FFF87F8
ENDCHAR
STARTCHAR r
ENCODING 114
SWIDTH 921 0
DWIDTH 37 0
BBX 34 29 3 0
BITMAP
FFFFFF0000
FFFFFFE000
FFFFFFF000
FFFFFFF800
FFFFFFF800
F80001FC00
F800007C00
F800007E00
F800003E00
F800003E00
F800003E00
F800003E00
F800003E00
F800007E00
F800007C00
F80000FC00
F8FFFFF800
F8FFFFF800
F8FFFFF000
F8FFFFC000
F8FFFF8000
F8000FC000
F80007E000
F80007F000
F80003F800
F80001FC00
F80000FE00
F800007F00
F800003FC0
ENDCHAR
STARTCHAR s
ENCODING 115
SWIDTH 880 0
DWIDTH 35 0
BBX 31 29 2 0
BITMAP
07FFFFFC
1FFFFFFC
3FFFFFFC
7FFFFFFC
7FFFFFFC
FE000000
FC000000
F8000000
F8000000
F8000000
FC000000
7E000000
7FFFFFC0
3FFFFFF0
1FFFFFF8
07FFFFFC
000001FE
0000003E
0000003E
0000001E
0000001E
0000003E
0000003E
000000FE
7FFFFFFE
7FFFFFFC
7FFFFFF8
7FFFFFF0
7FFFFFC0
ENDCHAR
STARTCHAR t
ENCODING 116
SWIDTH 720 0
DWIDTH 29 0
BBX 27 29 1 0
BITMAP
FFFFFFE0
FFFFFFE0
FFFFFFE0
FFFFFFE0
FFFFFFE0
001F0000
001F0000
001F0000
001F0000
001F0000
001F0000
001F0000
001F0000
001F0000
001F0000
001F0000
001F0000
001F0000
001F0000
001F0000
001F0000
001F0000
001F0000
001F0000
001F0000
001F0000
001F0000
001F0000
001F0000
ENDCHAR
STARTCHAR u
ENCODING 117
SWIDTH 889 0
DWIDTH 36 0
BBX 31 29 2 0
BITMAP
F800001E
F800001E
F800001E
F800001E
F800001E
F800001E
F800001E
F800001E
F800001E
F800001E
F800001E
F800001E
F800001E
F800001E
F800001E
F800001E
F800003E
F800003E
F800003E
FC00003E
7C00003E
7E00007E
7F0000FC
3F8003FC
3FFFFFF8
1FFFFFF8
0FFFFFE0
03FFFFC0
00FFFE00
ENDCHAR
STARTCHAR v
ENCODING 118
SWIDTH 989 0
DWIDTH 40 0
BBX 38 29 1 0
BITMAP
FC000000FC
FE000001F8
7E000001F0
3F000003F0
3F000007E0
1F800007E0
0FC0000FC0
0FC0000F80
07E0001F80
07E0003F00
03F0003F00
01F8007E00
01F8007C00
00FC00FC00
00FC00F800
007E01F800
003F03F000
003F03E000
001F87E000
001F87C000
000FCFC000
0007DF8000
0007FF0000
0003FF0000
0003FE0000
0001FE0000
0000FC0000
0000F80000
0000780000
ENDCHAR
STARTCHAR w
ENCODING 119
SWIDTH 1268 0
DWIDTH 51 0
BBX 49 29 1 0
BITMAP
FC03F800001F80
FC01F800001F00
7E00FC00003F00
7F00FC00003E00
3F007E00007E00
1F807E0000FC00
1F803F0000FC00
0FC03F0001F800
0FC01F8001F800
07E01F8003F000
07E00FC003E000
03F00FC007E000
03F007E007C000
01F807E00FC000
01F803F00F8000
00FC07F01F8000
00FC07F81F0000
007E0FF83F0000
003E1FFC3E0000
003F1FFC7E0000
001F3F7E7C0000
001FBE3EF80000
000FFE3FF80000
000FFC1FF00000
0007FC1FF00000
0007F80FE00000
0003F80FE00000
0003F007C00000
0001E007C00000
ENDCHAR
STARTCHAR x
ENCODING 120
SWIDTH 1000 0
DWIDTH 40 0
BBX 38 29 1 0
BITMAP
7F800007F8
1FC0000FE0
0FE0001FC0
07F0003F80
03F8007F00
01FC00FE00
00FE01FC00
007F03F800
003F87F000
001FCFE000
000FFFC000
0007FF8000
0003FF0000
0001FE0000
0001FE0000
0003FF0000
0007FF8000
000FDFC000
001F8FE000
003F07F000
007E03F800
00FC01FC00
01F800FE00
03F0007F00
07E0003F80
1FC0001FC0
3F80000FE0
7F000007F0
FE000003FC
ENDCHAR
STARTCHAR y
ENCODING 121
SWIDTH 926 0
DWIDTH 37 0
BBX 36 29 1 0
BITMAP
FE000007F0
7F00000FC0
3F80001F80
1F80003F00
1FC0007F00
0FE000FE00
07F001FC00
03F801F800
01FC03F000
00FC07E000
007E0FC000
007F1FC000
003FBF8000
001FFF0000
000FFE0000
0007FC0000
0003F80000
0001F00000
0001F00000
0001F00000
0001F00000
0001F00000
0001F00000
0001F00000
0001F00000
0001F00000
0001F00000
0001F00000
0001F00000
ENDCHAR
STARTCHAR z
ENCODING 122
SWIDTH 802 0
DWIDTH 32 0
BBX 28 29 2 0
BITMAP
FFFFFFE0
FFFFFFF0
FFFFFFF0
FFFFFFF0
FFFFFFE0
00001FC0
00003F80
00007F00
0000FE00
0001FC00
0003F800
0007F000
000FE000
001FE000
003FC000
007F8000
00FF0000
01FE0000
03FC0000
07F80000
0FF00000
1FE00000
3FC00000
7F800000
FFFFFFF0
FFFFFFF0
FFFFFFF0
FFFFFFF0
7FFFFFF0
ENDCHAR
STARTCHAR braceleft
ENCODING 123
SWIDTH 337 0
DWIDTH 13 0
BBX 9 37 2 -4
BITMAP
0780
0F80
1F80
1E00
1C00
1C00
1C00
1C00
1C00
1C00
1C00
1C00
1C00
1C00
1C00
1C00
3C00
FC00
F000
F800
3C00
1C00
1C00
1C00
1C00
1C00
1C00
1C00
1C00
1C00
1C00
1C00
1C00
1C00
1F80
1F80
0780
ENDCHAR
STARTCHAR bar
ENCODING 124
SWIDTH 297 0
DWIDTH 12 0
BBX 3 37 4 -4
BITMAP
E0
E0
E0
E0
E0
E0
E0
E0
E0
E0
E0
E0
E0
E0
E0
E0
E0
E0
E0
E0
E0
E0
E0
E0
E0
E0
E0
E0
E0
E0
E0
E0
E0
E0
E0
E0
E0
ENDCHAR
STARTCHAR braceright
ENCODING 125
SWIDTH 337 0
DWIDTH 13 0
BBX 9 37 2 -4
BITMAP
F000
FC00
FC00
1E00
1E00
0E00
0E00
0E00
0E00
0E00
0E00
0E00
0E00
0E00
0E00
0E00
0E00
0F80
0780
0F80
0E00
0E00
0E00
0E00
0E00
0E00
0E00
0E00
0E00
0E00
0E00
0E00
1E00
1E00
FC00
FC00
F800
ENDCHAR
STARTCHAR asciitilde
ENCODING 126
SWIDTH 691 0
DWIDTH 28 0
BBX 22 6 3 12
BITMAP
3F0004
FFE004
FFF81C
E0FFFC
801FF8
8007E0
ENDCHAR
STARTCHAR exclamdown
ENCODING 161
SWIDTH 298 0
DWIDTH 12 0
BBX 6 29 3 0
BITMAP
78
FC
FC
78
78
00
00
00
00
7C
7C
7C
7C
7C
7C
7C
7C
7C
7C
7C
7C
7C
7C
7C
7C
7C
7C
7C
7C
ENDCHAR
STARTCHAR cent
ENCODING 162
SWIDTH 692 0
DWIDTH 28 0
BBX 24 29 2 0
BITMAP
000300
000300
000300
01FFFF
07FFFF
0FFFFF
3FFFFF
3F0300
7E0300
780300
F80300
F00300
F00300
F00300
F00300
F00300
F00300
F00300
F80300
780300
7E0300
3F0300
1FFFFF
0FFFFF
07FFFF
01FFFF
000300
000300
000300
ENDCHAR
STARTCHAR sterling
ENCODING 163
SWIDTH 709 0
DWIDTH 28 0
BBX 26 29 1 0
BITMAP
007FF800
01FFF800
03FFF800
07FFF800
0FFFF800
0FE00000
0F800000
0F800000
0F800000
0F800000
0F800000
0F800000
3FFF8000
3FFF8000
3FFF8000
3FFF8000
0F800000
0F800000
0F800000
0F800000
0F800000
0F800000
0F800000
0F800000
FFFFFFC0
FFFFFFC0
FFFFFFC0
FFFFFFC0
FFFFFFC0
ENDCHAR
STARTCHAR yen
ENCODING 165
SWIDTH 787 0
DWIDTH 31 0
BBX 29 29 1 0
BITMAP
FC0001F8
7E0001F0
7E0003F0
3F0007E0
1F8007E0
1F800FC0
0FC00F80
07E01F80
07E03F00
03F03E00
01F07E00
01F8FC00
00FCF800
007DF800
007FF000
003FE000
0FFFFFC0
0FFFFFC0
0FFFFFC0
000F8000
000F8000
000F8000
000F8000
0FFFFFC0
0FFFFFC0
0FFFFFC0
000F8000
000F8000
000F8000
ENDCHAR
STARTCHAR brokenbar
ENCODING 166
SWIDTH 297 0
DWIDTH 12 0
BBX 3 36 4 -4
BITMAP
E0
E0
E0
E0
E0
E0
E0
E0
E0
E0
E0
E0
E0
E0
E0
E0
00
00
00
00
E0
E0
E0
E0
E0
E0
E0
E0
E0
E0
E0
E0
E0
E0
E0
E0
ENDCHAR
STARTCHAR section
ENCODING 167
SWIDTH 773 0
DWIDTH 31 0
BBX 27 37 2 -8
BITMAP
07FFFE00
1FFFFE00
3FFFFE00
7FFFFE00
7FFFFE00
FE000000
F8000000
F8000000
F8000000
F8000000
F8000000
7C000000
7FFFF800
3FFFFE00
1FFFFF00
1FFFFF80
3E001F80
3C000F80
7C000780
7C000780
7C000F80
3E001F00
3FFFFF00
3FFFFE00
1FFFFF00
07FFFF80
00000FC0
000007C0
000003E0
000003E0
000007E0
00000FC0
1FFFFFC0
1FFFFFC0
1FFFFF80
1FFFFF00
1FFFFC00
ENDCHAR
STARTCHAR dieresis
ENCODING 168
SWIDTH 393 0
DWIDTH 16 0
BBX 12 4 2 32
BITMAP
70E0
F0F0
F0F0
70E0
ENDCHAR
STARTCHAR copyright
ENCODING 169
SWIDTH 829 0
DWIDTH 33 0
BBX 29 29 2 0
BITMAP
001FE000
00F03800
03800600
06000300
0C000080
18000040
30000060
200FE030
603FE010
40700018
C0E00008
81C00008
81800008
81800008
81800008
81800008
81C00008
80C00008
C0700008
403FE018
600FE010
20000030
30000060
18000040
0C000080
06000300
03800600
00F03800
001FC000
ENDCHAR
STARTCHAR ordfeminine
ENCODING 170
SWIDTH 604 0
DWIDTH 24 0
BBX 21 16 2 12
BITMAP
006000
00F000
00F000
01F800
03FC00
039C00
071E00
070E00
0E0700
1E0780
1CFF80
39FFC0
3801C0
7000E0
F000F0
E00078
ENDCHAR
STARTCHAR guillemotleft
ENCODING 171
SWIDTH 629 0
DWIDTH 25 0
BBX 22 15 2 7
BITMAP
00200C
00E01C
03E078
0781E0
1E07C0
780F00
F03C00
E03800
781E00
1C0780
0F01C0
03C0F0
00E03C
00600C
002004
ENDCHAR
STARTCHAR registered
ENCODING 174
SWIDTH 585 0
DWIDTH 23 0
BBX 18 18 3 11
BITMAP
03F000
0E1C00
300600
600300
400180
C7F080
841880
8408C0
8418C0
84F0C0
8430C0
8418C0
C00480
400180
600300
300600
1C1C00
07F000
ENDCHAR
STARTCHAR macron
ENCODING 175
SWIDTH 362 0
DWIDTH 14 0
BBX 10 2 2 32
BITMAP
FFC0
FFC0
ENDCHAR
STARTCHAR degree
ENCODING 176
SWIDTH 361 0
DWIDTH 14 0
BBX 11 11 2 18
BITMAP
3F00
7F80
E1C0
C0E0
C0E0
C0E0
C0E0
C0E0
E1C0
7FC0
3F00
ENDCHAR
STARTCHAR plusminus
ENCODING 177
SWIDTH 690 0
DWIDTH 28 0
BBX 22 28 3 -2
BITMAP
007800
007800
007800
007800
007800
007800
007800
007800
007800
007800
FFFFFC
FFFFFC
FFFFFC
007800
007800
007800
007800
007800
007800
007800
007800
007800
007800
000000
000000
FFFFFC
FFFFFC
FFFFFC
ENDCHAR
STARTCHAR twosuperior
ENCODING 178
SWIDTH 442 0
DWIDTH 18 0
BBX 14 15 2 15
BITMAP
FFC0
FFF8
FFFC
001C
001C
001C
003C
7FF8
FFE0
C000
C000
C000
FFFC
FFFC
FFFC
ENDCHAR
STARTCHAR threesuperior
ENCODING 179
SWIDTH 443 0
DWIDTH 18 0
BBX 14 15 2 15
BITMAP
FFC0
FFF8
FFF8
001C
001C
001C
0078
1FF0
1FFC
001C
000C
001C
FFFC
FFF8
FFF0
ENDCHAR
STARTCHAR acute
ENCODING 180
SWIDTH 362 0
DWIDTH 14 0
BBX 10 5 2 31
BITMAP
00C0
07C0
3FC0
FF00
E000
ENDCHAR
STARTCHAR paragraph
ENCODING 182
SWIDTH 629 0
DWIDTH 25 0
BBX 21 33 2 -4
BITMAP
0FFFF8
3FFFF8
7FFFF8
FFF078
FFF078
FFF078
FFF078
FFF078
FFF078
FFF078
7FF078
3FF078
1FF078
007078
007078
007078
007078
007078
007078
007078
007078
007078
007078
007078
007078
007078
007078
007078
007078
007078
007078
007078
007078
ENDCHAR
STARTCHAR periodcentered
ENCODING 183
SWIDTH 262 0
DWIDTH 10 0
BBX 5 5 3 12
BITMAP
F0
F8
F8
F8
70
ENDCHAR
STARTCHAR cedilla
ENCODING 184
SWIDTH 219 0
DWIDTH 9 0
BBX 5 6 2 -8
BITMAP
F8
F0
70
70
20
20
ENDCHAR
STARTCHAR onesuperior
ENCODING 185
SWIDTH 222 0
DWIDTH 9 0
BBX 6 15 1 15
BITMAP
C0
F8
F8
1C
1C
0C
0C
0C
0C
0C
0C
0C
0C
0C
0C
ENDCHAR
STARTCHAR ordmasculine
ENCODING 186
SWIDTH 592 0
DWIDTH 24 0
BBX 20 16 2 12
BITMAP
07FE00
1FFF80
3FFFC0
7803C0
7000E0
E000E0
E00060
E00070
E00070
E00060
E000E0
7000E0
7803C0
3FFFC0
1FFF00
07FE00
ENDCHAR
STARTCHAR guillemotright
ENCODING 187
SWIDTH 629 0
DWIDTH 25 0
BBX 22 15 2 7
BITMAP
802000
E03800
F01E00
3C0F00
0F03C0
0780F0
01E038
00E03C
03C070
0F01E0
1E0780
781E00
E03C00
C03000
802000
ENDCHAR
STARTCHAR onequarter
ENCODING 188
SWIDTH 972 0
DWIDTH 39 0
BBX 35 34 2 -3
BITMAP
0000003800
1800007000
1F0000F000
1F0001E000
038001C000
0380038000
0380070000
03800F0000
03801E0000
03801C0000
0380380000
0380780000
0380F00000
0381E00000
0381C00000
0383800000
0007800000
000F0C0180
000E0C0180
001C0C0180
00380C0180
00780C0180
00F00C0180
00E00C0180
01C00E0180
03C00FFFE0
078007FFE0
070000FFE0
0E00000180
1C00000180
3C00000180
7800000000
7000000000
E000000000
ENDCHAR
STARTCHAR onehalf
ENCODING 189
SWIDTH 948 0
DWIDTH 38 0
BBX 34 34 2 -3
BITMAP
0000003800
1800007000
1F0000F000
1F0001E000
038001C000
0380038000
0380070000
03800F0000
03801E0000
03801C0000
0380380000
0380780000
0380F00000
0381E00000
0381C00000
0383800000
0007800000
000F0FFF00
000E0FFF80
001C0003C0
00380000C0
00780000C0
00F00001C0
00E003FF80
01C007FF00
03C00E0000
07800C0000
07000C0000
0E000C0000
1C000FFFC0
3C000FFFC0
7800000000
7000000000
E000000000
ENDCHAR
STARTCHAR threequarters
ENCODING 190
SWIDTH 1029 0
DWIDTH 41 0
BBX 37 34 2 -3
BITMAP
0000000F00
FF80001E00
FFF8003C00
FFFC003800
001C007000
001C00E000
001C01E000
003803C000
1FF8038000
1FFC070000
001C0F0000
000C1E0000
001C1C0000
FFFC380000
FFF8700000
FFF0F00000
0001E00000
0001C38060
0003838060
0007838060
000F038060
001E038060
001C038060
0038038060
0078038060
00F001FFF8
00E001FFF8
01C0001FF8
03C0000060
0780000060
0F00000060
0E00000000
1C00000000
3C00000000
ENDCHAR
ENDFONT
