STARTFONT 2.1
FONT -FontForge-Weather Icons-Regular-R-Normal--75-720-75-75-M-850-ISO10646-1
SIZE 72 75 75
FONTBOUNDINGBOX 85 81 0 -16
COMMENT "Generated by fontforge, http://fontforge.sourceforge.net"
COMMENT "Weather Icons licensed under SIL OFL 1.1 - Code licensed under MIT License - Documentation licensed under CC BY 3.0"
STARTPROPERTIES 35
FOUNDRY "FontForge"
FAMILY_NAME "Weather Icons"
WEIGHT_NAME "Regular"
SLANT "R"
SETWIDTH_NAME "Normal"
ADD_STYLE_NAME ""
PIXEL_SIZE 75
POINT_SIZE 720
RESOLUTION_X 75
RESOLUTION_Y 75
SPACING "M"
AVERAGE_WIDTH 850
CHARSET_REGISTRY "ISO10646"
CHARSET_ENCODING "1"
FONTNAME_REGISTRY ""
CHARSET_COLLECTIONS "Symbol ISO10646-1"
FONT_NAME "WeatherIconsAnimated-Regular"
FACE_NAME "Weather Icons Regular"
COPYRIGHT "Weather Icons licensed under SIL OFL 1.1 - Code licensed under MIT License - Documentation licensed under CC BY 3.0"
FONT_VERSION "1.100;PS 001.100;hotconv 1.0.70;makeotf.lib2.5.58329"
FONT_ASCENT 64
FONT_DESCENT 11
UNDERLINE_POSITION -4
UNDERLINE_THICKNESS 3
RAW_ASCENT 856
RAW_DESCENT 143
RELATIVE_WEIGHT 40
RELATIVE_SETWIDTH 50
SUPERSCRIPT_X 0
SUPERSCRIPT_Y 26
SUPERSCRIPT_SIZE 45
SUBSCRIPT_X 0
SUBSCRIPT_Y 5
SUBSCRIPT_SIZE 45
FIGURE_WIDTH -1
ENDPROPERTIES
CHARS 5
STARTCHAR uniF0F1
ENCODING 61681
SWIDTH 1132 0
DWIDTH 85 0
BBX 85 65 0 0
BITMAP
0000000000000001800000
000000000000003FFE0000
00000000000000FFFF8000
00000000000003FFFF8000
0000000000000FFFFF8000
0000000000001FFFFF0000
0000000000003FFFFF0000
0000000000007FFC3F0000
000000000000FFE03F0000
00000000FFF1FF803F0000
00000007FFFFFF003F0000
0000001FFFFFFE003F0000
0000007FFFFFFC003F8000
000001FFFFFFF8003F8000
000003FFFFFFF8003F8000
000007FFE0FFFC001FC000
00000FFE000FFE001FE000
00001FF80003FF000FF000
00001FF00000FF800FF800
00003FE000007FC007FC00
00007FC000003FC007FE00
00007F8000001FE003FFC0
0000FF0000000FE001FFF8
0000FE0000000FE000FFF8
0000FE00000007F0007FF8
0001FC00000007F0001FF0
0001FC00000003FE000FF0
0007FC00000003FFF007F0
003FFC00000003FFFE0FF0
007FF800000003FFFF1FE0
01FFF800000003FFFFDFE0
03FFF800000003FFFFFFC0
07FFF800000001FFFFFF80
0FFF0000000000007FFF80
0FF80000000000000FFF00
1FF000000000000007FE00
3FE000000000000003FE00
3FC000000000000001FE00
7F8000000000000000FF00
7F00000000000000007F00
7F00000000000000007F00
FE00000000000000003F00
FE00000000000000003F80
FE00000000000000003F80
FE00000000000000003F80
FE00000000000000003F80
FE00000000000000003F80
FE00000000000000003F80
FE00000000000000003F80
FE00000000000000003F80
7F00000000000000007F00
7F00000000000000007F00
7F8000000000000000FF00
3F8000000000000000FE00
3FC000000000000001FE00
1FE000000000000003FC00
1FF80000000000000FFC00
0FFE0000000000003FF800
07FFE00000000003FFF000
03FFE00000000003FFE000
01FFE00000000003FFC000
00FFE00000000003FF8000
003FE00000000003FE0000
000FE00000000003FC0000
0001E00000000003E00000
ENDCHAR
STARTCHAR uniF0F2
ENCODING 61682
SWIDTH 1132 0
DWIDTH 85 0
BBX 21 40 30 -16
BITMAP
00FFF8
00FFF8
00FFF0
01FFF0
01FFE0
01FFE0
03FFC0
03FFC0
07FF80
07FF80
07FF00
0FFE00
0FFE00
1FFC00
1FFC00
1FF800
3FF800
3FFFF8
3FFFF8
7FFFF0
7FFFE0
FFFFE0
FFFFC0
FFFF80
007F00
00FF00
00FE00
00FC00
01F800
01F800
01F000
03E000
03C000
03C000
078000
070000
070000
060000
0C0000
080000
ENDCHAR
STARTCHAR uniF0F3
ENCODING 61683
SWIDTH 1132 0
DWIDTH 85 0
BBX 21 24 30 0
BITMAP
00FFF8
00FFF8
00FFF0
01FFF0
01FFE0
01FFE0
03FFC0
03FFC0
07FF80
07FF80
07FF00
0FFE00
0FFE00
1FFC00
1FFC00
1FF800
3FF800
3FFFF8
3FFFF0
7FFFC0
7FFF00
FFFC00
FFF000
FF8000
ENDCHAR
STARTCHAR uniF0F4
ENCODING 61684
SWIDTH 1132 0
DWIDTH 85 0
BBX 19 17 32 7
BITMAP
03FFE0
03FFE0
03FFC0
07FFC0
07FF80
07FF80
0FFF00
0FFF00
1FFE00
1FFE00
1FFC00
3FF800
3FF800
7FF000
7FF000
7FE000
FFE000
ENDCHAR
STARTCHAR uniF0F5
ENCODING 61685
SWIDTH 1132 0
DWIDTH 85 0
BBX 16 10 35 14
BITMAP
1FFF
1FFF
1FFE
3FFE
3FFC
3FFC
7FF8
7FF8
FFF0
FFF0
ENDCHAR
ENDFONT
