STARTFONT 2.1
FONT -FontForge-Good Times Rg-Book-R-Normal--14-100-100-100-P-98-ISO10646-1
SIZE 10 100 100
FONTBOUNDINGBOX 18 16 0 -3
COMMENT "Generated by fontforge, http://fontforge.sourceforge.net"
COMMENT "(c) 1998-2012 Typodermic Fonts Inc. See attached license agreement. If agreement is missing visit typodermicfonts.com for more info. Languages by Chikako Larabie"
STARTPROPERTIES 38
FOUNDRY "FontForge"
FAMILY_NAME "Good Times Rg"
WEIGHT_NAME "Book"
SLANT "R"
SETWIDTH_NAME "Normal"
ADD_STYLE_NAME ""
PIXEL_SIZE 14
POINT_SIZE 100
RESOLUTION_X 100
RESOLUTION_Y 100
SPACING "P"
AVERAGE_WIDTH 98
CHARSET_REGISTRY "ISO10646"
CHARSET_ENCODING "1"
FONTNAME_REGISTRY ""
CHARSET_COLLECTIONS "ISO10646-1"
FONT_NAME "GoodTimesRg-Regular"
FACE_NAME "GoodTimesRg-Regular"
COPYRIGHT "(c) 1998-2012 Typodermic Fonts Inc. See attached license agreement. If agreement is missing visit typodermicfonts.com for more info. Languages by Chikako Larabie"
FONT_VERSION "4.001"
FONT_ASCENT 11
FONT_DESCENT 3
UNDERLINE_POSITION -2
UNDERLINE_THICKNESS 1
X_HEIGHT 9
CAP_HEIGHT 9
RAW_ASCENT 799
RAW_DESCENT 201
RELATIVE_WEIGHT 40
RELATIVE_SETWIDTH 50
SUPERSCRIPT_X 0
SUPERSCRIPT_Y 4
SUPERSCRIPT_SIZE 4
SUBSCRIPT_X 0
SUBSCRIPT_Y 0
SUBSCRIPT_SIZE 4
AVG_LOWERCASE_WIDTH 118
AVG_UPPERCASE_WIDTH 121
ENDPROPERTIES
CHARS 120
STARTCHAR exclam
ENCODING 33
SWIDTH 298 0
DWIDTH 4 0
BBX 2 10 1 0
BITMAP
C0
C0
C0
C0
C0
C0
C0
00
C0
C0
ENDCHAR
STARTCHAR quotedbl
ENCODING 34
SWIDTH 452 0
DWIDTH 6 0
BBX 4 4 1 6
BITMAP
D0
D0
D0
90
ENDCHAR
STARTCHAR numbersign
ENCODING 35
SWIDTH 697 0
DWIDTH 10 0
BBX 8 10 1 0
BITMAP
13
12
32
7F
24
64
FE
FE
48
98
ENDCHAR
STARTCHAR dollar
ENCODING 36
SWIDTH 744 0
DWIDTH 10 0
BBX 9 10 1 0
BITMAP
0800
7F00
FF00
8800
7F00
0900
0980
FF00
FF00
0800
ENDCHAR
STARTCHAR percent
ENCODING 37
SWIDTH 965 0
DWIDTH 14 0
BBX 12 12 1 -1
BITMAP
0060
F040
8880
8900
9A00
6600
04E0
0910
1110
2110
61E0
C000
ENDCHAR
STARTCHAR ampersand
ENCODING 38
SWIDTH 759 0
DWIDTH 11 0
BBX 9 10 1 0
BITMAP
7800
F800
C000
C000
7F80
FF80
C200
C200
FF80
7F80
ENDCHAR
STARTCHAR quotesingle
ENCODING 39
SWIDTH 255 0
DWIDTH 4 0
BBX 2 4 1 6
BITMAP
C0
C0
80
80
ENDCHAR
STARTCHAR parenleft
ENCODING 40
SWIDTH 356 0
DWIDTH 5 0
BBX 3 13 1 -1
BITMAP
20
40
40
40
C0
80
80
80
C0
40
40
40
20
ENDCHAR
STARTCHAR parenright
ENCODING 41
SWIDTH 355 0
DWIDTH 5 0
BBX 3 13 1 -1
BITMAP
80
40
40
40
60
60
20
60
60
40
40
40
80
ENDCHAR
STARTCHAR asterisk
ENCODING 42
SWIDTH 469 0
DWIDTH 7 0
BBX 5 5 1 5
BITMAP
20
B8
60
50
50
ENDCHAR
STARTCHAR plus
ENCODING 43
SWIDTH 690 0
DWIDTH 10 0
BBX 8 8 1 1
BITMAP
10
10
10
10
FF
10
10
10
ENDCHAR
STARTCHAR comma
ENCODING 44
SWIDTH 259 0
DWIDTH 4 0
BBX 2 4 1 -2
BITMAP
C0
80
80
80
ENDCHAR
STARTCHAR hyphen
ENCODING 45
SWIDTH 296 0
DWIDTH 4 0
BBX 4 2 0 5
BITMAP
F0
F0
ENDCHAR
STARTCHAR period
ENCODING 46
SWIDTH 262 0
DWIDTH 4 0
BBX 2 2 1 0
BITMAP
C0
C0
ENDCHAR
STARTCHAR slash
ENCODING 47
SWIDTH 444 0
DWIDTH 6 0
BBX 6 10 0 0
BITMAP
04
08
08
10
10
20
20
60
40
C0
ENDCHAR
STARTCHAR zero
ENCODING 48
SWIDTH 838 0
DWIDTH 12 0
BBX 10 10 1 0
BITMAP
3E00
7F80
C1C0
C0C0
80C0
80C0
C0C0
E180
7F80
1E00
ENDCHAR
STARTCHAR one
ENCODING 49
SWIDTH 385 0
DWIDTH 5 0
BBX 5 10 0 0
BITMAP
E0
F0
10
18
18
18
18
18
18
18
ENDCHAR
STARTCHAR two
ENCODING 50
SWIDTH 825 0
DWIDTH 12 0
BBX 10 10 1 0
BITMAP
FF80
FFC0
00C0
00C0
7F80
FF00
C000
C000
FFC0
FFC0
ENDCHAR
STARTCHAR three
ENCODING 51
SWIDTH 827 0
DWIDTH 12 0
BBX 10 10 1 0
BITMAP
FF80
FF80
00C0
00C0
3F80
3F80
00C0
00C0
FFC0
FF80
ENDCHAR
STARTCHAR four
ENCODING 52
SWIDTH 845 0
DWIDTH 12 0
BBX 10 10 1 0
BITMAP
8180
8180
8180
8180
C180
FFC0
7FC0
0180
0180
0180
ENDCHAR
STARTCHAR five
ENCODING 53
SWIDTH 885 0
DWIDTH 12 0
BBX 11 10 1 0
BITMAP
FFC0
FFC0
C000
C000
FFC0
FFC0
0060
0060
FFC0
FF80
ENDCHAR
STARTCHAR six
ENCODING 54
SWIDTH 872 0
DWIDTH 12 0
BBX 10 10 1 0
BITMAP
3FC0
7FC0
C000
C000
FF80
FFC0
C040
C040
7FC0
3F80
ENDCHAR
STARTCHAR seven
ENCODING 55
SWIDTH 756 0
DWIDTH 11 0
BBX 9 10 1 0
BITMAP
FF80
FF80
0300
0600
0E00
0C00
1800
3000
6000
C000
ENDCHAR
STARTCHAR eight
ENCODING 56
SWIDTH 898 0
DWIDTH 13 0
BBX 11 10 1 0
BITMAP
7FC0
FFC0
C060
C060
7FC0
FFC0
C060
C060
FFC0
7FC0
ENDCHAR
STARTCHAR nine
ENCODING 57
SWIDTH 861 0
DWIDTH 12 0
BBX 10 10 1 0
BITMAP
7F00
FF80
80C0
8040
FFC0
7FC0
00C0
00C0
7FC0
7F00
ENDCHAR
STARTCHAR colon
ENCODING 58
SWIDTH 262 0
DWIDTH 4 0
BBX 2 6 1 0
BITMAP
C0
C0
00
00
C0
C0
ENDCHAR
STARTCHAR semicolon
ENCODING 59
SWIDTH 262 0
DWIDTH 4 0
BBX 2 8 1 -2
BITMAP
C0
C0
00
00
C0
80
80
80
ENDCHAR
STARTCHAR less
ENCODING 60
SWIDTH 690 0
DWIDTH 10 0
BBX 8 8 1 1
BITMAP
01
07
38
C0
E0
1C
07
01
ENDCHAR
STARTCHAR equal
ENCODING 61
SWIDTH 690 0
DWIDTH 10 0
BBX 8 5 1 3
BITMAP
FF
00
00
00
FF
ENDCHAR
STARTCHAR greater
ENCODING 62
SWIDTH 690 0
DWIDTH 10 0
BBX 8 8 1 1
BITMAP
80
E0
18
07
06
38
E0
80
ENDCHAR
STARTCHAR question
ENCODING 63
SWIDTH 776 0
DWIDTH 11 0
BBX 9 10 1 0
BITMAP
FF00
FF80
0080
0180
7F80
7F00
4000
0000
4000
C000
ENDCHAR
STARTCHAR at
ENCODING 64
SWIDTH 833 0
DWIDTH 12 0
BBX 10 10 1 0
BITMAP
3FC0
7FC0
C0C0
9EC0
B2C0
92C0
9FC0
C000
7FC0
3FC0
ENDCHAR
STARTCHAR A
ENCODING 65
SWIDTH 989 0
DWIDTH 14 0
BBX 14 10 0 0
BITMAP
0300
0700
0780
0CC0
0CC0
1860
33E0
3430
6018
E01C
ENDCHAR
STARTCHAR B
ENCODING 66
SWIDTH 891 0
DWIDTH 12 0
BBX 11 10 1 0
BITMAP
FF80
FFC0
C060
C040
DFC0
DFC0
C060
C060
FFC0
FF80
ENDCHAR
STARTCHAR C
ENCODING 67
SWIDTH 829 0
DWIDTH 12 0
BBX 10 10 1 0
BITMAP
3FC0
7FC0
C000
C000
8000
8000
C000
C000
7FC0
3FC0
ENDCHAR
STARTCHAR D
ENCODING 68
SWIDTH 879 0
DWIDTH 12 0
BBX 11 10 1 0
BITMAP
FF00
FF80
C0C0
C060
C060
C060
C060
C0C0
FF80
FF00
ENDCHAR
STARTCHAR E
ENCODING 69
SWIDTH 759 0
DWIDTH 11 0
BBX 9 10 1 0
BITMAP
FF80
FF80
C000
C000
DF80
DF80
C000
C000
FF80
FF80
ENDCHAR
STARTCHAR F
ENCODING 70
SWIDTH 705 0
DWIDTH 10 0
BBX 9 10 1 0
BITMAP
FF80
FF80
C000
C000
DF00
DF00
C000
C000
C000
C000
ENDCHAR
STARTCHAR G
ENCODING 71
SWIDTH 888 0
DWIDTH 12 0
BBX 11 10 1 0
BITMAP
3FC0
7FC0
C000
C000
8FE0
8FE0
C060
C060
7FE0
3FE0
ENDCHAR
STARTCHAR H
ENCODING 72
SWIDTH 838 0
DWIDTH 12 0
BBX 10 10 1 0
BITMAP
C0C0
C0C0
C0C0
C0C0
DFC0
DFC0
C0C0
C0C0
C0C0
C0C0
ENDCHAR
STARTCHAR I
ENCODING 73
SWIDTH 267 0
DWIDTH 4 0
BBX 2 10 1 0
BITMAP
C0
C0
C0
C0
C0
C0
C0
C0
C0
C0
ENDCHAR
STARTCHAR J
ENCODING 74
SWIDTH 708 0
DWIDTH 10 0
BBX 9 10 0 0
BITMAP
0180
0180
0180
0180
0180
0180
0180
0180
FF00
FE00
ENDCHAR
STARTCHAR K
ENCODING 75
SWIDTH 875 0
DWIDTH 12 0
BBX 11 10 1 0
BITMAP
C1E0
C380
C600
DC00
F800
F800
CC00
C700
C380
C0E0
ENDCHAR
STARTCHAR L
ENCODING 76
SWIDTH 707 0
DWIDTH 10 0
BBX 9 10 1 0
BITMAP
C000
C000
C000
C000
C000
C000
C000
C000
FF80
FF80
ENDCHAR
STARTCHAR M
ENCODING 77
SWIDTH 1115 0
DWIDTH 16 0
BBX 15 10 0 0
BITMAP
1818
1818
3C38
3C28
366C
264C
62C4
63C6
6186
C186
ENDCHAR
STARTCHAR N
ENCODING 78
SWIDTH 873 0
DWIDTH 12 0
BBX 10 10 1 0
BITMAP
C040
E040
F040
F840
DC40
CE40
C740
C3C0
C1C0
C040
ENDCHAR
STARTCHAR O
ENCODING 79
SWIDTH 968 0
DWIDTH 14 0
BBX 12 10 1 0
BITMAP
3F80
7FE0
C060
C030
8030
8030
C030
C060
7FE0
3F80
ENDCHAR
STARTCHAR P
ENCODING 80
SWIDTH 867 0
DWIDTH 12 0
BBX 11 10 1 0
BITMAP
FF80
FFC0
C060
C060
C060
DFC0
DF80
C000
C000
C000
ENDCHAR
STARTCHAR Q
ENCODING 81
SWIDTH 968 0
DWIDTH 14 0
BBX 13 10 1 0
BITMAP
3F80
7FE0
C060
C030
8030
8030
C730
C1E0
7FE0
3FB8
ENDCHAR
STARTCHAR R
ENCODING 82
SWIDTH 921 0
DWIDTH 13 0
BBX 12 10 1 0
BITMAP
FF80
FFC0
C060
C060
C060
DFC0
DF80
C1C0
C0C0
C070
ENDCHAR
STARTCHAR S
ENCODING 83
SWIDTH 880 0
DWIDTH 12 0
BBX 11 10 1 0
BITMAP
7FC0
FFC0
C000
C000
FFC0
7FC0
0060
0060
FFC0
FF80
ENDCHAR
STARTCHAR T
ENCODING 84
SWIDTH 720 0
DWIDTH 10 0
BBX 10 10 0 0
BITMAP
FFC0
FFC0
0C00
0C00
0C00
0C00
0C00
0C00
0C00
0C00
ENDCHAR
STARTCHAR U
ENCODING 85
SWIDTH 889 0
DWIDTH 12 0
BBX 11 10 1 0
BITMAP
C060
C060
C060
C060
C060
C060
C060
C0C0
7FC0
3F00
ENDCHAR
STARTCHAR V
ENCODING 86
SWIDTH 989 0
DWIDTH 14 0
BBX 14 10 0 0
BITMAP
E01C
6018
3030
3060
1860
0CC0
0CC0
0780
0700
0300
ENDCHAR
STARTCHAR W
ENCODING 87
SWIDTH 1268 0
DWIDTH 18 0
BBX 18 10 0 0
BITMAP
E701C0
630180
318300
318300
18C600
18C400
0DEC00
0F7800
073800
063000
ENDCHAR
STARTCHAR X
ENCODING 88
SWIDTH 1000 0
DWIDTH 14 0
BBX 14 10 0 0
BITMAP
7038
3870
1CE0
0FC0
0700
0780
0DC0
18E0
3030
E01C
ENDCHAR
STARTCHAR Y
ENCODING 89
SWIDTH 926 0
DWIDTH 13 0
BBX 13 10 0 0
BITMAP
E038
7060
38E0
1CC0
0D80
0700
0200
0200
0200
0200
ENDCHAR
STARTCHAR Z
ENCODING 90
SWIDTH 802 0
DWIDTH 11 0
BBX 10 10 1 0
BITMAP
FFC0
FF80
0300
0600
0C00
1800
3000
6000
FFC0
FFC0
ENDCHAR
STARTCHAR bracketleft
ENCODING 91
SWIDTH 333 0
DWIDTH 5 0
BBX 3 12 1 -1
BITMAP
E0
C0
C0
C0
C0
C0
C0
C0
C0
C0
C0
E0
ENDCHAR
STARTCHAR backslash
ENCODING 92
SWIDTH 445 0
DWIDTH 6 0
BBX 6 10 0 0
BITMAP
C0
40
60
20
20
10
10
08
08
04
ENDCHAR
STARTCHAR bracketright
ENCODING 93
SWIDTH 333 0
DWIDTH 5 0
BBX 2 12 1 -1
BITMAP
C0
40
40
40
40
40
40
40
40
40
40
C0
ENDCHAR
STARTCHAR asciicircum
ENCODING 94
SWIDTH 559 0
DWIDTH 8 0
BBX 6 6 1 4
BITMAP
30
30
70
48
48
84
ENDCHAR
STARTCHAR underscore
ENCODING 95
SWIDTH 668 0
DWIDTH 9 0
BBX 9 1 0 -2
BITMAP
FF80
ENDCHAR
STARTCHAR grave
ENCODING 96
SWIDTH 362 0
DWIDTH 5 0
BBX 3 1 1 11
BITMAP
E0
ENDCHAR
STARTCHAR a
ENCODING 97
SWIDTH 989 0
DWIDTH 14 0
BBX 14 10 0 0
BITMAP
0300
0780
0780
0CC0
18C0
1860
33F0
3430
6018
E01C
ENDCHAR
STARTCHAR b
ENCODING 98
SWIDTH 891 0
DWIDTH 12 0
BBX 11 10 1 0
BITMAP
FFC0
FFC0
C060
C040
DFC0
DFC0
C060
C060
FFC0
FF80
ENDCHAR
STARTCHAR c
ENCODING 99
SWIDTH 829 0
DWIDTH 12 0
BBX 10 10 1 0
BITMAP
3FC0
7FC0
C000
C000
8000
8000
C000
E000
7FC0
3FC0
ENDCHAR
STARTCHAR d
ENCODING 100
SWIDTH 879 0
DWIDTH 12 0
BBX 11 10 1 0
BITMAP
FF00
FFC0
C0C0
C060
C060
C060
C040
C0C0
FF80
FF00
ENDCHAR
STARTCHAR e
ENCODING 101
SWIDTH 759 0
DWIDTH 11 0
BBX 9 10 1 0
BITMAP
FF80
FF80
C000
C000
DF80
DF80
C000
C000
FF80
FF80
ENDCHAR
STARTCHAR f
ENCODING 102
SWIDTH 705 0
DWIDTH 10 0
BBX 9 10 1 0
BITMAP
FF80
FF80
C000
C000
DF00
DF00
C000
C000
C000
C000
ENDCHAR
STARTCHAR g
ENCODING 103
SWIDTH 888 0
DWIDTH 12 0
BBX 11 10 1 0
BITMAP
3FC0
7FC0
C000
C000
8FE0
8FE0
C060
E060
7FE0
3FE0
ENDCHAR
STARTCHAR h
ENCODING 104
SWIDTH 838 0
DWIDTH 12 0
BBX 10 10 1 0
BITMAP
C0C0
C0C0
C0C0
C0C0
DFC0
DFC0
C0C0
C0C0
C0C0
C0C0
ENDCHAR
STARTCHAR i
ENCODING 105
SWIDTH 267 0
DWIDTH 4 0
BBX 2 10 1 0
BITMAP
C0
C0
C0
C0
C0
C0
C0
C0
C0
C0
ENDCHAR
STARTCHAR j
ENCODING 106
SWIDTH 708 0
DWIDTH 10 0
BBX 9 10 0 0
BITMAP
0180
0180
0180
0180
0180
0180
0180
0180
FF00
FE00
ENDCHAR
STARTCHAR k
ENCODING 107
SWIDTH 875 0
DWIDTH 12 0
BBX 11 10 1 0
BITMAP
C1E0
C380
C600
DC00
F800
D800
CC00
C700
C380
C0E0
ENDCHAR
STARTCHAR l
ENCODING 108
SWIDTH 707 0
DWIDTH 10 0
BBX 9 10 1 0
BITMAP
C000
C000
C000
C000
C000
C000
C000
C000
FF80
FF80
ENDCHAR
STARTCHAR m
ENCODING 109
SWIDTH 1115 0
DWIDTH 16 0
BBX 15 10 0 0
BITMAP
1818
1838
3C38
3C2C
366C
264C
62C4
63C6
6386
C186
ENDCHAR
STARTCHAR n
ENCODING 110
SWIDTH 873 0
DWIDTH 12 0
BBX 10 10 1 0
BITMAP
C040
E040
F040
F840
DC40
CE40
C740
C3C0
C1C0
C0C0
ENDCHAR
STARTCHAR o
ENCODING 111
SWIDTH 968 0
DWIDTH 14 0
BBX 12 10 1 0
BITMAP
3FC0
7FE0
C070
C030
8030
8030
C030
E060
7FE0
3F80
ENDCHAR
STARTCHAR p
ENCODING 112
SWIDTH 867 0
DWIDTH 12 0
BBX 11 10 1 0
BITMAP
FF80
FFC0
C060
C060
C060
DFC0
DF80
C000
C000
C000
ENDCHAR
STARTCHAR q
ENCODING 113
SWIDTH 968 0
DWIDTH 14 0
BBX 13 10 1 0
BITMAP
3FC0
7FE0
C070
C030
8030
8030
C730
E1E0
7FE0
3FB8
ENDCHAR
STARTCHAR r
ENCODING 114
SWIDTH 921 0
DWIDTH 13 0
BBX 12 10 1 0
BITMAP
FFC0
FFC0
C060
C060
C060
C0C0
DFC0
C180
C0C0
C070
ENDCHAR
STARTCHAR s
ENCODING 115
SWIDTH 880 0
DWIDTH 12 0
BBX 11 10 1 0
BITMAP
7FC0
FFC0
C000
C000
FF80
3FC0
0060
0060
FFC0
FF80
ENDCHAR
STARTCHAR t
ENCODING 116
SWIDTH 720 0
DWIDTH 10 0
BBX 10 10 0 0
BITMAP
FFC0
FFC0
0C00
0C00
0C00
0C00
0C00
0C00
0C00
0C00
ENDCHAR
STARTCHAR u
ENCODING 117
SWIDTH 889 0
DWIDTH 12 0
BBX 11 10 1 0
BITMAP
C060
C060
C060
C060
C060
C060
C060
C0C0
7FC0
3F80
ENDCHAR
STARTCHAR v
ENCODING 118
SWIDTH 989 0
DWIDTH 14 0
BBX 14 10 0 0
BITMAP
E01C
6018
3030
3860
1860
0CC0
0CC0
0780
0700
0300
ENDCHAR
STARTCHAR w
ENCODING 119
SWIDTH 1268 0
DWIDTH 18 0
BBX 18 10 0 0
BITMAP
E701C0
630180
318300
318300
18C600
18C400
0DEC00
0D7800
073800
063000
ENDCHAR
STARTCHAR x
ENCODING 120
SWIDTH 1000 0
DWIDTH 14 0
BBX 14 10 0 0
BITMAP
7038
3860
1CC0
0780
0300
0780
0CC0
1860
3030
E01C
ENDCHAR
STARTCHAR y
ENCODING 121
SWIDTH 926 0
DWIDTH 13 0
BBX 13 10 0 0
BITMAP
E038
3060
38C0
1DC0
0F80
0700
0200
0200
0200
0200
ENDCHAR
STARTCHAR z
ENCODING 122
SWIDTH 802 0
DWIDTH 11 0
BBX 10 10 1 0
BITMAP
FFC0
FF80
0300
0600
0C00
1800
3000
6000
FFC0
FFC0
ENDCHAR
STARTCHAR braceleft
ENCODING 123
SWIDTH 337 0
DWIDTH 5 0
BBX 3 13 1 -1
BITMAP
60
40
40
40
40
40
80
40
40
40
40
40
60
ENDCHAR
STARTCHAR bar
ENCODING 124
SWIDTH 297 0
DWIDTH 4 0
BBX 1 13 2 -1
BITMAP
80
80
80
80
80
80
80
80
80
80
80
80
80
ENDCHAR
STARTCHAR braceright
ENCODING 125
SWIDTH 337 0
DWIDTH 5 0
BBX 3 13 1 -1
BITMAP
C0
40
40
40
40
40
60
40
40
40
40
40
C0
ENDCHAR
STARTCHAR asciitilde
ENCODING 126
SWIDTH 691 0
DWIDTH 10 0
BBX 8 2 1 4
BITMAP
F1
8E
ENDCHAR
STARTCHAR exclamdown
ENCODING 161
SWIDTH 298 0
DWIDTH 4 0
BBX 2 10 1 0
BITMAP
C0
40
00
C0
C0
C0
C0
C0
C0
C0
ENDCHAR
STARTCHAR cent
ENCODING 162
SWIDTH 692 0
DWIDTH 10 0
BBX 8 10 1 0
BITMAP
08
7F
FF
C8
88
88
C8
FF
3F
08
ENDCHAR
STARTCHAR sterling
ENCODING 163
SWIDTH 709 0
DWIDTH 10 0
BBX 9 10 0 0
BITMAP
1F00
3F00
2000
2000
7C00
7C00
2000
2000
FF80
FF80
ENDCHAR
STARTCHAR yen
ENCODING 165
SWIDTH 787 0
DWIDTH 11 0
BBX 11 10 0 0
BITMAP
E0E0
60C0
3180
1B00
0E00
3F80
0400
3F80
3F80
0400
ENDCHAR
STARTCHAR brokenbar
ENCODING 166
SWIDTH 297 0
DWIDTH 4 0
BBX 1 13 2 -1
BITMAP
80
80
80
80
80
80
00
80
80
80
80
80
80
ENDCHAR
STARTCHAR section
ENCODING 167
SWIDTH 773 0
DWIDTH 11 0
BBX 9 13 1 -3
BITMAP
7F00
FF00
8000
C000
FF00
7F00
C180
FF00
7F00
0180
0180
7F80
7F00
ENDCHAR
STARTCHAR dieresis
ENCODING 168
SWIDTH 393 0
DWIDTH 6 0
BBX 4 2 1 11
BITMAP
90
B0
ENDCHAR
STARTCHAR copyright
ENCODING 169
SWIDTH 829 0
DWIDTH 12 0
BBX 10 10 1 0
BITMAP
1E00
6180
9C80
A040
A040
A040
9C40
8080
6180
1E00
ENDCHAR
STARTCHAR ordfeminine
ENCODING 170
SWIDTH 604 0
DWIDTH 8 0
BBX 7 6 1 4
BITMAP
10
30
48
7C
84
82
ENDCHAR
STARTCHAR guillemotleft
ENCODING 171
SWIDTH 629 0
DWIDTH 9 0
BBX 7 5 1 3
BITMAP
12
66
98
C8
36
ENDCHAR
STARTCHAR registered
ENCODING 174
SWIDTH 585 0
DWIDTH 8 0
BBX 6 7 1 3
BITMAP
78
84
BC
D4
CC
84
78
ENDCHAR
STARTCHAR macron
ENCODING 175
SWIDTH 362 0
DWIDTH 5 0
BBX 3 1 1 11
BITMAP
E0
ENDCHAR
STARTCHAR degree
ENCODING 176
SWIDTH 361 0
DWIDTH 5 0
BBX 3 4 1 6
BITMAP
E0
A0
A0
E0
ENDCHAR
STARTCHAR plusminus
ENCODING 177
SWIDTH 690 0
DWIDTH 10 0
BBX 8 10 1 -1
BITMAP
10
10
10
FF
10
10
10
10
00
FF
ENDCHAR
STARTCHAR twosuperior
ENCODING 178
SWIDTH 442 0
DWIDTH 6 0
BBX 5 5 1 5
BITMAP
F0
08
F0
80
F8
ENDCHAR
STARTCHAR threesuperior
ENCODING 179
SWIDTH 443 0
DWIDTH 6 0
BBX 5 5 1 5
BITMAP
F0
08
70
08
F0
ENDCHAR
STARTCHAR acute
ENCODING 180
SWIDTH 362 0
DWIDTH 5 0
BBX 3 1 1 11
BITMAP
E0
ENDCHAR
STARTCHAR paragraph
ENCODING 182
SWIDTH 629 0
DWIDTH 9 0
BBX 7 12 1 -2
BITMAP
FE
F2
F2
F2
32
12
12
12
12
12
12
12
ENDCHAR
STARTCHAR periodcentered
ENCODING 183
SWIDTH 262 0
DWIDTH 4 0
BBX 2 2 1 4
BITMAP
C0
C0
ENDCHAR
STARTCHAR cedilla
ENCODING 184
SWIDTH 219 0
DWIDTH 3 0
BBX 1 2 1 -3
BITMAP
80
80
ENDCHAR
STARTCHAR onesuperior
ENCODING 185
SWIDTH 222 0
DWIDTH 3 0
BBX 2 5 0 5
BITMAP
C0
40
40
40
40
ENDCHAR
STARTCHAR ordmasculine
ENCODING 186
SWIDTH 592 0
DWIDTH 8 0
BBX 7 6 1 4
BITMAP
78
84
82
82
84
78
ENDCHAR
STARTCHAR guillemotright
ENCODING 187
SWIDTH 629 0
DWIDTH 9 0
BBX 7 5 1 3
BITMAP
90
C8
36
66
98
ENDCHAR
STARTCHAR onequarter
ENCODING 188
SWIDTH 972 0
DWIDTH 14 0
BBX 12 12 1 -1
BITMAP
0040
6080
2100
2200
2600
2400
0920
1120
2120
21F0
4020
8000
ENDCHAR
STARTCHAR onehalf
ENCODING 189
SWIDTH 948 0
DWIDTH 13 0
BBX 12 12 1 -1
BITMAP
0040
6080
2100
2200
2600
2400
09E0
1010
21E0
2100
41F0
8000
ENDCHAR
STARTCHAR threequarters
ENCODING 190
SWIDTH 1029 0
DWIDTH 14 0
BBX 13 12 1 -1
BITMAP
0060
F840
0880
7900
0A00
F600
0510
0910
1110
30F8
2010
C000
ENDCHAR
ENDFONT
