STARTFONT 2.1
FONT -FontForge-Good Times Rg-Book-R-Normal--26-250-75-75-P-181-ISO10646-1
SIZE 25 75 75
FONTBOUNDINGBOX 33 29 0 -5
COMMENT "Generated by fontforge, http://fontforge.sourceforge.net"
COMMENT "(c) 1998-2012 Typodermic Fonts Inc. See attached license agreement. If agreement is missing visit typodermicfonts.com for more info. Languages by Chikako Larabie"
STARTPROPERTIES 38
FOUNDRY "FontForge"
FAMILY_NAME "Good Times Rg"
WEIGHT_NAME "Book"
SLANT "R"
SETWIDTH_NAME "Normal"
ADD_STYLE_NAME ""
PIXEL_SIZE 26
POINT_SIZE 250
RESOLUTION_X 75
RESOLUTION_Y 75
SPACING "P"
AVERAGE_WIDTH 181
CHARSET_REGISTRY "ISO10646"
CHARSET_ENCODING "1"
FONTNAME_REGISTRY ""
CHARSET_COLLECTIONS "ISO10646-1"
FONT_NAME "GoodTimesRg-Regular"
FACE_NAME "GoodTimesRg-Regular"
COPYRIGHT "(c) 1998-2012 Typodermic Fonts Inc. See attached license agreement. If agreement is missing visit typodermicfonts.com for more info. Languages by Chikako Larabie"
FONT_VERSION "4.001"
FONT_ASCENT 21
FONT_DESCENT 5
UNDERLINE_POSITION -4
UNDERLINE_THICKNESS 1
X_HEIGHT 18
CAP_HEIGHT 18
RAW_ASCENT 799
RAW_DESCENT 201
RELATIVE_WEIGHT 40
RELATIVE_SETWIDTH 50
SUPERSCRIPT_X 0
SUPERSCRIPT_Y 7
SUPERSCRIPT_SIZE 7
SUBSCRIPT_X 0
SUBSCRIPT_Y 0
SUBSCRIPT_SIZE 7
AVG_LOWERCASE_WIDTH 220
AVG_UPPERCASE_WIDTH 225
ENDPROPERTIES
CHARS 120
STARTCHAR exclam
ENCODING 33
SWIDTH 298 0
DWIDTH 8 0
BBX 4 19 2 0
BITMAP
E0
E0
E0
E0
E0
E0
E0
E0
E0
E0
E0
E0
E0
00
00
00
E0
F0
60
ENDCHAR
STARTCHAR quotedbl
ENCODING 34
SWIDTH 452 0
DWIDTH 12 0
BBX 8 7 2 12
BITMAP
E7
E7
E7
E7
E7
E7
E6
ENDCHAR
STARTCHAR numbersign
ENCODING 35
SWIDTH 697 0
DWIDTH 18 0
BBX 16 19 1 0
BITMAP
0386
038E
030C
030C
071C
3FFF
3FFF
0E18
0C38
0C30
0C30
1C70
FFFC
FFFC
3860
30E0
30C0
70C0
61C0
ENDCHAR
STARTCHAR dollar
ENCODING 36
SWIDTH 744 0
DWIDTH 19 0
BBX 17 19 1 0
BITMAP
00C000
00C000
1FFF00
7FFF00
7FFF00
F0C000
E0C000
70C000
7FFE00
3FFF00
00C700
00C380
00C380
00C380
7FFF80
7FFF00
7FFE00
00C000
00C000
ENDCHAR
STARTCHAR percent
ENCODING 37
SWIDTH 965 0
DWIDTH 25 0
BBX 23 22 1 -2
BITMAP
000038
3F0070
738060
C0C0C0
C0C180
C0C300
C0C700
408600
738C00
3F1800
003800
0031F8
00639C
00C206
018606
038606
030606
060206
0C039C
1C01F8
380000
300000
ENDCHAR
STARTCHAR ampersand
ENCODING 38
SWIDTH 759 0
DWIDTH 20 0
BBX 18 19 1 0
BITMAP
0FC000
3FC000
7FC000
780000
700000
700000
700000
780000
3FFF80
3FFF80
7FFF80
701E00
F01E00
F01E00
F01E00
781E00
7FFFC0
3FFFC0
0FFFC0
ENDCHAR
STARTCHAR quotesingle
ENCODING 39
SWIDTH 255 0
DWIDTH 7 0
BBX 3 7 2 12
BITMAP
E0
E0
E0
E0
E0
E0
C0
ENDCHAR
STARTCHAR parenleft
ENCODING 40
SWIDTH 356 0
DWIDTH 9 0
BBX 6 24 2 -2
BITMAP
1C
18
38
30
30
70
60
60
60
60
E0
E0
E0
E0
60
60
60
60
60
30
30
38
18
1C
ENDCHAR
STARTCHAR parenright
ENCODING 41
SWIDTH 355 0
DWIDTH 9 0
BBX 5 24 2 -2
BITMAP
C0
E0
60
60
70
30
30
30
38
18
18
18
18
18
18
38
30
30
30
70
60
60
E0
C0
ENDCHAR
STARTCHAR asterisk
ENCODING 42
SWIDTH 469 0
DWIDTH 12 0
BBX 9 9 2 10
BITMAP
1800
1800
9900
FF80
3C00
3C00
3600
6600
2200
ENDCHAR
STARTCHAR plus
ENCODING 43
SWIDTH 690 0
DWIDTH 18 0
BBX 14 15 2 2
BITMAP
0300
0300
0300
0300
0300
0300
0300
FFFC
FFFC
0300
0300
0300
0300
0300
0300
ENDCHAR
STARTCHAR comma
ENCODING 44
SWIDTH 259 0
DWIDTH 7 0
BBX 3 7 2 -3
BITMAP
E0
E0
E0
C0
C0
C0
C0
ENDCHAR
STARTCHAR hyphen
ENCODING 45
SWIDTH 296 0
DWIDTH 8 0
BBX 6 2 1 9
BITMAP
FC
FC
ENDCHAR
STARTCHAR period
ENCODING 46
SWIDTH 262 0
DWIDTH 7 0
BBX 3 3 2 0
BITMAP
E0
E0
E0
ENDCHAR
STARTCHAR slash
ENCODING 47
SWIDTH 444 0
DWIDTH 12 0
BBX 11 19 0 0
BITMAP
0060
00E0
00C0
01C0
0180
0180
0300
0300
0600
0600
0C00
0C00
1C00
1800
3800
3000
7000
6000
E000
ENDCHAR
STARTCHAR zero
ENCODING 48
SWIDTH 838 0
DWIDTH 22 0
BBX 20 19 1 0
BITMAP
01F800
0FFE00
1FFF80
3F9FC0
7C03C0
7801E0
F000E0
F000F0
E000F0
E000F0
E000F0
F000E0
7000E0
7801E0
3C03C0
3F9F80
1FFF80
07FE00
01F800
ENDCHAR
STARTCHAR one
ENCODING 49
SWIDTH 385 0
DWIDTH 10 0
BBX 7 19 1 0
BITMAP
F0
FC
FC
1E
0E
0E
0E
0E
0E
0E
0E
0E
0E
0E
0E
0E
0E
0E
0E
ENDCHAR
STARTCHAR two
ENCODING 50
SWIDTH 825 0
DWIDTH 21 0
BBX 18 19 2 0
BITMAP
FFFE00
FFFF80
FFFF80
0007C0
0003C0
0001C0
0003C0
0007C0
3FFF80
7FFF00
FFFE00
F00000
E00000
E00000
E00000
E00000
FFFFC0
FFFFC0
FFFFC0
ENDCHAR
STARTCHAR three
ENCODING 51
SWIDTH 827 0
DWIDTH 22 0
BBX 19 19 1 0
BITMAP
FFFF00
FFFFC0
FFFFC0
0007E0
0001E0
0000E0
0001E0
0003C0
07FF80
07FF80
07FFC0
0001E0
0000E0
0000E0
0000E0
0003E0
FFFFC0
FFFF80
FFFF00
ENDCHAR
STARTCHAR four
ENCODING 52
SWIDTH 845 0
DWIDTH 22 0
BBX 20 19 1 0
BITMAP
F003C0
F003C0
F003C0
F003C0
F003C0
F003C0
F003C0
F003C0
F003C0
F003C0
7803C0
7FFFF0
3FFFF0
1FFFF0
0003C0
0003C0
0003C0
0003C0
0003C0
ENDCHAR
STARTCHAR five
ENCODING 53
SWIDTH 885 0
DWIDTH 23 0
BBX 20 19 2 0
BITMAP
FFFFE0
FFFFE0
FFFFE0
E00000
E00000
E00000
E00000
E00000
FFFF80
FFFFE0
FFFFE0
0000E0
0000F0
0000F0
0000F0
0001E0
FFFFE0
FFFFC0
FFFF80
ENDCHAR
STARTCHAR six
ENCODING 54
SWIDTH 872 0
DWIDTH 23 0
BBX 20 19 1 0
BITMAP
07FFF0
1FFFF0
3FFFF0
7E0000
780000
700000
F00000
F00000
FFFFC0
FFFFE0
FFFFF0
F000F0
F00070
700070
780070
3E00F0
3FFFE0
1FFFE0
07FF80
ENDCHAR
STARTCHAR seven
ENCODING 55
SWIDTH 756 0
DWIDTH 20 0
BBX 18 19 1 0
BITMAP
FFFFC0
FFFFC0
FFFFC0
000780
000F00
001F00
001E00
003C00
007800
00F000
01F000
03E000
03C000
078000
0F0000
1E0000
3E0000
3C0000
F80000
ENDCHAR
STARTCHAR eight
ENCODING 56
SWIDTH 898 0
DWIDTH 23 0
BBX 21 19 1 0
BITMAP
0FFFC0
3FFFE0
7FFFF0
7C01F0
700078
700078
700070
7C01F0
3FFFE0
3FFFE0
7FFFF0
780078
F00038
F00038
F00078
7C00F8
7FFFF0
3FFFE0
0FFFC0
ENDCHAR
STARTCHAR nine
ENCODING 57
SWIDTH 861 0
DWIDTH 22 0
BBX 20 19 1 0
BITMAP
1FFE00
3FFF80
7FFFC0
7807E0
F001E0
E000F0
E00070
F00070
F80070
7FFFF0
7FFFF0
1FFFF0
000070
0000F0
0000E0
0007E0
3FFFC0
3FFF80
3FFE00
ENDCHAR
STARTCHAR colon
ENCODING 58
SWIDTH 262 0
DWIDTH 7 0
BBX 3 12 2 0
BITMAP
E0
E0
E0
00
00
00
00
00
00
E0
E0
E0
ENDCHAR
STARTCHAR semicolon
ENCODING 59
SWIDTH 262 0
DWIDTH 7 0
BBX 3 15 2 -3
BITMAP
E0
E0
E0
00
00
00
00
00
E0
E0
E0
C0
C0
C0
C0
ENDCHAR
STARTCHAR less
ENCODING 60
SWIDTH 690 0
DWIDTH 18 0
BBX 14 14 2 3
BITMAP
0004
001C
007C
01F0
0FC0
3E00
F800
E000
F800
1F00
07C0
01F8
003C
000C
ENDCHAR
STARTCHAR equal
ENCODING 61
SWIDTH 690 0
DWIDTH 18 0
BBX 14 9 2 5
BITMAP
FFFC
FFFC
0000
0000
0000
0000
0000
FFFC
FFFC
ENDCHAR
STARTCHAR greater
ENCODING 62
SWIDTH 690 0
DWIDTH 18 0
BBX 14 14 2 3
BITMAP
8000
C000
F800
3E00
0FC0
01F0
007C
001C
007C
03E0
0F80
7E00
F000
C000
ENDCHAR
STARTCHAR question
ENCODING 63
SWIDTH 776 0
DWIDTH 20 0
BBX 18 19 1 0
BITMAP
FFFE00
FFFF80
FFFFC0
0003C0
0001C0
0001C0
0001C0
0003C0
1FFFC0
3FFF80
3FFE00
380000
380000
000000
000000
000000
380000
380000
380000
ENDCHAR
STARTCHAR at
ENCODING 64
SWIDTH 833 0
DWIDTH 22 0
BBX 19 19 1 0
BITMAP
03FFE0
0FFFE0
1E0060
380060
700060
60FC60
63FC60
E30C60
E30C60
E70C60
E30C60
E38C60
E3FFE0
71FFE0
700000
380000
1E0000
0FFFE0
03FFE0
ENDCHAR
STARTCHAR A
ENCODING 65
SWIDTH 989 0
DWIDTH 26 0
BBX 25 19 0 0
BITMAP
000C0000
001E0000
003E0000
003F0000
007F8000
00778000
00F3C000
01E1C000
01C1E000
03C0F000
0780F000
079FF800
0F3FF800
0E3FFC00
1E001E00
3C001E00
3C000F00
78000F00
F0000780
ENDCHAR
STARTCHAR B
ENCODING 66
SWIDTH 891 0
DWIDTH 23 0
BBX 20 19 2 0
BITMAP
FFFF80
FFFFC0
FFFFE0
E003E0
E000F0
E000F0
E000E0
E003E0
E7FFC0
E7FFC0
E7FFE0
E000F0
E000F0
E00070
E000F0
E003F0
FFFFE0
FFFFC0
FFFF80
ENDCHAR
STARTCHAR C
ENCODING 67
SWIDTH 829 0
DWIDTH 22 0
BBX 20 19 1 0
BITMAP
03FFF0
0FFFF0
1FFFF0
3F0000
7C0000
780000
F00000
F00000
E00000
E00000
E00000
F00000
700000
780000
7C0000
3F0000
1FFFF0
0FFFF0
03FFF0
ENDCHAR
STARTCHAR D
ENCODING 68
SWIDTH 879 0
DWIDTH 23 0
BBX 20 19 2 0
BITMAP
FFFC00
FFFF00
FFFF80
E00FC0
E003E0
E001E0
E000E0
E000F0
E000F0
E000F0
E000F0
E000F0
E000E0
E001E0
E003C0
E00FC0
FFFF80
FFFF00
FFFC00
ENDCHAR
STARTCHAR E
ENCODING 69
SWIDTH 759 0
DWIDTH 20 0
BBX 17 19 2 0
BITMAP
FFFF80
FFFF80
FFFF80
E00000
E00000
E00000
E00000
E00000
E7FF00
E7FF00
E7FF00
E00000
E00000
E00000
E00000
E00000
FFFF80
FFFF80
FFFF80
ENDCHAR
STARTCHAR F
ENCODING 70
SWIDTH 705 0
DWIDTH 18 0
BBX 16 19 2 0
BITMAP
FFFF
FFFF
FFFF
E000
E000
E000
E000
E000
E7FE
E7FE
E7FE
E000
E000
E000
E000
E000
E000
E000
E000
ENDCHAR
STARTCHAR G
ENCODING 71
SWIDTH 888 0
DWIDTH 23 0
BBX 21 19 1 0
BITMAP
03FFF0
0FFFF0
1FFFF0
3F0000
7C0000
780000
F00000
F00000
E07FF8
E07FF8
E07FF8
F00078
700078
780078
7C0078
3F0078
1FFFF8
0FFFF8
03FFF8
ENDCHAR
STARTCHAR H
ENCODING 72
SWIDTH 838 0
DWIDTH 22 0
BBX 18 19 2 0
BITMAP
E001C0
E001C0
E001C0
E001C0
E001C0
E001C0
E001C0
E001C0
E7FFC0
E7FFC0
E7FFC0
E001C0
E001C0
E001C0
E001C0
E001C0
E001C0
E001C0
E001C0
ENDCHAR
STARTCHAR I
ENCODING 73
SWIDTH 267 0
DWIDTH 7 0
BBX 3 19 2 0
BITMAP
E0
E0
E0
E0
E0
E0
E0
E0
E0
E0
E0
E0
E0
E0
E0
E0
E0
E0
E0
ENDCHAR
STARTCHAR J
ENCODING 74
SWIDTH 708 0
DWIDTH 18 0
BBX 16 19 1 0
BITMAP
0007
0007
0007
0007
0007
0007
0007
0007
0007
0007
0007
0007
000F
000F
001E
00FE
FFFC
FFF8
FFE0
ENDCHAR
STARTCHAR K
ENCODING 75
SWIDTH 875 0
DWIDTH 23 0
BBX 20 19 2 0
BITMAP
E003F0
E007C0
E00F80
E03E00
E07C00
E0F800
E3E000
E7C000
EF8000
EF0000
EF8000
E3C000
E1F000
E0F800
E07C00
E01F00
E00F80
E007C0
E001F0
ENDCHAR
STARTCHAR L
ENCODING 76
SWIDTH 707 0
DWIDTH 18 0
BBX 16 19 2 0
BITMAP
E000
E000
E000
E000
E000
E000
E000
E000
E000
E000
E000
E000
E000
E000
E000
E000
FFFF
FFFF
FFFF
ENDCHAR
STARTCHAR M
ENCODING 77
SWIDTH 1115 0
DWIDTH 29 0
BBX 27 19 1 0
BITMAP
06000C00
0F001E00
0F001E00
0F803E00
0F803E00
1FC07F00
1DC07700
1DE07700
1CE0E780
3CE0E380
3871C380
3871C380
787BC3C0
703B81C0
703F81C0
701F01C0
F01F01E0
E00E00E0
E00E00E0
ENDCHAR
STARTCHAR N
ENCODING 78
SWIDTH 873 0
DWIDTH 23 0
BBX 19 19 2 0
BITMAP
C000E0
F000E0
F800E0
FC00E0
FE00E0
FF00E0
EF80E0
E7C0E0
E3E0E0
E1F0E0
E0F8E0
E07CE0
E03EE0
E01FE0
E00FE0
E007E0
E003E0
E001E0
E000E0
ENDCHAR
STARTCHAR O
ENCODING 79
SWIDTH 968 0
DWIDTH 25 0
BBX 23 19 1 0
BITMAP
03FF80
0FFFE0
1FFFF0
3F01F8
7C007C
78001C
F0001E
F0000E
E0000E
E0000E
E0000E
F0000E
70001E
78003C
7C007C
3F01F8
1FFFF0
0FFFE0
03FF80
ENDCHAR
STARTCHAR P
ENCODING 80
SWIDTH 867 0
DWIDTH 23 0
BBX 20 19 2 0
BITMAP
FFFF00
FFFFC0
FFFFE0
E003E0
E000F0
E000F0
E00070
E00070
E000F0
E000E0
E003E0
E7FFC0
E7FFC0
E7FF00
E00000
E00000
E00000
E00000
E00000
ENDCHAR
STARTCHAR Q
ENCODING 81
SWIDTH 968 0
DWIDTH 25 0
BBX 24 19 1 0
BITMAP
03FF80
0FFFE0
1FFFF0
3F01F8
7C007C
78001C
F0001E
F0000E
E0000E
E0000E
E0000E
F03E0E
700F1E
7807BC
7C03FC
3F01F8
1FFFF8
0FFFFC
03FF9F
ENDCHAR
STARTCHAR R
ENCODING 82
SWIDTH 921 0
DWIDTH 24 0
BBX 22 19 2 0
BITMAP
FFFF00
FFFFC0
FFFFE0
E003E0
E000F0
E00070
E00070
E00070
E00070
E000F0
E003E0
E7FFE0
E7FFC0
E7FF00
E00780
E003C0
E001E0
E000F0
E0007C
ENDCHAR
STARTCHAR S
ENCODING 83
SWIDTH 880 0
DWIDTH 23 0
BBX 21 19 1 0
BITMAP
1FFFF0
3FFFF0
7FFFF0
780000
F00000
F00000
F00000
780000
7FFFC0
3FFFF0
1FFFF0
000070
000078
000038
000078
0000F0
7FFFF0
7FFFE0
7FFFC0
ENDCHAR
STARTCHAR T
ENCODING 84
SWIDTH 720 0
DWIDTH 19 0
BBX 17 19 1 0
BITMAP
FFFF80
FFFF80
FFFF80
01C000
01C000
01C000
01C000
01C000
01C000
01C000
01C000
01C000
01C000
01C000
01C000
01C000
01C000
01C000
01C000
ENDCHAR
STARTCHAR U
ENCODING 85
SWIDTH 889 0
DWIDTH 23 0
BBX 21 19 1 0
BITMAP
F00038
F00038
F00038
F00038
F00038
F00038
F00038
F00038
F00038
F00038
F00038
F00078
F00078
700070
7800F0
7F87F0
3FFFE0
1FFFC0
03FE00
ENDCHAR
STARTCHAR V
ENCODING 86
SWIDTH 989 0
DWIDTH 26 0
BBX 25 19 0 0
BITMAP
F8000780
78000700
3C000F00
3C001E00
1E001E00
0F003C00
0F003800
07807800
0380F000
03C0F000
01E1E000
01E1C000
00F3C000
00738000
007F8000
003F0000
003E0000
001E0000
000C0000
ENDCHAR
STARTCHAR W
ENCODING 87
SWIDTH 1268 0
DWIDTH 33 0
BBX 33 19 0 0
BITMAP
F83C000780
781E000F00
3C1E000E00
3C0F001E00
1E0F003C00
1E07803C00
0F07807800
0F03C07800
0783C0F000
0381E0E000
03C3E1E000
01C3F1C000
01E7F3C000
00EF7B8000
00FE3F8000
007E3F0000
007C1F0000
003C1E0000
00180C0000
ENDCHAR
STARTCHAR X
ENCODING 88
SWIDTH 1000 0
DWIDTH 26 0
BBX 24 19 1 0
BITMAP
F8001E
3C003C
1E0078
0F00F0
0781E0
03C3C0
01F780
00FF00
007E00
007C00
00FE00
01EF80
03C7C0
0783E0
0F01F0
1E00F8
3C007C
78003E
F0001F
ENDCHAR
STARTCHAR Y
ENCODING 89
SWIDTH 926 0
DWIDTH 24 0
BBX 24 19 0 0
BITMAP
F8001F
3C003C
3E007C
1F0078
0F80F0
0781E0
03C3C0
01E780
00FF80
00FF00
007E00
003C00
003C00
003C00
003C00
003C00
003C00
003C00
003C00
ENDCHAR
STARTCHAR Z
ENCODING 90
SWIDTH 802 0
DWIDTH 21 0
BBX 19 19 1 0
BITMAP
FFFFC0
FFFFE0
FFFFC0
0007C0
000F80
001F00
003E00
007C00
00F800
01F000
03E000
07C000
0F8000
1F0000
3E0000
7C0000
FFFFE0
FFFFE0
7FFFE0
ENDCHAR
STARTCHAR bracketleft
ENCODING 91
SWIDTH 333 0
DWIDTH 9 0
BBX 4 24 3 -2
BITMAP
F0
F0
C0
C0
C0
C0
C0
C0
C0
C0
C0
C0
C0
C0
C0
C0
C0
C0
C0
C0
C0
C0
F0
F0
ENDCHAR
STARTCHAR backslash
ENCODING 92
SWIDTH 445 0
DWIDTH 12 0
BBX 11 19 0 0
BITMAP
E000
6000
7000
3000
3800
1800
1800
0C00
0C00
0600
0600
0300
0300
0380
0180
01C0
00C0
00E0
0060
ENDCHAR
STARTCHAR bracketright
ENCODING 93
SWIDTH 333 0
DWIDTH 9 0
BBX 4 24 2 -2
BITMAP
F0
F0
30
30
30
30
30
30
30
30
30
30
30
30
30
30
30
30
30
30
30
30
F0
F0
ENDCHAR
STARTCHAR asciicircum
ENCODING 94
SWIDTH 559 0
DWIDTH 15 0
BBX 11 12 2 7
BITMAP
0C00
0E00
1E00
1B00
1B00
3300
3180
6180
61C0
E0C0
C0C0
C060
ENDCHAR
STARTCHAR underscore
ENCODING 95
SWIDTH 668 0
DWIDTH 17 0
BBX 18 2 0 -4
BITMAP
FFFFC0
FFFFC0
ENDCHAR
STARTCHAR grave
ENCODING 96
SWIDTH 362 0
DWIDTH 9 0
BBX 7 4 1 20
BITMAP
80
F0
7E
06
ENDCHAR
STARTCHAR a
ENCODING 97
SWIDTH 989 0
DWIDTH 26 0
BBX 25 19 0 0
BITMAP
001C0000
001E0000
003E0000
003F0000
007F8000
00F78000
00F3C000
01E3C000
01C1E000
03C0F000
0780F000
07807800
0F1FF800
0E3FFC00
1E001E00
3C001E00
3C000F00
78000F00
F0000780
ENDCHAR
STARTCHAR b
ENCODING 98
SWIDTH 891 0
DWIDTH 23 0
BBX 20 19 2 0
BITMAP
FFFF00
FFFFC0
FFFFE0
E003E0
E000F0
E000F0
E000E0
E001E0
E7FFC0
E7FFC0
E7FFE0
E000F0
E000F0
E00070
E000F0
E003F0
FFFFE0
FFFFC0
FFFF80
ENDCHAR
STARTCHAR c
ENCODING 99
SWIDTH 829 0
DWIDTH 22 0
BBX 20 19 1 0
BITMAP
03FFF0
0FFFF0
1FFFF0
3F8000
7C0000
780000
F00000
F00000
E00000
E00000
E00000
F00000
700000
780000
7C0000
3F0000
1FFFF0
0FFFF0
03FFF0
ENDCHAR
STARTCHAR d
ENCODING 100
SWIDTH 879 0
DWIDTH 23 0
BBX 20 19 2 0
BITMAP
FFFC00
FFFF00
FFFF80
E01FC0
E003E0
E001E0
E000E0
E000F0
E000F0
E000F0
E000F0
E000F0
E000E0
E001E0
E003C0
E00FC0
FFFF80
FFFF00
FFFC00
ENDCHAR
STARTCHAR e
ENCODING 101
SWIDTH 759 0
DWIDTH 20 0
BBX 17 19 2 0
BITMAP
FFFF80
FFFF80
FFFF80
E00000
E00000
E00000
E00000
E00000
E7FF00
E7FF00
E7FF00
E00000
E00000
E00000
E00000
E00000
FFFF80
FFFF80
FFFF80
ENDCHAR
STARTCHAR f
ENCODING 102
SWIDTH 705 0
DWIDTH 18 0
BBX 16 19 2 0
BITMAP
FFFF
FFFF
FFFF
E000
E000
E000
E000
E000
E7FE
E7FE
E7FE
E000
E000
E000
E000
E000
E000
E000
E000
ENDCHAR
STARTCHAR g
ENCODING 103
SWIDTH 888 0
DWIDTH 23 0
BBX 21 19 1 0
BITMAP
03FFF0
0FFFF0
1FFFF0
3F8000
7C0000
780000
F00000
F00000
E07FF8
E07FF8
E07FF8
F00078
700078
780078
7C0078
3F0078
1FFFF8
0FFFF8
03FFF8
ENDCHAR
STARTCHAR h
ENCODING 104
SWIDTH 838 0
DWIDTH 22 0
BBX 18 19 2 0
BITMAP
E001C0
E001C0
E001C0
E001C0
E001C0
E001C0
E001C0
E001C0
E7FFC0
E7FFC0
E7FFC0
E001C0
E001C0
E001C0
E001C0
E001C0
E001C0
E001C0
E001C0
ENDCHAR
STARTCHAR i
ENCODING 105
SWIDTH 267 0
DWIDTH 7 0
BBX 3 19 2 0
BITMAP
E0
E0
E0
E0
E0
E0
E0
E0
E0
E0
E0
E0
E0
E0
E0
E0
E0
E0
E0
ENDCHAR
STARTCHAR j
ENCODING 106
SWIDTH 708 0
DWIDTH 18 0
BBX 16 19 1 0
BITMAP
0007
0007
0007
0007
0007
0007
0007
0007
0007
0007
0007
0007
000F
000F
001E
00FE
FFFC
FFF8
FFE0
ENDCHAR
STARTCHAR k
ENCODING 107
SWIDTH 875 0
DWIDTH 23 0
BBX 20 19 2 0
BITMAP
E003F0
E007C0
E00F80
E03E00
E07C00
E0F800
E3E000
E7C000
EF8000
EF0000
EF8000
E3C000
E1F000
E0F800
E07C00
E01F00
E00F80
E007C0
E001F0
ENDCHAR
STARTCHAR l
ENCODING 108
SWIDTH 707 0
DWIDTH 18 0
BBX 16 19 2 0
BITMAP
E000
E000
E000
E000
E000
E000
E000
E000
E000
E000
E000
E000
E000
E000
E000
E000
FFFF
FFFF
FFFF
ENDCHAR
STARTCHAR m
ENCODING 109
SWIDTH 1115 0
DWIDTH 29 0
BBX 27 19 1 0
BITMAP
06000C00
0F001E00
0F001E00
0F803E00
0F803F00
1FC07F00
1DC07700
1DE07700
3CE0E780
38F0E380
3871C380
3871C380
787BC3C0
703B81C0
703F81C0
701F01C0
F01F01E0
E00E00E0
E00E00E0
ENDCHAR
STARTCHAR n
ENCODING 110
SWIDTH 873 0
DWIDTH 23 0
BBX 19 19 2 0
BITMAP
E000E0
F000E0
F800E0
FC00E0
FE00E0
FF00E0
EF80E0
E7C0E0
E3E0E0
E1F0E0
E0F8E0
E07CE0
E03EE0
E01FE0
E00FE0
E007E0
E003E0
E001E0
E000E0
ENDCHAR
STARTCHAR o
ENCODING 111
SWIDTH 968 0
DWIDTH 25 0
BBX 23 19 1 0
BITMAP
03FF80
0FFFE0
1FFFF0
3F83F8
7C007C
78003C
F0001E
F0000E
E0000E
E0000E
E0000E
F0000E
70001E
78001C
7C003C
3F01F8
1FFFF0
0FFFE0
03FF80
ENDCHAR
STARTCHAR p
ENCODING 112
SWIDTH 867 0
DWIDTH 23 0
BBX 20 19 2 0
BITMAP
FFFE00
FFFFC0
FFFFE0
E003E0
E000F0
E000F0
E00070
E00070
E000F0
E000E0
E007E0
E7FFC0
E7FF80
E7FE00
E00000
E00000
E00000
E00000
E00000
ENDCHAR
STARTCHAR q
ENCODING 113
SWIDTH 968 0
DWIDTH 25 0
BBX 24 19 1 0
BITMAP
03FF80
0FFFE0
1FFFF0
3F83F8
7C007C
78003C
F0001E
F0000E
E0000E
E0000E
E0000E
F03E0E
700F1E
7807BC
7C03FC
3F01F8
1FFFF8
0FFFFC
03FF9F
ENDCHAR
STARTCHAR r
ENCODING 114
SWIDTH 921 0
DWIDTH 24 0
BBX 22 19 2 0
BITMAP
FFFF00
FFFFC0
FFFFE0
E003E0
E000F0
E00070
E00070
E00070
E00070
E000F0
E001E0
E7FFE0
E7FFC0
E7FF00
E00780
E003C0
E001E0
E000F0
E0007C
ENDCHAR
STARTCHAR s
ENCODING 115
SWIDTH 880 0
DWIDTH 23 0
BBX 21 19 1 0
BITMAP
0FFFF0
3FFFF0
7FFFF0
7C0000
F00000
F00000
F00000
780000
7FFFC0
3FFFE0
0FFFF0
000070
000078
000038
000078
0000F0
7FFFF0
7FFFE0
7FFFC0
ENDCHAR
STARTCHAR t
ENCODING 116
SWIDTH 720 0
DWIDTH 19 0
BBX 17 19 1 0
BITMAP
FFFF80
FFFF80
FFFF80
01C000
01C000
01C000
01C000
01C000
01C000
01C000
01C000
01C000
01C000
01C000
01C000
01C000
01C000
01C000
01C000
ENDCHAR
STARTCHAR u
ENCODING 117
SWIDTH 889 0
DWIDTH 23 0
BBX 21 19 1 0
BITMAP
F00038
F00038
F00038
F00038
F00038
F00038
F00038
F00038
F00038
F00038
F00038
F00078
F00078
700070
7800F0
7E01F0
3FFFE0
1FFFC0
07FF00
ENDCHAR
STARTCHAR v
ENCODING 118
SWIDTH 989 0
DWIDTH 26 0
BBX 25 19 0 0
BITMAP
F8000780
78000700
3C000F00
3C000E00
1E001E00
0F003C00
0F003800
07807800
07807000
03C0F000
01E1E000
01E1C000
00F3C000
00F38000
007F8000
003F0000
003E0000
001E0000
001C0000
ENDCHAR
STARTCHAR w
ENCODING 119
SWIDTH 1268 0
DWIDTH 33 0
BBX 33 19 0 0
BITMAP
F83C000780
781E000F00
3C1E000E00
3C0F001E00
1E0F001C00
1E07803C00
0F07807800
0F03C07800
0783C0F000
0781E0F000
03C3E1E000
01C3F1C000
01E7F3C000
00E77B8000
00FF7F8000
007E3F0000
007C3F0000
003C1E0000
00380E0000
ENDCHAR
STARTCHAR x
ENCODING 120
SWIDTH 1000 0
DWIDTH 26 0
BBX 24 19 1 0
BITMAP
F8001E
3C003C
1E0078
0F00F0
0781E0
03C3C0
01E780
00FF00
007E00
007C00
00FE00
01FF00
03C7C0
0783E0
0F01F0
1E00F8
3C007C
78003E
F0001F
ENDCHAR
STARTCHAR y
ENCODING 121
SWIDTH 926 0
DWIDTH 24 0
BBX 24 19 0 0
BITMAP
F8001F
3C003E
3E007C
1F0078
0F80F0
0781E0
03C3C0
01E780
00FF80
00FF00
007E00
003C00
003C00
003C00
003C00
003C00
003C00
003C00
003C00
ENDCHAR
STARTCHAR z
ENCODING 122
SWIDTH 802 0
DWIDTH 21 0
BBX 19 19 1 0
BITMAP
FFFFC0
FFFFE0
FFFFE0
0007C0
000F80
001F00
003E00
007C00
00F800
01F000
03E000
07C000
0F8000
1F0000
3E0000
7C0000
FFFFE0
FFFFE0
7FFFE0
ENDCHAR
STARTCHAR braceleft
ENCODING 123
SWIDTH 337 0
DWIDTH 9 0
BBX 5 24 2 -2
BITMAP
38
78
70
60
60
60
60
60
60
60
60
E0
E0
60
60
60
60
60
60
60
60
60
78
38
ENDCHAR
STARTCHAR bar
ENCODING 124
SWIDTH 297 0
DWIDTH 8 0
BBX 2 24 3 -2
BITMAP
C0
C0
C0
C0
C0
C0
C0
C0
C0
C0
C0
C0
C0
C0
C0
C0
C0
C0
C0
C0
C0
C0
C0
C0
ENDCHAR
STARTCHAR braceright
ENCODING 125
SWIDTH 337 0
DWIDTH 9 0
BBX 5 24 2 -2
BITMAP
C0
E0
70
30
30
30
30
30
30
30
30
38
38
30
30
30
30
30
30
30
30
70
E0
E0
ENDCHAR
STARTCHAR asciitilde
ENCODING 126
SWIDTH 691 0
DWIDTH 18 0
BBX 14 4 2 8
BITMAP
7C04
FF8C
C7FC
80F8
ENDCHAR
STARTCHAR exclamdown
ENCODING 161
SWIDTH 298 0
DWIDTH 8 0
BBX 4 19 2 0
BITMAP
E0
F0
E0
00
00
00
F0
F0
F0
F0
F0
F0
F0
F0
F0
F0
F0
F0
F0
ENDCHAR
STARTCHAR cent
ENCODING 162
SWIDTH 692 0
DWIDTH 18 0
BBX 16 19 1 0
BITMAP
0060
0060
0FFF
3FFF
3FFF
7860
7060
E060
E060
E060
E060
E060
7060
7860
3FFF
1FFF
0FFF
0060
0060
ENDCHAR
STARTCHAR sterling
ENCODING 163
SWIDTH 709 0
DWIDTH 18 0
BBX 16 19 1 0
BITMAP
07FC
0FFC
1FFC
3E00
3C00
3800
3800
3800
7FC0
7FC0
3800
3800
3800
3800
3800
3800
FFFF
FFFF
FFFF
ENDCHAR
STARTCHAR yen
ENCODING 165
SWIDTH 787 0
DWIDTH 20 0
BBX 20 19 0 0
BITMAP
F800F0
3801E0
3C03C0
1E0380
0E0780
0F0F00
078E00
039E00
03DC00
01F800
1FFF80
1FFF80
007000
007000
007000
1FFF80
1FFF80
007000
007000
ENDCHAR
STARTCHAR brokenbar
ENCODING 166
SWIDTH 297 0
DWIDTH 8 0
BBX 2 24 3 -2
BITMAP
C0
C0
C0
C0
C0
C0
C0
C0
C0
C0
C0
00
00
00
C0
C0
C0
C0
C0
C0
C0
C0
C0
C0
ENDCHAR
STARTCHAR section
ENCODING 167
SWIDTH 773 0
DWIDTH 20 0
BBX 18 24 1 -5
BITMAP
1FFE00
3FFE00
7FFE00
F80000
F00000
E00000
F00000
700000
7FFE00
1FFF00
380700
700380
700380
780700
3FFE00
1FFF00
000780
000380
0003C0
0003C0
000780
3FFF80
3FFF00
3FFE00
ENDCHAR
STARTCHAR dieresis
ENCODING 168
SWIDTH 393 0
DWIDTH 10 0
BBX 8 2 1 21
BITMAP
E7
67
ENDCHAR
STARTCHAR copyright
ENCODING 169
SWIDTH 829 0
DWIDTH 22 0
BBX 19 19 1 0
BITMAP
01F800
060600
180100
300080
200040
41F820
430020
860020
840020
840020
840020
860020
430020
41F820
200040
300080
180100
060600
01F800
ENDCHAR
STARTCHAR ordfeminine
ENCODING 170
SWIDTH 604 0
DWIDTH 16 0
BBX 14 11 1 8
BITMAP
0200
0300
0780
0F80
0CC0
18C0
1860
33F0
6430
6018
C01C
ENDCHAR
STARTCHAR guillemotleft
ENCODING 171
SWIDTH 629 0
DWIDTH 16 0
BBX 14 10 1 5
BITMAP
0104
020C
0E1C
3870
61C0
C180
70E0
1C30
061C
0204
ENDCHAR
STARTCHAR registered
ENCODING 174
SWIDTH 585 0
DWIDTH 15 0
BBX 12 12 2 7
BITMAP
1F00
20C0
4040
9F20
9120
9110
9710
9120
80A0
4040
20C0
1F00
ENDCHAR
STARTCHAR macron
ENCODING 175
SWIDTH 362 0
DWIDTH 9 0
BBX 7 2 1 21
BITMAP
FE
FE
ENDCHAR
STARTCHAR degree
ENCODING 176
SWIDTH 361 0
DWIDTH 9 0
BBX 7 7 1 12
BITMAP
7C
7E
C6
C2
C2
C6
7C
ENDCHAR
STARTCHAR plusminus
ENCODING 177
SWIDTH 690 0
DWIDTH 18 0
BBX 14 18 2 -1
BITMAP
0300
0300
0300
0300
0300
0300
FFFC
FFFC
0300
0300
0300
0300
0300
0300
0300
0000
FFFC
FFFC
ENDCHAR
STARTCHAR twosuperior
ENCODING 178
SWIDTH 442 0
DWIDTH 11 0
BBX 9 9 1 10
BITMAP
FF80
0180
0080
0180
7F80
C000
C000
C000
FF80
ENDCHAR
STARTCHAR threesuperior
ENCODING 179
SWIDTH 443 0
DWIDTH 12 0
BBX 10 9 1 10
BITMAP
FF80
0380
0080
0180
3F80
0180
00C0
0380
FF80
ENDCHAR
STARTCHAR acute
ENCODING 180
SWIDTH 362 0
DWIDTH 9 0
BBX 7 4 1 20
BITMAP
02
1E
FC
C0
ENDCHAR
STARTCHAR paragraph
ENCODING 182
SWIDTH 629 0
DWIDTH 16 0
BBX 14 22 1 -3
BITMAP
3FFC
7FFC
FF0C
FF0C
FF0C
FF0C
7F0C
7F0C
0F0C
030C
030C
030C
030C
030C
030C
030C
030C
030C
030C
030C
030C
030C
ENDCHAR
STARTCHAR periodcentered
ENCODING 183
SWIDTH 262 0
DWIDTH 7 0
BBX 3 3 2 8
BITMAP
E0
E0
E0
ENDCHAR
STARTCHAR cedilla
ENCODING 184
SWIDTH 219 0
DWIDTH 6 0
BBX 4 4 1 -5
BITMAP
F0
60
60
40
ENDCHAR
STARTCHAR onesuperior
ENCODING 185
SWIDTH 222 0
DWIDTH 6 0
BBX 4 9 1 10
BITMAP
E0
60
30
30
30
30
30
30
30
ENDCHAR
STARTCHAR ordmasculine
ENCODING 186
SWIDTH 592 0
DWIDTH 15 0
BBX 13 11 1 8
BITMAP
0FC0
3FE0
7030
6018
C018
C018
C018
6018
7030
3FF0
1FC0
ENDCHAR
STARTCHAR guillemotright
ENCODING 187
SWIDTH 629 0
DWIDTH 16 0
BBX 14 10 1 5
BITMAP
8200
C180
70C0
1870
0E1C
070C
0C18
3860
E1C0
8100
ENDCHAR
STARTCHAR onequarter
ENCODING 188
SWIDTH 972 0
DWIDTH 25 0
BBX 23 22 1 -2
BITMAP
000060
3800C0
1C0180
0C0380
0C0300
0C0600
0C0C00
0C1C00
0C3800
0C3000
006000
00C60C
01C60C
01860C
03060C
06060C
0C03FE
1C01FE
18000C
30000C
600000
E00000
ENDCHAR
STARTCHAR onehalf
ENCODING 189
SWIDTH 948 0
DWIDTH 25 0
BBX 23 22 1 -2
BITMAP
000060
3800C0
1C0180
0C0380
0C0300
0C0600
0C0C00
0C1C00
0C3800
0C3000
006000
00C7FC
01C00C
018006
03000C
0603FC
0C0600
1C0600
180600
3007FC
600000
E00000
ENDCHAR
STARTCHAR threequarters
ENCODING 190
SWIDTH 1029 0
DWIDTH 27 0
BBX 25 22 1 -2
BITMAP
00003800
FF807000
03806000
0080C000
01818000
3F838000
00830000
00C60000
018C0000
FF980000
00380000
00310200
00610200
00C10200
01C10200
03810200
0301FF80
0600FF80
0C000200
1C000200
18000000
30000000
ENDCHAR
ENDFONT
